<svg width="77" height="26" viewBox="0 0 77 26" fill="none" xmlns="http://www.w3.org/2000/svg">
<g clip-path="url(#clip0)">
<path d="M13 18.6C16.4 18.6 19.1 15.9 19.1 12.6C19.1 9.30001 16.4 6.60001 13 6.60001C9.59999 6.60001 6.89999 9.30001 6.89999 12.6C6.89999 15.9 9.59999 18.6 13 18.6Z" fill="#C5C5C5"/>
<path d="M25.8 20.9C25.8 20.3 25.8 2.5 25.8 1.3C25.9 0 25.2 0 24.7 0C24 0 5 0 4.6 0C4.1 0 3.6 0.6 4.2 1.2C4.6 1.6 6.9 3.9 8.2 5.1C15.3 0.5 25.9 8.2 20.6 17.3C21.8 18.5 24.4 21 24.7 21.3C25.2 21.8 25.8 21.6 25.8 20.9Z" fill="#AFAFAF"/>
<path d="M0 4.4C0 5 0 22.8 0 24C0 25.3 0.7 25.3 1.1 25.3C1.9 25.3 20.8 25.3 21.2 25.3C21.7 25.3 22.2 24.7 21.6 24.1C21.2 23.7 19.3 21.8 17.6 20.2C10.5 24.6 0.2 17.1 5.3 8C4.1 6.8 1.5 4.3 1.2 4C0.7 3.6 0 3.8 0 4.4Z" fill="#AFAFAF"/>
<path d="M75.6 19.1V21.9L74.7 19.1H73.4V25.3H74.7V22.5L75.5 25.3H76.9V19.1H75.6ZM71.2 23.5C71.2 23.9 71.2 24.1 71.2 24.2C71.2 24.3 71.1 24.3 71 24.3C70.9 24.3 70.8 24.3 70.8 24.2C70.8 24.1 70.8 23.9 70.8 23.5V20.6C70.8 20.3 70.8 20.1 70.9 20C70.9 19.9 71 19.9 71.1 19.9C71.2 19.9 71.3 19.9 71.3 20C71.3 20.1 71.3 20.3 71.3 20.6L71.2 23.5ZM72.8 21.7C72.8 21.1 72.8 20.6 72.8 20.4C72.8 20.1 72.7 19.9 72.5 19.7C72.3 19.5 72.1 19.3 71.9 19.2C71.5 19 71.2 19 70.9 19C70.6 19 70.2 19.1 70 19.2C69.7 19.3 69.5 19.5 69.4 19.7C69.2 19.9 69.2 20.2 69.1 20.4C69.1 20.7 69.1 21.1 69.1 21.7V22.8C69.1 23.4 69.1 23.9 69.1 24.1C69.1 24.4 69.2 24.6 69.4 24.8C69.6 25 69.8 25.2 70 25.3C70.3 25.4 70.6 25.5 70.9 25.5C71.2 25.5 71.6 25.4 71.8 25.3C72.1 25.2 72.3 25 72.4 24.8C72.6 24.6 72.6 24.3 72.7 24.1C72.7 23.8 72.7 23.4 72.7 22.8L72.8 21.7ZM66.8 19.1V25.3H68.4V19.1H66.8ZM62.9 19.1V20.3H63.9V25.3H65.5V20.3H66.5V19.1H62.9ZM62.6 21.2C62.6 20.6 62.6 20.2 62.5 19.9C62.4 19.6 62.2 19.4 61.9 19.2C61.6 19 61.2 18.9 60.7 18.9C60.4 18.9 60 19 59.8 19.1C59.5 19.2 59.3 19.4 59.2 19.6C59 19.8 59 20 58.9 20.2C58.9 20.4 58.9 20.8 58.9 21.2V23C58.9 23.6 58.9 24.1 59 24.4C59.1 24.7 59.3 24.9 59.6 25.1C59.9 25.3 60.3 25.4 60.8 25.4C61.3 25.4 61.6 25.3 61.9 25.1C62.2 24.9 62.4 24.7 62.5 24.4C62.6 24.1 62.6 23.7 62.6 23V22.8H61V23.6C61 23.9 61 24.2 60.9 24.2C60.9 24.3 60.8 24.3 60.7 24.3C60.6 24.3 60.5 24.3 60.5 24.2C60.5 24.1 60.4 23.9 60.4 23.6V20.7C60.4 20.4 60.4 20.2 60.5 20.1C60.5 20 60.6 20 60.8 20C60.9 20 61 20 61 20.1C61 20.2 61.1 20.4 61.1 20.7V21.8H62.7L62.6 21.2ZM56.7 19V23.6C56.7 23.9 56.7 24.1 56.7 24.2C56.7 24.3 56.6 24.3 56.5 24.3C56.4 24.3 56.4 24.3 56.3 24.2C56.3 24.1 56.3 24 56.3 23.7V19.1H54.7V22.8C54.7 23.5 54.7 24 54.7 24.2C54.7 24.4 54.8 24.6 54.9 24.8C55 25 55.3 25.2 55.5 25.3C55.8 25.4 56.1 25.5 56.5 25.5C56.8 25.5 57.1 25.4 57.4 25.3C57.6 25.2 57.8 25 58 24.8C58.2 24.6 58.2 24.4 58.3 24.2C58.3 24 58.3 23.7 58.3 23.2V19.1L56.7 19ZM52.4 20.2C52.5 20.3 52.5 20.4 52.5 20.6V20.9C52.5 21.2 52.5 21.3 52.4 21.4C52.3 21.4 52.2 21.5 52 21.5V20.1C52.2 20.1 52.3 20.1 52.4 20.2ZM50.4 25.2H52V22.4C52.2 22.4 52.4 22.4 52.4 22.5C52.5 22.6 52.5 22.8 52.5 23.1V25.2H54V23.6C54 23.1 54 22.8 54 22.7C54 22.6 53.9 22.5 53.8 22.3C53.7 22.2 53.5 22.1 53.2 22C53.6 22 53.8 21.9 53.9 21.7C54 21.5 54.1 21.2 54.1 20.7C54.1 20.2 54 19.8 53.8 19.5C53.6 19.3 53.4 19.1 53.1 19C52.8 18.9 52.3 18.9 51.6 18.9H50.5L50.4 25.2ZM46.5 19V20.2H47.5V25.2H49.1V20.2H50.1V19H46.5ZM46.1 20.7C46.1 20.2 46.1 19.9 46 19.7C45.9 19.5 45.7 19.3 45.4 19.2C45.1 19.1 44.7 19 44.3 19C43.9 19 43.6 19.1 43.3 19.2C43 19.3 42.8 19.5 42.7 19.7C42.6 19.9 42.5 20.3 42.5 20.7C42.5 21 42.5 21.3 42.6 21.5C42.7 21.7 42.8 21.9 42.9 22C43 22.1 43.3 22.3 43.7 22.6C44.1 22.9 44.4 23.1 44.5 23.2C44.6 23.3 44.6 23.6 44.6 23.9C44.6 24.1 44.6 24.2 44.5 24.3C44.4 24.4 44.4 24.4 44.3 24.4C44.2 24.4 44.1 24.4 44.1 24.3C44.1 24.2 44 24.1 44 23.9V23.1H42.5V23.5C42.5 24 42.5 24.3 42.6 24.6C42.7 24.9 42.9 25.1 43.2 25.2C43.5 25.4 43.9 25.4 44.3 25.4C44.7 25.4 45 25.3 45.3 25.2C45.6 25.1 45.8 24.9 45.9 24.7C46 24.5 46.1 24.2 46.1 23.7C46.1 23.1 46 22.7 45.8 22.4C45.6 22.1 45.2 21.8 44.4 21.3C44.1 21.2 44 21 43.9 20.9C43.8 20.8 43.8 20.6 43.8 20.4C43.8 20.2 43.8 20.1 43.9 20C43.9 19.9 44 19.9 44.1 19.9C44.2 19.9 44.3 19.9 44.3 20C44.3 20.1 44.4 20.2 44.4 20.4V20.9H45.9V20.7H46.1ZM40.7 19V21.8L39.8 19H38.5V25.2H39.8V22.4L40.6 25.2H42V19H40.7ZM36.2 23.4C36.2 23.8 36.2 24 36.2 24.1C36.2 24.2 36.1 24.2 36 24.2C35.9 24.2 35.8 24.2 35.8 24.1C35.8 24 35.8 23.8 35.8 23.4V20.5C35.8 20.2 35.8 20 35.9 19.9C35.9 19.8 36 19.8 36.1 19.8C36.2 19.8 36.3 19.8 36.3 19.9C36.3 20 36.3 20.2 36.3 20.5L36.2 23.4ZM37.9 21.6C37.9 21 37.9 20.5 37.9 20.3C37.9 20 37.8 19.8 37.6 19.6C37.4 19.4 37.2 19.2 37 19.1C36.7 19 36.4 18.9 36.1 18.9C35.8 18.9 35.4 19 35.2 19.1C34.9 19.2 34.7 19.4 34.6 19.6C34.4 19.8 34.4 20.1 34.3 20.3C34.3 20.6 34.3 21 34.3 21.6V22.7C34.3 23.3 34.3 23.8 34.3 24C34.3 24.3 34.4 24.5 34.6 24.7C34.8 24.9 35 25.1 35.2 25.2C35.5 25.3 35.8 25.4 36.1 25.4C36.4 25.4 36.8 25.3 37 25.2C37.3 25.1 37.5 24.9 37.6 24.7C37.8 24.5 37.8 24.3 37.9 24C37.9 23.7 37.9 23.3 37.9 22.7V21.6ZM33.6 21.1C33.6 20.5 33.6 20.1 33.5 19.8C33.4 19.5 33.2 19.3 32.9 19.1C32.6 18.9 32.2 18.8 31.7 18.8C31.4 18.8 31 18.9 30.8 19C30.5 19.1 30.3 19.3 30.2 19.5C30 19.7 30 19.9 29.9 20.1C29.9 20.3 29.9 20.7 29.9 21.1V22.9C29.9 23.5 29.9 24 30 24.3C30.1 24.6 30.3 24.8 30.6 25C30.9 25.2 31.3 25.3 31.8 25.3C32.3 25.3 32.6 25.2 32.9 25C33.2 24.8 33.4 24.6 33.5 24.3C33.6 24 33.6 23.6 33.6 22.9V22.7H32V23.5C32 23.8 32 24.1 31.9 24.1C31.9 24.2 31.8 24.2 31.7 24.2C31.6 24.2 31.5 24.2 31.5 24.1C31.5 24 31.4 23.8 31.4 23.5V20.6C31.4 20.3 31.4 20.1 31.5 20C31.5 19.9 31.6 19.9 31.8 19.9C31.9 19.9 32 19.9 32 20C32 20.1 32.1 20.3 32 20.6V21.7H33.6V21.1Z" fill="#AFAFAF"/>
<path d="M57.3 15.8H60.1V14.6H58.9V13.2H59.9V12H58.9V10.8H60V9.6H57.3V15.8ZM55.1 10.8C55.2 10.9 55.2 11 55.2 11.2V11.5C55.2 11.8 55.2 11.9 55.1 12C55 12 54.9 12.1 54.7 12.1V10.7C54.9 10.7 55 10.7 55.1 10.8ZM53.1 15.8H54.7V13C54.9 13 55.1 13 55.1 13.1C55.2 13.2 55.2 13.4 55.2 13.7V15.8H56.7V14.2C56.7 13.7 56.7 13.4 56.7 13.3C56.7 13.2 56.6 13.1 56.5 12.9C56.4 12.8 56.2 12.7 55.9 12.6C56.3 12.6 56.5 12.5 56.6 12.3C56.7 12.1 56.8 11.8 56.8 11.3C56.8 10.8 56.7 10.4 56.5 10.1C56.3 9.9 56.1 9.7 55.8 9.6C55.5 9.5 55 9.5 54.3 9.5H53.2L53.1 15.8ZM50.9 14.1C50.9 14.5 50.9 14.7 50.9 14.8C50.9 14.9 50.8 14.9 50.7 14.9C50.6 14.9 50.5 14.9 50.5 14.8C50.5 14.7 50.5 14.5 50.5 14.1V11.2C50.5 10.9 50.5 10.7 50.6 10.6C50.6 10.5 50.7 10.5 50.8 10.5C50.9 10.5 51 10.5 51 10.6C51 10.7 51 10.9 51 11.2L50.9 14.1ZM52.5 12.2C52.5 11.6 52.5 11.1 52.5 10.9C52.5 10.6 52.4 10.4 52.2 10.2C52 10 51.8 9.8 51.6 9.7C51.3 9.6 51 9.5 50.7 9.5C50.4 9.5 50 9.6 49.8 9.7C49.5 9.8 49.3 10 49.2 10.2C49 10.4 49 10.7 48.9 10.9C48.9 11.2 48.9 11.6 48.9 12.2V13.3C48.9 13.9 48.9 14.4 48.9 14.6C48.9 14.9 49 15.1 49.2 15.3C49.4 15.5 49.6 15.7 49.8 15.8C50.1 15.9 50.4 16 50.7 16C51 16 51.4 15.9 51.6 15.8C51.9 15.7 52.1 15.5 52.2 15.3C52.4 15.1 52.4 14.8 52.5 14.6C52.5 14.3 52.5 13.9 52.5 13.3V12.2ZM46.5 9.6V11.8H46V9.6H44.4V15.8H46V13.2H46.5V15.8H48.1V9.6H46.5ZM43.8 11.2C43.8 10.7 43.8 10.4 43.7 10.2C43.6 10 43.4 9.8 43.1 9.7C42.8 9.6 42.4 9.5 42 9.5C41.6 9.5 41.3 9.6 41 9.7C40.7 9.8 40.5 10 40.4 10.2C40.3 10.4 40.2 10.8 40.2 11.2C40.2 11.5 40.2 11.8 40.3 12C40.4 12.2 40.5 12.4 40.6 12.5C40.7 12.6 41 12.8 41.4 13.1C41.8 13.4 42.1 13.6 42.2 13.7C42.3 13.8 42.3 14.1 42.3 14.4C42.3 14.6 42.3 14.7 42.2 14.8C42.1 14.9 42.1 14.9 42 14.9C41.9 14.9 41.8 14.9 41.8 14.8C41.8 14.7 41.7 14.6 41.7 14.4V13.6H40.2V14C40.2 14.5 40.2 14.8 40.3 15.1C40.4 15.4 40.6 15.6 40.9 15.7C41.2 15.9 41.6 15.9 42 15.9C42.4 15.9 42.7 15.8 43 15.7C43.3 15.6 43.5 15.4 43.6 15.2C43.7 15 43.8 14.7 43.8 14.2C43.8 13.6 43.7 13.2 43.5 12.9C43.3 12.6 42.9 12.3 42.1 11.8C41.9 11.7 41.7 11.5 41.6 11.4C41.5 11.3 41.5 11.1 41.5 10.9C41.5 10.7 41.5 10.6 41.6 10.5C41.7 10.4 41.7 10.4 41.8 10.4C41.9 10.4 42 10.4 42 10.5C42 10.6 42.1 10.7 42.1 10.9V11.4H43.6V11.2H43.8ZM37.3 15.8H38.9V13.2H39.9V12H38.9V10.8H40V9.6H37.3V15.8ZM34.1 15.8H35.7V13.2H36.7V12H35.7V10.8H36.8V9.6H34.1V15.8ZM31.9 14C31.9 14.4 31.9 14.6 31.9 14.7C31.9 14.8 31.8 14.8 31.7 14.8C31.6 14.8 31.5 14.8 31.5 14.7C31.5 14.6 31.5 14.4 31.5 14V11.1C31.5 10.8 31.5 10.6 31.6 10.5C31.6 10.4 31.7 10.4 31.8 10.4C31.9 10.4 32 10.4 32 10.5C32 10.6 32 10.8 32 11.1L31.9 14ZM33.5 12.2C33.5 11.6 33.5 11.1 33.5 10.9C33.5 10.6 33.4 10.4 33.2 10.2C33 10 32.8 9.8 32.6 9.7C32.3 9.6 32 9.5 31.7 9.5C31.4 9.5 31 9.6 30.8 9.7C30.5 9.8 30.3 10 30.2 10.2C30 10.4 30 10.7 29.9 10.9C29.8 11.1 29.9 11.6 29.9 12.2V13.3C29.9 13.9 29.9 14.4 29.9 14.6C29.9 14.9 30 15.1 30.2 15.3C30.4 15.5 30.6 15.7 30.8 15.8C31.1 15.9 31.4 16 31.7 16C32 16 32.4 15.9 32.6 15.8C32.9 15.7 33.1 15.5 33.2 15.3C33.4 15.1 33.4 14.8 33.5 14.6C33.5 14.3 33.5 13.9 33.5 13.3V12.2Z" fill="#AFAFAF"/>
<path d="M54.7 0.2V3L53.8 0.2H52.5V6.4H53.8V3.6L54.6 6.4H56V0.2H54.7ZM49.8 4.2C49.8 3.7 49.9 2.8 50.1 1.6C50.2 2.6 50.3 3.5 50.3 4.2H49.8ZM48.9 0.2L48.1 6.4H49.8L49.9 5.3H50.5L50.6 6.4H52.2L51.3 0.2H48.9ZM46.2 0.2V6.4H47.8V0.2H46.2ZM44.3 1.4C44.4 1.5 44.4 1.6 44.4 1.8V2.3C44.4 2.5 44.4 2.7 44.3 2.8C44.2 2.9 44.1 2.9 44 2.9H43.9V1.3C44.1 1.3 44.2 1.3 44.3 1.4ZM42.2 6.4H43.8V3.9H44.2C44.6 3.9 44.8 3.9 45.1 3.8C45.3 3.7 45.5 3.6 45.6 3.4C45.7 3.2 45.7 2.9 45.7 2.5V2C45.7 1.6 45.7 1.3 45.6 1.1C45.6 0.9 45.5 0.8 45.4 0.6C45.3 0.5 45.1 0.4 44.9 0.3C44.7 0.2 44.3 0.2 43.9 0.2H42.3L42.2 6.4ZM41.6 1.8C41.6 1.3 41.6 1 41.5 0.8C41.4 0.6 41.2 0.4 40.9 0.3C40.6 0.2 40.2 0.1 39.8 0.1C39.4 0.1 39.1 0.2 38.8 0.3C38.5 0.4 38.3 0.6 38.2 0.8C38.1 1 38 1.4 38 1.8C38 2.1 38 2.4 38.1 2.6C38.2 2.8 38.3 3 38.4 3.1C38.5 3.2 38.8 3.4 39.2 3.7C39.7 4 40 4.2 40.1 4.3C40.2 4.4 40.2 4.7 40.2 5C40.2 5.2 40.2 5.3 40.1 5.4C40 5.5 40 5.5 39.9 5.5C39.8 5.5 39.7 5.5 39.7 5.4C39.7 5.3 39.6 5.2 39.6 5V4.2H38.1V4.6C38.1 5.1 38.1 5.4 38.2 5.7C38.3 6 38.5 6.2 38.8 6.3C39.1 6.5 39.5 6.5 39.9 6.5C40.3 6.5 40.6 6.4 40.9 6.3C41.2 6.2 41.4 6 41.5 5.8C41.6 5.6 41.7 5.3 41.7 4.8C41.7 4.2 41.6 3.8 41.4 3.5C41.2 3.2 40.8 2.9 40 2.4C39.8 2.3 39.6 2.1 39.5 2C39.4 1.9 39.4 1.7 39.4 1.5C39.4 1.3 39.4 1.2 39.5 1.1C39.6 1 39.6 1 39.7 1C39.8 1 39.9 1 39.9 1.1C39.9 1.2 40 1.3 40 1.5V2H41.5L41.6 1.8ZM35.6 4.2C35.6 3.7 35.7 2.8 35.9 1.6C36 2.6 36.1 3.5 36.1 4.2H35.6ZM34.7 0.2L33.9 6.4H35.6L35.7 5.3H36.3L36.4 6.4H38L37 0.2H34.7ZM33.6 2.3C33.6 1.7 33.6 1.3 33.5 1C33.4 0.7 33.2 0.5 32.9 0.3C32.6 0.1 32.2 0 31.7 0C31.4 0 31 0.1 30.8 0.2C30.5 0.3 30.3 0.5 30.2 0.7C30 0.9 30 1.1 29.9 1.3C29.9 1.5 29.9 1.9 29.9 2.3V4.1C29.9 4.7 29.9 5.2 30 5.5C30.1 5.8 30.3 6 30.6 6.2C30.9 6.4 31.3 6.5 31.8 6.5C32.3 6.5 32.6 6.4 32.9 6.2C33.2 6 33.4 5.8 33.5 5.5C33.6 5.2 33.6 4.8 33.6 4.1V3.9H32V4.7C32 5 32 5.2 32 5.3C32 5.4 31.9 5.4 31.8 5.4C31.7 5.4 31.6 5.4 31.6 5.3C31.6 5.2 31.5 5 31.5 4.7V1.8C31.5 1.5 31.5 1.3 31.6 1.2C31.6 1.1 31.7 1.1 31.9 1.1C32 1.1 32.1 1.1 32.1 1.2C32.1 1.3 32.2 1.5 32.1 1.8V2.9H33.7L33.6 2.3Z" fill="#AFAFAF"/>
</g>
<defs>
<clipPath id="clip0">
</clipPath>
</defs>
</svg>
