<svg width="24" height="29" viewBox="0 0 24 29" fill="none" xmlns="http://www.w3.org/2000/svg">
<g clip-path="url(#clip0)">
<path d="M22.7 28.8C23.2 28.8 23.6 28.4 23.6 27.9V10.1C23.6 9.60001 23.2 9.20001 22.7 9.20001H0.9C0.4 9.20001 0 9.60001 0 10.1V28C0 28.5 0.4 28.9 0.9 28.9H22.7V28.8Z" fill="#D5D5D5"/>
<path d="M14.1 2.3C14.1 2.2 14 2 13.9 2C13.3 1.7 12.7 2.1 12.1 2.1C11.9 2.1 11.7 2.1 11.5 2C11.5 1.9 11.6 1.9 11.6 1.8C11.5 1.8 11.3 1.8 11.1 1.7C11.1 1.7 10.7 1.7 10.5 1.6C9.6 1.2 8.9 1.1 7.9 1.5C7.6 1.6 7.3 1.8 7 1.8C6.9 1.8 7.2 2.1 7.2 2.2C6.7 2.3 6.3 2.4 5.8 2.8C6.1 3.2 6.6 3.3 7 3.3C7.1 3.3 7.4 3.6 8.1 3.7C9.1 3.9 9.7 3.3 10.4 3.6C10.4 3.5 10.4 3.4 10.4 3.3C11.2 3.5 11.9 3.5 12.6 3.2C13.2 3.1 13.4 2.2 14.1 2.3Z" fill="#818181"/>
<path d="M4.9 1.8C4.9 2 4.8 2.1 4.6 2.1C4.4 2.1 4.3 2 4.3 1.8C4.3 1.6 4.4 1.5 4.6 1.5C4.7 1.5 4.9 1.6 4.9 1.8ZM14 6.2C14.6 5.6 14.9 4.6 15.2 4.1C15.5 3.6 15.8 3.3 16.2 3.3C16.6 3.3 17.1 3.6 17.2 4C17.3 4.3 17.2 4.7 17.1 5C16.9 5.3 16.5 5.4 16.2 5.3C16 5.2 15.8 5.1 15.7 5C15.5 5.3 15.2 5.7 14.8 6C14.6 6.1 14.3 6.2 14 6.2ZM5.3 2.4L6 2C6.1 2 6.1 2.1 6.2 2.2C6.3 2.2 6.2 2 6.3 1.9C6.4 1.9 6.4 2 6.5 2.1C6.7 2.1 6.6 1.8 6.7 1.7C6.8 1.5 7.1 1.6 7 1.3L6.8 0.2C6.7 0.1 6.7 0 6.6 0C5.7 0.4 5 0.7 4.2 1C4.1 1 4.1 1 3.9 1L2.6 0C2.7 0.6 2.7 1.1 2.8 1.5C2.8 1.6 2.8 1.6 2.8 1.6C2.4 1.6 2.2 1.8 2 2.1C1.8 2.5 1.6 2.8 1.2 3C1.3 3.2 1.4 3.3 1.6 3.3C1.7 3.4 1.8 3.3 2 3.4V3.5C1.5 4.1 2 4.9 1.4 5.3C1.7 5.4 2 5.3 2.2 5.1C2.1 5.5 2 5.9 2.1 6.4C2.1 6.4 2.1 6.5 2.1 6.6C2.1 6.6 2.1 6.7 2 6.8C2.8 6.7 3.1 5.7 3.2 5.5C3.2 5.5 3 6.2 3.2 6.6C3.3 6.7 3.3 6.7 3.4 6.7C3.5 6.3 3.7 5.9 4 5.6C4.3 5.6 4.6 5.8 4.9 5.9C5.1 5.5 4.8 4.9 4.8 4.9C4.8 4.9 5 5.2 5.1 5.3C5.2 5.4 5.7 5.5 5.9 5.3C6 5.2 6.1 5.1 6.1 5C5.4 5.1 5.4 4.1 5 3.7C5.2 3.7 5.3 4 5.5 4.1C5.5 4.1 6.5 4.3 6.6 4.3C6.7 4.3 6.7 4.2 6.7 4.2C6.7 4.2 6.8 3.8 6.8 3.6C6.7 3.5 6.6 3.7 6.5 3.7C6.2 3.7 6.1 3.6 5.8 3.5L5.3 2.4C5.2 2.5 5.3 2.4 5.3 2.4ZM11.9 6.2C11.8 6.1 11.8 5.9 11.8 6C11.6 6.2 11.6 6.5 11.7 6.7C11.7 6.8 11.6 6.8 11.6 6.8C11.4 6.6 11.3 6.4 11.2 6.2C11 6.3 10.9 6.5 10.9 6.7C10.9 6.9 11 7.1 10.9 7.1C10.6 7.1 10.5 6.6 10.5 6.3C10.4 6.3 10.3 6.4 10.2 6.6C10 6.6 10 6.9 9.8 6.8C9.6 6.8 9.5 6.5 9.5 6.2C9.5 6.1 9.4 6.2 9.3 6.2C9.2 6.4 9 6.6 8.9 6.8C8.7 6.6 8.7 6.3 8.7 6C8.4 6.1 8 7 7.6 7C7.6 7 7.5 7 7.6 6.9C7.8 6.7 7.8 6.3 7.7 6C7.7 5.9 7.6 5.7 7.6 5.8C7.6 5.8 7.3 6.2 7.1 6.3C7 6.3 6.8 6.5 6.6 6.6C6.6 6.4 7 5.9 6.8 5.2C6.6 5.4 6.5 5.5 6 5.7C5.7 5.8 5.5 5.7 5.3 5.6C5.3 5.8 5.2 6.1 5 6.3C5 6.3 4.3 5.9 4.1 6C3.9 6 3.7 6.7 3.5 7.1C3.2 7.1 2.8 6.8 2.8 6.5C2.6 7.2 2.6 7.9 2.7 8.7C3.1 10.6 3.7 11.9 4.1 14.2C4.3 15 3.3 15.5 3 16.3C3.4 16.3 3.7 16.3 4.2 16.3C4.3 16.3 4.5 16.2 4.5 16C4.6 15.6 4.6 15.1 4.8 14.7C5.2 14.6 5.3 14.1 5.7 13.9C5.7 13.8 5.5 13.7 5.5 13.6C5.6 13.5 5.8 13.3 5.9 13.2C5.9 13.1 5.7 13 5.7 12.9C5.7 12.8 5.7 12.7 5.8 12.6C5.9 12.5 6.2 12.4 6 12.2C5.9 12 5.7 12.1 5.5 11.9C5.6 11.7 5.8 11.4 6 11.3C5.9 11 5.6 10.9 5.3 11V10.5C5.3 10.4 5.4 10.5 5.4 10.5C5.7 10.7 6 10.8 6.3 10.9C6.3 11.2 6.4 11.5 6.4 11.7C6.4 12.1 6.7 12.4 6.7 12.9C6.7 13.2 6.3 13.4 6.1 13.5C6 13.6 5.9 13.6 5.9 13.8C6.1 14.1 6.5 14.3 6.8 14.6C7 14.3 7.1 13.9 7.3 13.7C7.5 13.7 7.6 13.6 7.7 13.6C7.8 13.6 7.9 13.6 8 13.5C7.9 13.3 7.7 13.1 7.5 13C7.6 12.9 7.8 12.9 7.9 12.9C8 12.9 8.1 12.9 8.1 12.8C7.9 12.7 7.7 12.6 7.7 12.4C7.9 12.3 8.2 12.1 8.3 11.8C8.2 11.7 8 11.7 7.9 11.6C7.9 11.4 7.9 11.2 8 11.1C8 11 8.1 10.9 8.2 10.9C8.7 11 9.3 11 9.8 10.9C9.8 10.9 10 10.9 10 11C9.9 11.6 9.6 12.2 9.5 12.9C9.3 13.2 9 13.3 8.8 13.5C8.6 13.6 8.4 13.7 8.3 13.9L9.3 14.7C9.5 14.5 9.6 14.1 9.8 13.9C9.8 13.8 9.8 13.7 9.9 13.6C10.1 13.6 10.3 13.6 10.5 13.5C10.5 13.3 10.3 13.2 10.2 13C10.4 13 10.6 13 10.7 12.9C10.8 12.8 10.9 12.7 10.9 12.6H10.7C10.7 12.6 10.6 12.6 10.6 12.5C10.9 12.4 11.2 12.4 11.4 12.1C11.4 12.1 11.3 12.1 11.3 12C11.3 11.9 11.4 11.9 11.4 11.9C11.6 11.8 11.8 11.6 11.8 11.4C11.6 11.4 11.4 11.4 11.4 11.2C11.5 11 11.7 10.9 11.9 10.9C12.2 11.5 12.5 12.1 13 12.6C13 12.6 13 12.7 13 12.8L12 13.8V13.9H13.3C13.4 13.9 13.5 13.8 13.5 13.8C13.5 13.4 13.5 13.1 13.6 12.7C13.8 12.5 13.9 12.2 14.2 12.2C14.2 12.1 14 12 13.9 11.9C13.9 11.7 14 11.6 14.1 11.5C14 11.4 13.8 11.6 13.7 11.5C13.8 11.4 13.9 11.4 14 11.1C14 11 14 11.1 14 11.1C13.9 11.1 13.8 11.1 13.7 11.1C13.6 11 13.5 11 13.5 10.8C13.6 10.6 13.8 10.4 13.9 10.2C14 10.1 14 10.1 14.1 10.2C14.2 10.4 14.2 10.6 14.3 10.7C14.3 10.8 14.3 11 14.4 11.1C14.7 11.3 15 11.6 15.3 11.9C15.4 12.1 15.6 12.3 15.6 12.6L14.8 13.8C14.8 13.9 14.8 13.9 14.8 13.9L14.9 14L16.1 13.7C16.1 13.7 16.1 13.7 16.2 13.7V12.8C16.3 12.7 16.5 12.6 16.7 12.4C16.7 12.3 16.6 12.3 16.6 12.3C16.6 12.2 16.7 12.1 16.8 12C16.7 11.9 16.5 11.9 16.5 11.7C16.7 11.6 16.8 11.4 16.9 11.2C16.8 11.1 16.7 11.2 16.6 11.2C16.5 11.2 16.1 11.2 16 11C15.9 10.9 15.9 10.7 15.9 10.5V10.4C16.8 10.7 17.8 10.9 18.8 11.1C18.8 11.1 18.9 11.1 19 11.2C19.4 11.9 19.8 12.5 20.2 13.2C20.3 13.4 20.4 13.5 20.4 13.6C20.2 14 19.8 14.3 19.5 14.6C19.4 14.8 19.5 14.9 19.6 14.9L20.8 14.7C20.8 14.7 20.9 14.7 20.9 14.6C20.9 14.3 21 14 21 13.7C21.1 13.5 21.3 13.5 21.4 13.4C21.3 13.3 21.2 13.2 21 13.1C20.7 12.9 20.6 12.6 20.6 12.4C20.4 11.9 20.9 12 20.9 11.7C20.8 11.6 20.7 11.5 20.6 11.4C20.6 11.2 20.7 11.2 20.9 11.1C20.9 11 20.8 10.9 20.7 10.9C20.6 10.9 20.5 10.8 20.4 10.8C20.4 10.7 20.8 10.6 20.7 10.2C20.6 10.3 20.4 10.2 20.3 10.2C20.1 10.1 20.4 10 20.3 9.8C20 9.7 19.7 9.6 19.4 9.4C19.2 9.3 19.1 9 19 8.8C18.7 7.9 18.4 7.1 17.8 6.3C17.6 6 17.6 6 17.4 5.9C17.3 5.9 17.4 5.7 17.5 5.6C17.6 5.5 17.8 5.3 17.8 5.2C18 4.7 18 3.9 17.7 3.4C17.4 2.8 16.9 2.5 16.3 2.5C15.4 2.5 14.8 3.2 14.5 4C14.1 5 14.2 5.4 13.6 5.9C13.4 6 13.1 6 12.9 5.8C12.8 5.7 12.7 5.5 12.8 5.3C12.9 5.3 13 5.5 13 5.5C13.1 5.6 13.2 5.6 13.3 5.5C13.4 5.4 13.5 5.3 13.5 5.1C13.5 4.9 13.4 4.8 13.3 4.7C13.1 4.5 12.8 4.6 12.6 4.7C12.3 4.8 12.1 5.2 12.2 5.5C12.2 5.7 12.4 5.9 12.5 6.2C12.5 6.3 12.5 6.3 12.4 6.3C12.2 6.4 12 6.4 11.9 6.2Z" fill="#727272"/>
<path d="M3.2 25.3C3.2 23.4 4.3 22 6.1 22C7.4 22 8.2 22.7 8.4 23.8C8.5 24.7 8.4 25.2 7.3 25.2L3.7 25.4C3.8 27.9 5.4 28.7 7.4 28.7H8.7V28.1H7.4C5.6 28 4.5 27.3 4.5 25.9L7.9 25.7C8.6 25.7 9.1 25.3 9.1 24.5C9.1 22.9 8.2 21.4 6.2 21.4C4.3 21.4 2.7 22.8 2.7 25.3C2.7 26.7 3.2 28 4.1 28.8H5.2C3.9 28.3 3.2 27.1 3.2 25.3Z" fill="#727272"/>
<path d="M11.5 23.7V28.8H12.3V24C12.7 23.5 13.5 23.1 14 23.1C14.7 23.1 15 23.4 15 24.2V28.8H15.7V24.1C15.7 23.1 15.2 22.5 14 22.5C13.3 22.5 12.5 22.9 11.5 23.7Z" fill="#727272"/>
<path d="M11 23.5C12 22.6 13 22.1 14.1 22.1C15.4 22.1 16.2 22.8 16.2 24.1V28.8H16.9V24.1C16.9 22.6 16.2 21.5 14.2 21.5C13 21.5 11.6 22.1 10.2 23.3V28.8H11V23.5Z" fill="#727272"/>
<path d="M19.4 22.4L19.9 22.3V28.9H20.6V21.8C20.6 21.6 20.5 21.5 20.2 21.6L18.7 22V28.9H19.4V22.4Z" fill="#727272"/>
<path d="M19.7 19.9C20.2 19.9 20.7 19.5 20.7 18.9C20.7 18.4 20.3 17.9 19.7 17.9C19.2 17.9 18.7 18.3 18.7 18.9C18.7 19.4 19.1 19.9 19.7 19.9Z" fill="#727272"/>
<path d="M7.3 24C7.3 24.2 7.2 24.4 6.8 24.4L4.5 24.5C4.6 23.7 5.1 23 6 23C7 23.1 7.3 23.6 7.3 24ZM7.9 24C7.8 23 7.2 22.5 6.1 22.5C4.8 22.5 3.9 23.5 3.7 25.2L7.2 25C7.9 24.9 8 24.7 7.9 24Z" fill="#727272"/>
</g>
<defs>
<clipPath id="clip0">
</clipPath>
</defs>
</svg>
