<svg width="62" height="77" viewBox="0 0 62 77" fill="none" xmlns="http://www.w3.org/2000/svg">
<path d="M36.1059 28.4827H19.3294C19.451 31.862 19.8157 35.1206 20.5451 37.8965H35.0118C35.6196 35.1206 36.1059 31.9827 36.1059 28.4827Z" fill="#5B7C91"/>
<path d="M34.4039 39.8274H21.0314C22.0039 42.7239 23.3412 45.017 24.6784 46.3446C25.651 47.3102 26.6235 47.7929 27.7176 47.7929C28.6902 47.7929 29.6627 47.3102 30.7569 46.3446C31.7294 45.3791 32.702 43.9308 33.5529 42.1205C33.7961 41.3964 34.0392 40.6722 34.4039 39.8274Z" fill="#5B7C91"/>
<path d="M36.9569 17.0171C37.6863 19.9136 38.051 23.0516 38.1726 26.4309H48.5059C48.3843 23.0516 47.2902 19.793 45.7098 17.0171H36.9569Z" fill="#5B7C91"/>
<path d="M36.9569 37.8965H45.5883C47.2902 35.1206 48.2628 31.862 48.3843 28.4827H38.051C38.051 31.862 37.5647 35.1206 36.9569 37.8965Z" fill="#5B7C91"/>
<path d="M35.2549 12.069C35.6196 13.0345 35.9843 14 36.349 15.0862H44.251C41.3333 11.2241 37.0784 8.44827 32.2157 7.36206C33.4314 8.56896 34.4039 10.1379 35.2549 12.069Z" fill="#5B7C91"/>
<path d="M21.0314 15.0861H34.2824C33.3098 12.1896 31.9726 9.89647 30.6353 8.56888C29.6627 7.60336 28.6902 7.12061 27.5961 7.12061C26.6235 7.12061 25.651 7.60336 24.5569 8.56888C23.5843 9.5344 22.6118 10.9827 21.7608 12.793C21.6392 13.5172 21.3961 14.2413 21.0314 15.0861Z" fill="#5B7C91"/>
<path d="M19.3294 26.4309H36.2275C36.1059 23.0516 35.7412 19.793 35.0118 17.0171H20.5451C19.8157 19.793 19.3294 23.0516 19.3294 26.4309Z" fill="#5B7C91"/>
<path d="M20.1804 42.8446C19.8157 41.8791 19.451 40.9136 19.0863 39.8274H11.1843C14.102 43.6895 18.3569 46.4653 23.2196 47.5515C22.0039 46.3446 21.0314 44.7757 20.1804 42.8446Z" fill="#5B7C91"/>
<path d="M36.349 39.8274C35.3765 43.086 33.9177 45.7412 32.2157 47.5515C37.0784 46.4653 41.3333 43.6895 44.251 39.8274H36.349Z" fill="#5B7C91"/>
<path d="M9.84707 17.0171C8.14511 19.793 7.17256 23.0516 7.05099 26.4309H17.3843C17.5059 23.0516 17.8706 19.793 18.6 17.0171H9.84707Z" fill="#5B7C91"/>
<path d="M17.3843 28.4827H7.05099C7.17256 31.862 8.26668 35.1206 9.84707 37.8965H18.4784C17.8706 35.1206 17.3843 31.862 17.3843 28.4827Z" fill="#5B7C91"/>
<path d="M19.0863 15.0862C20.0588 11.8276 21.5177 9.17241 23.2196 7.36206C18.3569 8.44827 14.102 11.2241 11.1843 15.0862H19.0863Z" fill="#5B7C91"/>
<path d="M11.549 48.0345L11.9137 48.6379C11.549 48.8793 11.3059 49 10.9412 49C10.5765 49 10.3333 48.8793 10.0902 48.6379C9.7255 48.2759 9.60393 47.9138 9.48236 47.431C9.48236 46.9483 9.60393 46.5862 9.96864 46.2241C10.3333 45.7414 10.698 45.5 11.1843 45.5C11.6706 45.5 12.0353 45.6207 12.4 45.8621C12.7647 46.1034 12.8863 46.4655 13.0079 46.8276C13.0079 47.069 13.0079 47.3103 12.8863 47.5517L12.2784 47.1897C12.4 47.069 12.4 46.8276 12.4 46.7069C12.4 46.5862 12.2784 46.3448 12.1569 46.2241C11.9137 46.1034 11.7922 45.9828 11.549 45.9828C11.3059 45.9828 11.0628 46.2241 10.8196 46.4655C10.5765 46.8276 10.4549 47.069 10.4549 47.3103C10.4549 47.5517 10.5765 47.7931 10.698 47.9138C10.698 48.1552 10.8196 48.2759 10.9412 48.2759C11.1843 48.2759 11.3059 48.1552 11.549 48.0345Z" fill="#5B7C91"/>
<path d="M12.1569 49.9654L13.9804 47.0688L16.1686 48.3964L15.8039 48.9999L14.2235 48.0344L13.8588 48.6378L15.3176 49.6033L14.9529 50.0861L13.4941 49.1206L13.0078 49.9654L14.7098 51.0516L14.3451 51.5344L12.1569 49.9654Z" fill="#5B7C91"/>
<path d="M15.1961 51.8965L16.6549 48.7585L17.9922 49.362C18.3569 49.4827 18.6 49.6034 18.7216 49.7241C18.8431 49.8448 18.9647 49.9654 18.9647 50.2068C18.9647 50.4482 18.9647 50.5689 18.8431 50.8103C18.7216 51.0516 18.6 51.1723 18.3569 51.293C18.1137 51.4137 17.8706 51.4137 17.6274 51.293C17.749 51.4137 17.749 51.5344 17.8706 51.6551C17.8706 51.7758 17.9922 52.0172 17.9922 52.3792L18.1137 53.1034L17.3843 52.7413L17.1412 51.8965C17.1412 51.5344 17.0196 51.4137 17.0196 51.293C17.0196 51.1723 16.898 51.1723 16.898 51.0516C16.898 51.0516 16.7765 50.931 16.5333 50.931H16.4118L15.8039 52.2585L15.1961 51.8965ZM16.6549 50.3275L17.1412 50.5689C17.5059 50.6896 17.6274 50.8103 17.749 50.8103C17.8706 50.8103 17.8706 50.8103 17.9922 50.8103C18.1137 50.8103 18.1137 50.6896 18.1137 50.5689C18.1137 50.4482 18.1137 50.3275 18.1137 50.3275C18.1137 50.2068 17.9922 50.2068 17.8706 50.0861C17.8706 50.0861 17.6274 49.9654 17.3843 49.8448L17.0196 49.6034L16.6549 50.3275Z" fill="#5B7C91"/>
<path d="M19.5726 53.586L20.4235 50.8102L19.451 50.5688L19.5726 49.9653L22.2471 50.6895L22.1255 51.2929L21.1529 51.0515L20.302 53.8274L19.5726 53.586Z" fill="#5B7C91"/>
<path d="M22.0039 54.1896L22.6118 50.8103L23.3412 50.931L22.7333 54.3103L22.0039 54.1896Z" fill="#5B7C91"/>
<path d="M23.7059 54.5517L24.0706 51.1724L26.502 51.4137V52.0172L24.8 51.8965L24.6784 52.7413L26.1373 52.862V53.4655L24.5569 53.1034L24.4353 54.5517H23.7059Z" fill="#5B7C91"/>
<path d="M26.9883 54.7931V51.4138H27.7177V54.7931H26.9883Z" fill="#5B7C91"/>
<path d="M30.8785 53.3448L31.6079 53.4655C31.4863 53.8275 31.3647 54.1896 31.1216 54.3103C30.8785 54.5517 30.6353 54.6724 30.2706 54.6724C29.7843 54.6724 29.4196 54.5517 29.0549 54.3103C28.6902 54.0689 28.5687 53.5862 28.4471 53.1034C28.4471 52.4999 28.5687 52.1379 28.8118 51.7758C29.0549 51.4137 29.4196 51.2931 29.9059 51.1724C30.3922 51.1724 30.6353 51.1724 31 51.4137C31.1216 51.5344 31.3647 51.7758 31.3647 52.0172L30.6353 52.2586C30.6353 52.1379 30.5137 51.8965 30.3922 51.8965C30.2706 51.7758 30.0275 51.7758 29.9059 51.7758C29.6628 51.7758 29.4196 51.8965 29.2981 52.1379C29.1765 52.3793 29.0549 52.6206 29.1765 52.9827C29.1765 53.4655 29.2981 53.7068 29.5412 53.8275C29.6628 53.9482 29.9059 54.0689 30.149 54.0689C30.3922 54.0689 30.5137 53.9482 30.6353 53.8275C30.7569 53.8275 30.7569 53.5862 30.8785 53.3448Z" fill="#5B7C91"/>
<path d="M35.7412 53.7069L35.0118 53.8276L34.5255 53.1035L33.1882 53.4656L32.9451 54.3104L32.2157 54.4311L32.8235 50.8104L33.553 50.6897L35.7412 53.7069ZM34.1608 52.6207L33.4314 51.5345L33.3098 52.8621L34.1608 52.6207Z" fill="#5B7C91"/>
<path d="M36.8353 53.2241L35.8627 50.569L34.8902 50.931L34.6471 50.3276L37.3216 49.3621L37.5647 49.9655L36.4706 50.3276L37.4431 52.9828L36.8353 53.2241Z" fill="#5B7C91"/>
<path d="M39.1451 52.3793L37.6863 49.2414L38.2941 49L39.7529 52.1379L39.1451 52.3793Z" fill="#5B7C91"/>
<path d="M39.6314 50.2069C39.3882 49.9655 39.3882 49.6035 39.2667 49.3621C39.2667 49.1207 39.2667 49 39.2667 48.7586C39.2667 48.5173 39.3882 48.3966 39.5098 48.2759C39.6314 48.0345 39.8745 47.9138 40.1176 47.7931C40.6039 47.5517 40.9686 47.4311 41.4549 47.5517C41.9412 47.6724 42.3059 47.9138 42.549 48.3966C42.7922 48.8793 42.9137 49.3621 42.7922 49.7242C42.6706 50.2069 42.4274 50.4483 41.9412 50.8104C41.4549 51.0517 41.0902 51.1724 40.6039 51.0517C40.3608 51.0517 39.9961 50.6897 39.6314 50.2069ZM40.2392 49.8448C40.4823 50.2069 40.7255 50.3276 40.9686 50.4483C41.2118 50.569 41.4549 50.4483 41.698 50.3276C41.9412 50.2069 42.0627 49.9655 42.1843 49.7242C42.1843 49.4828 42.1843 49.1207 41.9412 48.8793C41.698 48.5173 41.4549 48.3966 41.2118 48.2759C40.9686 48.1552 40.7255 48.2759 40.4823 48.3966C40.2392 48.5173 40.1176 48.7586 39.9961 49C39.9961 49.2414 40.1176 49.4828 40.2392 49.8448Z" fill="#5B7C91"/>
<path d="M44.251 49.362L42.0627 46.7068L42.549 46.2241L45.102 47.0689L43.6431 45.2586L44.1294 44.8965L46.3176 47.5517L45.7098 48.0344L43.1569 47.1896L44.6157 48.8792L44.251 49.362Z" fill="#5B7C91"/>
<path d="M16.898 6.03442L15.4392 2.89649L16.0471 2.53442L17.5059 5.67235L16.898 6.03442Z" fill="#5B7C91"/>
<path d="M17.5059 4.34487L18.1137 4.10349C18.2353 4.34487 18.3569 4.46556 18.4784 4.46556C18.6 4.46556 18.8431 4.46556 18.9647 4.46556C19.2078 4.34487 19.3294 4.22418 19.451 4.10349C19.5725 3.9828 19.5725 3.86211 19.451 3.74142C19.5725 3.74142 19.451 3.62073 19.451 3.62073C19.3294 3.62073 19.3294 3.62073 19.2078 3.62073C19.0863 3.62073 18.9647 3.62073 18.6 3.62073C18.2353 3.62073 17.8706 3.62073 17.749 3.62073C17.5059 3.50004 17.2627 3.37935 17.2627 3.13797C17.1412 3.01728 17.1412 2.7759 17.2627 2.65521C17.2627 2.53452 17.3843 2.29315 17.5059 2.17246C17.6275 2.05177 17.8706 1.93108 18.1137 1.81039C18.4784 1.6897 18.8431 1.6897 19.2078 1.6897C19.451 1.81039 19.6941 1.93108 19.8157 2.29315L18.9647 2.41384C18.8431 2.29315 18.7216 2.17246 18.6 2.17246C18.4784 2.17246 18.3569 2.17246 18.1137 2.17246C17.8706 2.29315 17.749 2.29315 17.749 2.41384C17.749 2.53452 17.6275 2.53452 17.749 2.65521C17.749 2.7759 17.8706 2.7759 17.8706 2.7759C17.9922 2.7759 18.2353 2.7759 18.6 2.7759C18.9647 2.7759 19.2078 2.7759 19.451 2.7759C19.6941 2.7759 19.8157 2.89659 19.9373 3.01728C20.0588 3.13797 20.1804 3.25866 20.302 3.50004C20.4235 3.74142 20.4235 3.86211 20.302 4.10349C20.302 4.34487 20.1804 4.46556 19.9373 4.58625C19.8157 4.70694 19.5726 4.82763 19.2078 4.94832C18.8431 5.06901 18.4784 5.06901 18.1137 5.06901C17.9922 4.94832 17.749 4.70694 17.5059 4.34487Z" fill="#5B7C91"/>
<path d="M20.5451 2.65514C20.4235 2.29307 20.4235 2.05169 20.5451 1.81031C20.5451 1.56893 20.6667 1.44824 20.7882 1.32755C20.9098 1.20686 21.0314 1.08617 21.1529 0.965484C21.3961 0.844795 21.6392 0.724105 21.8824 0.724105C22.3686 0.603415 22.8549 0.724105 23.2196 0.965484C23.5843 1.20686 23.8274 1.56893 23.949 2.17238C24.0706 2.65514 23.949 3.1379 23.8274 3.49997C23.4627 3.62066 23.098 3.86204 22.6118 3.98273C22.1255 4.10342 21.6392 3.98273 21.2745 3.74135C20.9098 3.62066 20.6667 3.25859 20.5451 2.65514ZM21.2745 2.53445C21.3961 2.89652 21.5176 3.1379 21.7608 3.37928C22.0039 3.62066 22.2471 3.62066 22.4902 3.49997C22.7333 3.49997 22.9765 3.25859 23.098 3.01721C23.2196 2.77583 23.2196 2.53445 23.2196 2.05169C23.098 1.68962 22.9765 1.44824 22.7333 1.20686C22.4902 1.08617 22.2471 0.965484 22.0039 1.08617C21.7608 1.20686 21.5176 1.32755 21.3961 1.56893C21.2745 1.81031 21.1529 2.05169 21.2745 2.53445Z" fill="#5B7C91"/>
<path d="M28.3255 2.77586V3.37931H26.0157C26.0157 3.13793 26.1373 2.89655 26.2588 2.77586C26.3804 2.53448 26.6235 2.2931 26.9882 1.93103C27.2314 1.68966 27.4745 1.44828 27.5961 1.32759C27.7176 1.2069 27.7176 1.08621 27.7176 0.965517C27.7176 0.844828 27.7176 0.724138 27.5961 0.603448C27.4745 0.482759 27.3529 0.482759 27.2314 0.482759C27.1098 0.482759 26.9882 0.482759 26.8667 0.603448C26.7451 0.724138 26.7451 0.844828 26.7451 0.965517H26.0157C26.0157 0.603448 26.1373 0.362069 26.3804 0.12069C26.502 0.12069 26.8667 0 27.1098 0C27.4745 0 27.7176 0.12069 27.9608 0.241379C28.2039 0.362069 28.3255 0.603448 28.3255 0.965517C28.3255 1.08621 28.3255 1.32759 28.2039 1.44828C28.2039 1.56897 28.0824 1.68966 27.9608 1.93103C27.8392 2.05172 27.7176 2.17241 27.4745 2.41379C27.2314 2.65517 27.1098 2.77586 27.1098 2.77586C27.1098 2.89655 26.9882 2.89655 26.9882 3.01724L28.3255 2.77586Z" fill="#5B7C91"/>
<path d="M31.1216 3.01726V3.62071L28.8118 3.37933C28.8118 3.13795 28.9333 2.89657 29.0549 2.77588C29.1765 2.5345 29.4196 2.29312 29.9059 2.05174C30.2706 1.81036 30.3922 1.68967 30.5137 1.56898C30.6353 1.44829 30.6353 1.3276 30.6353 1.20691C30.6353 1.08623 30.6353 0.965535 30.5137 0.844846C30.3922 0.724156 30.3922 0.724156 30.149 0.724156C30.0275 0.724156 29.9059 0.724156 29.7843 0.844846C29.6627 0.965535 29.6627 1.08623 29.6627 1.20691L29.0549 1.08623C29.1765 0.724156 29.298 0.482777 29.5412 0.362087C29.7843 0.241398 30.0275 0.120708 30.3922 0.241398C30.7569 0.241398 31 0.362087 31.2431 0.603467C31.3647 0.844846 31.4863 1.08623 31.4863 1.3276C31.4863 1.44829 31.4863 1.56898 31.3647 1.81036C31.2431 1.93105 31.2431 2.05174 31 2.17243C30.8784 2.29312 30.7569 2.41381 30.5137 2.5345C30.2706 2.65519 30.149 2.77588 30.0275 2.89657C29.9059 2.89657 29.9059 3.01726 29.9059 3.01726H31.1216Z" fill="#5B7C91"/>
<path d="M33.3098 0.603432C33.6745 0.724121 33.9176 0.844811 34.0392 1.08619C34.1608 1.44826 34.2823 1.93102 34.0392 2.53447C33.9176 3.13791 33.6745 3.62067 33.4314 3.86205C33.1882 4.10343 32.9451 4.10343 32.5804 4.10343C32.2157 3.98274 31.9725 3.86205 31.851 3.62067C31.7294 3.37929 31.7294 2.89654 31.851 2.1724C31.9725 1.56895 32.2157 1.08619 32.4588 0.844811C32.5804 0.482742 32.9451 0.482742 33.3098 0.603432ZM33.1882 1.08619C33.0667 1.08619 33.0667 1.08619 32.9451 1.08619C32.8235 1.08619 32.8235 1.20688 32.702 1.32757C32.5804 1.44826 32.5804 1.81033 32.4588 2.1724C32.3372 2.53447 32.3372 2.89654 32.3372 3.01722C32.3372 3.13791 32.3372 3.2586 32.4588 3.37929C32.4588 3.49998 32.5804 3.49998 32.702 3.49998C32.8235 3.49998 32.8235 3.49998 32.9451 3.49998C33.0667 3.49998 33.0667 3.37929 33.1882 3.2586C33.3098 3.13791 33.3098 2.77585 33.4314 2.41378C33.5529 2.05171 33.5529 1.68964 33.5529 1.56895C33.5529 1.44826 33.5529 1.32757 33.4314 1.20688C33.3098 1.08619 33.1882 1.08619 33.1882 1.08619Z" fill="#5B7C91"/>
<path d="M36.2274 1.32757C36.5922 1.44826 36.7137 1.56895 36.8353 1.93101C36.9569 2.29308 36.9569 2.77584 36.7137 3.37929C36.4706 3.98274 36.2275 4.34481 35.9843 4.58619C35.7412 4.70688 35.498 4.82757 35.1333 4.70688C34.7686 4.58619 34.5255 4.34481 34.4039 4.10343C34.2824 3.74136 34.2824 3.37929 34.5255 2.65515C34.7686 2.0517 35.0118 1.68964 35.2549 1.44826C35.6196 1.20688 35.8627 1.20688 36.2274 1.32757ZM36.1059 1.81033C35.9843 1.81033 35.9843 1.81033 35.8627 1.81033C35.7412 1.81033 35.7412 1.93101 35.6196 2.0517C35.498 2.17239 35.3765 2.41377 35.2549 2.89653C35.1333 3.2586 35.0118 3.49998 35.0118 3.74136C35.0118 3.86205 35.0118 3.98274 35.0118 4.10343C35.0118 4.22412 35.1333 4.22412 35.2549 4.22412C35.3765 4.22412 35.3765 4.22412 35.498 4.22412C35.6196 4.22412 35.6196 4.10343 35.7412 3.98274C35.8627 3.86205 35.9843 3.62067 36.1059 3.13791C36.2275 2.77584 36.349 2.53446 36.349 2.29308C36.349 2.17239 36.349 2.0517 36.349 1.93101C36.2274 1.93101 36.1059 1.81033 36.1059 1.81033Z" fill="#5B7C91"/>
<path d="M39.1451 2.41376C39.5098 2.53445 39.6314 2.77583 39.753 3.01721C39.8745 3.37928 39.753 3.86204 39.5098 4.46548C39.2667 5.06893 38.902 5.431 38.6588 5.55169C38.4157 5.67238 38.051 5.67238 37.8078 5.55169C37.4431 5.431 37.3216 5.18962 37.2 4.82755C37.0784 4.46548 37.2 4.10341 37.4431 3.49997C37.6863 2.89652 38.051 2.53445 38.2941 2.41376C38.5373 2.29307 38.7804 2.29307 39.1451 2.41376ZM38.902 2.89652C38.7804 2.89652 38.7804 2.89652 38.6588 2.89652C38.5373 2.89652 38.5373 3.01721 38.4157 3.1379C38.2941 3.25859 38.1726 3.49997 38.051 3.86204C37.8078 4.2241 37.6863 4.46548 37.6863 4.58617C37.6863 4.70686 37.6863 4.82755 37.6863 4.94824C37.6863 5.06893 37.8078 5.06893 37.8078 5.06893C37.9294 5.06893 37.9294 5.06893 38.051 5.06893C38.1726 5.06893 38.1726 4.94824 38.2941 4.82755C38.4157 4.70686 38.5373 4.46548 38.6588 4.10341C38.902 3.86204 39.0235 3.62066 39.0235 3.37928C39.0235 3.25859 39.0235 3.1379 39.0235 3.01721C39.0235 3.01721 39.0235 3.01721 38.902 2.89652Z" fill="#5B7C91"/>
<path d="M2.18824 65.0518H0V76.7587H2.18824V65.0518Z" fill="#5B7C91"/>
<path d="M4.13333 68.5518H6.07843V70.1208L7.17255 68.6725C7.78039 68.4312 8.5098 68.4312 8.87451 68.4312C11.3059 68.4312 11.6706 69.8794 11.6706 71.6898V76.8794H9.72549V72.1725C9.72549 70.9656 9.48235 70.0001 8.02353 70.0001C7.41568 70.0001 6.68627 70.2415 6.2 70.6036V76.8794H4.13333V68.5518Z" fill="#5B7C91"/>
<path d="M16.898 76.8794C16.6549 76.8794 16.4118 77.0001 15.9255 77.0001C15.4392 77.0001 14.8314 76.8794 14.2235 76.3966C13.7372 75.7932 13.7372 75.1897 13.7372 74.4656V70.0001H12.6431L13.4941 68.5518H13.7372V66.9828L15.8039 66.3794V68.5518H17.6274V70.0001H15.8039V73.6208C15.8039 74.4656 15.8039 74.8277 16.047 75.1897C16.1686 75.4311 16.5333 75.6725 17.0196 75.6725C17.3843 75.6725 17.749 75.5518 18.1137 75.4311L16.898 76.8794Z" fill="#5B7C91"/>
<path d="M24.6784 76.7587C24.0706 77.0001 23.3412 77.0001 22.7333 77.0001C19.8157 77.0001 18.2353 75.1898 18.2353 72.776C18.2353 70.2415 19.8157 68.4312 22.2471 68.4312C22.8549 68.4312 23.4627 68.5518 23.949 68.7932C25.8941 69.7587 26.0157 71.9312 26.0157 72.8967H20.4235C20.4235 73.3794 20.5451 74.345 21.2745 74.9484C21.8824 75.4312 22.6118 75.6725 23.4627 75.6725C24.5569 75.6725 25.5294 75.3105 25.7725 75.1898L24.6784 76.7587ZM23.949 71.5691C23.949 71.3277 23.949 70.6036 23.4627 70.2415C23.2196 69.8794 22.7333 69.7587 22.2471 69.7587C21.2745 69.7587 20.5451 70.6036 20.4235 71.6898H23.949V71.5691Z" fill="#5B7C91"/>
<path d="M29.1765 76.7588H27.1098V68.5518H29.1765V70.0001L30.149 68.6725C30.5137 68.5518 31 68.4312 31.7294 68.4312C32.0941 68.4312 32.3373 68.4312 32.4588 68.5518V70.4829C31.9725 70.2415 31.4863 70.0001 30.8784 70.0001C30.3922 70.0001 29.7843 70.0001 29.1765 70.4829V76.7588Z" fill="#5B7C91"/>
<path d="M37.2 76.8794C36.9569 76.8794 36.7137 77.0001 36.2275 77.0001C35.7412 77.0001 35.1333 76.8794 34.5255 76.3966C34.0392 75.7932 34.0392 75.1897 34.0392 74.4656V70.0001H32.9451L33.7961 68.5518H34.0392V66.9828L35.9843 66.3794V68.5518H37.8078V70.0001H35.8627V73.6208C35.8627 74.4656 35.8627 74.8277 36.1059 75.1897C36.2275 75.4311 36.5922 75.6725 37.0784 75.6725C37.4431 75.6725 37.8078 75.5518 38.1726 75.4311L37.2 76.8794Z" fill="#5B7C91"/>
<path d="M44.9804 76.7587C44.3726 77.0001 43.6431 77.0001 43.0353 77.0001C39.9961 77.0001 38.5373 75.1898 38.5373 72.776C38.5373 70.2415 40.1177 68.4312 42.549 68.4312C43.1569 68.4312 43.7647 68.5518 44.251 68.7932C46.1961 69.7587 46.3177 71.9312 46.3177 72.8967H40.7255C40.7255 73.3794 40.8471 74.345 41.5765 74.9484C42.1843 75.4312 42.9137 75.6725 43.7647 75.6725C44.8588 75.6725 45.8314 75.3105 46.0745 75.1898L44.9804 76.7587ZM44.1294 71.5691C44.1294 71.3277 44.1294 70.6036 43.6431 70.2415C43.4 69.8794 42.9137 69.7587 42.4275 69.7587C41.4549 69.7587 40.7255 70.6036 40.6039 71.6898H44.1294V71.5691Z" fill="#5B7C91"/>
<path d="M55.4353 76.7587H53.0039L49.3569 72.4138V76.7587H47.4118V65.0518H49.3569V72.0518L52.6392 68.5518H54.949L51.5451 72.1724L55.4353 76.7587Z" fill="#5B7C91"/>
<path d="M55.4353 59.1379H0V60.4655H55.4353V59.1379Z" fill="#5B7C91"/>
<path d="M56.651 54.7931V51.7759H55.5569V51.4138H58.3529V51.7759H57.1372V54.7931H56.651Z" fill="#5B7C91"/>
<path d="M58.7177 54.7932V51.4139H59.4471L60.298 53.8277C60.4196 54.0691 60.4196 54.1898 60.4196 54.3105C60.4196 54.1898 60.5412 53.9484 60.6628 53.707L61.5137 51.2932H62V54.6725H61.5137V51.776L60.5412 54.6725H60.1765L59.2039 51.8967V54.7932H58.7177Z" fill="#5B7C91"/>
<path d="M8.1451 46.9482L10.698 44.293C6.32157 39.9482 3.64706 34.0344 3.64706 27.3965C3.64706 20.7585 6.32157 14.8447 10.698 10.4999C12.2784 8.93095 13.9804 7.60336 15.9255 6.51716L14.7098 5.06888L13.4941 3.62061C5.47059 8.56888 0 17.3792 0 27.5172C0 35.1206 3.16078 41.9999 8.1451 46.9482Z" fill="#5B7C91"/>
<path d="M51.7882 27.5172C51.7882 34.1552 49.1137 40.069 44.7372 44.4138L47.2902 47.069C52.3961 42.1207 55.4353 35.1207 55.4353 27.5172C55.4353 17.5 49.9647 8.68965 41.9412 3.86206L40.7255 5.31034L39.5098 6.75861C41.4549 7.84482 43.2784 9.17241 44.7372 10.7414C48.9921 14.9655 51.6667 20.8793 51.7882 27.5172Z" fill="#5B7C91"/>
</svg>
