<svg xmlns="http://www.w3.org/2000/svg" viewBox="0 0 51.38 63.8"><defs><style>.cls-1{fill:#fff;}</style></defs><title>ISO-22000</title><g id="Слой_2" data-name="Слой 2"><g id="Layer_1" data-name="Layer 1"><path class="cls-1" d="M3.05,22.75A19.76,19.76,0,0,1,13.38,5.39L11.34,3a22.8,22.8,0,0,0-4.6,35.89l2.15-2.17-.05,0A19.68,19.68,0,0,1,3.05,22.75Z"/><path class="cls-1" d="M34.31,3.06,32.26,5.41a20.19,20.19,0,0,1,4.51,3.37,19.77,19.77,0,0,1,0,27.94l-.05,0,2.15,2.17A22.8,22.8,0,0,0,34.31,3.06Z"/><path class="cls-1" d="M29.75,23.6H15.86a34.86,34.86,0,0,0,1,7.82H28.73A34.86,34.86,0,0,0,29.75,23.6Z"/><path class="cls-1" d="M28.26,33H17.35a13.35,13.35,0,0,0,3,5.4,3.59,3.59,0,0,0,2.46,1.16,3.6,3.6,0,0,0,2.47-1.16,11.27,11.27,0,0,0,2.28-3.53A19.23,19.23,0,0,0,28.26,33Z"/><path class="cls-1" d="M30.37,14.08a36.75,36.75,0,0,1,1,7.82h8.51a17,17,0,0,0-2.34-7.82Z"/><path class="cls-1" d="M30.37,31.42h7.14a17,17,0,0,0,2.34-7.82H31.34A36.75,36.75,0,0,1,30.37,31.42Z"/><path class="cls-1" d="M29,10a22.27,22.27,0,0,1,.92,2.51h6.5a17,17,0,0,0-9.9-6.38A12.84,12.84,0,0,1,29,10Z"/><path class="cls-1" d="M17.34,12.47H28.26a13.35,13.35,0,0,0-3-5.39A3.57,3.57,0,0,0,22.8,5.91a3.57,3.57,0,0,0-2.46,1.17,11.1,11.1,0,0,0-2.29,3.52C17.8,11.18,17.56,11.8,17.34,12.47Z"/><path class="cls-1" d="M15.86,21.9H29.74a34.89,34.89,0,0,0-1-7.82H16.88A34.86,34.86,0,0,0,15.86,21.9Z"/><path class="cls-1" d="M16.59,35.54A23.59,23.59,0,0,1,15.68,33H9.18a17,17,0,0,0,9.9,6.38A13,13,0,0,1,16.59,35.54Z"/><path class="cls-1" d="M29.93,33a15.69,15.69,0,0,1-3.4,6.38A17,17,0,0,0,36.43,33Z"/><path class="cls-1" d="M8.1,14.08A17,17,0,0,0,5.75,21.9h8.52a37.43,37.43,0,0,1,1-7.82Z"/><path class="cls-1" d="M14.27,23.6H5.75a17.1,17.1,0,0,0,2.34,7.82h7.14A37.43,37.43,0,0,1,14.27,23.6Z"/><path class="cls-1" d="M15.67,12.47a15.81,15.81,0,0,1,3.4-6.38,17.08,17.08,0,0,0-9.89,6.38Z"/><path class="cls-1" d="M9.52,39.8l.32.49a1.26,1.26,0,0,1-.78.26,1.28,1.28,0,0,1-.73-.32,1.24,1.24,0,0,1-.48-.91,1.44,1.44,0,0,1,.39-1,1.52,1.52,0,0,1,1-.6,1.28,1.28,0,0,1,1,.32,1.21,1.21,0,0,1,.47.79,1.13,1.13,0,0,1-.11.6l-.53-.27a.6.6,0,0,0,.06-.41.63.63,0,0,0-.22-.35.67.67,0,0,0-.55-.16,1.07,1.07,0,0,0-.62.44,1.12,1.12,0,0,0-.34.71.62.62,0,0,0,.25.51A.55.55,0,0,0,9,40,.89.89,0,0,0,9.52,39.8Z"/><path class="cls-1" d="M10,41.43,11.45,39l1.83,1.13-.26.41-1.32-.82-.34.53L12.6,41l-.25.4-1.24-.76-.41.65,1.38.86-.26.4Z"/><path class="cls-1" d="M12.54,43l1.16-2.6,1.12.5a2,2,0,0,1,.59.35.67.67,0,0,1,.2.38.81.81,0,0,1-.07.46.78.78,0,0,1-.39.41,1,1,0,0,1-.63,0,1.35,1.35,0,0,1,.19.35,3.36,3.36,0,0,1,.12.56l.09.65-.64-.29L14.15,43c-.05-.27-.09-.44-.11-.51a.41.41,0,0,0-.12-.18.68.68,0,0,0-.25-.15l-.11,0-.48,1.09Zm1.2-1.26.4.17a2.47,2.47,0,0,0,.49.19.33.33,0,0,0,.2,0,.3.3,0,0,0,.14-.17.35.35,0,0,0,0-.24.37.37,0,0,0-.16-.19,3.51,3.51,0,0,0-.39-.19L14,41.06Z"/><path class="cls-1" d="M16.15,44.4l.66-2.26L16,41.9l.13-.46,2.21.64-.13.47-.82-.25-.67,2.27Z"/><path class="cls-1" d="M18.14,44.92l.54-2.79.58.11L18.71,45Z"/><path class="cls-1" d="M19.51,45.18l.29-2.83,2,.21-.05.48-1.39-.15-.07.67,1.2.12,0,.48L20.22,44l-.13,1.2Z"/><path class="cls-1" d="M22.19,45.39l0-2.84h.59l0,2.84Z"/><path class="cls-1" d="M25.36,44.21l.58.13a1.19,1.19,0,0,1-.37.72,1.36,1.36,0,0,1-1.73,0,1.48,1.48,0,0,1-.46-1,1.56,1.56,0,0,1,.28-1.13,1.29,1.29,0,0,1,.95-.47,1.19,1.19,0,0,1,.88.23,1.07,1.07,0,0,1,.34.49l-.56.19A.64.64,0,0,0,25,43a.6.6,0,0,0-.4-.09.66.66,0,0,0-.5.27,1.09,1.09,0,0,0-.14.75,1.19,1.19,0,0,0,.26.74.66.66,0,0,0,.92,0A.82.82,0,0,0,25.36,44.21Z"/><path class="cls-1" d="M29.38,44.48l-.62.14-.4-.57-1.13.26-.08.69-.61.14.46-3,.6-.14Zm-1.31-.85-.63-.94-.14,1.12Z"/><path class="cls-1" d="M30.27,44.14l-.81-2.22-.81.29-.16-.45L30.65,41l.17.45-.81.29.81,2.22Z"/><path class="cls-1" d="M32.17,43.37,31,40.8l.53-.24,1.21,2.57Z"/><path class="cls-1" d="M32.63,41.64a1.69,1.69,0,0,1-.26-.69,1.47,1.47,0,0,1,0-.47,1.15,1.15,0,0,1,.19-.42,1.83,1.83,0,0,1,.48-.42,1.36,1.36,0,0,1,1.07-.2,1.45,1.45,0,0,1,.89.73,1.48,1.48,0,0,1,.24,1.12,1.41,1.41,0,0,1-.67.86,1.39,1.39,0,0,1-1.08.2A1.46,1.46,0,0,1,32.63,41.64Zm.51-.33a1,1,0,0,0,.57.51.76.76,0,0,0,.62-.09.72.72,0,0,0,.36-.51,1,1,0,0,0-.19-.75,1.06,1.06,0,0,0-.56-.51.73.73,0,0,0-.62.1.75.75,0,0,0-.38.51A1.08,1.08,0,0,0,33.14,41.31Z"/><path class="cls-1" d="M36.39,40.9l-1.81-2.18.43-.36,2.13.69L35.93,37.6l.41-.35,1.82,2.18-.45.38-2.08-.68,1.18,1.42Z"/><path class="cls-1" d="M14.86,4.49l-1.1-2.62.54-.23,1.1,2.62Z"/><path class="cls-1" d="M15.49,3.2,16,3a.61.61,0,0,0,.32.33.56.56,0,0,0,.44,0,.61.61,0,0,0,.37-.23.36.36,0,0,0,.06-.31.26.26,0,0,0-.11-.14.38.38,0,0,0-.24-.06l-.48,0a1.57,1.57,0,0,1-.71-.07.77.77,0,0,1-.43-.47.79.79,0,0,1,0-.43.79.79,0,0,1,.26-.38A1.58,1.58,0,0,1,16,1a1.24,1.24,0,0,1,.85,0,.83.83,0,0,1,.46.51l-.55.2a.49.49,0,0,0-.24-.25.59.59,0,0,0-.39,0,.7.7,0,0,0-.35.21.21.21,0,0,0,0,.2A.2.2,0,0,0,15.9,2a1.79,1.79,0,0,0,.57,0,2.73,2.73,0,0,1,.66,0,.7.7,0,0,1,.39.18.89.89,0,0,1,.25.4.75.75,0,0,1,0,.47.81.81,0,0,1-.28.42,1.69,1.69,0,0,1-.57.29,1.27,1.27,0,0,1-.88,0A1.07,1.07,0,0,1,15.49,3.2Z"/><path class="cls-1" d="M18.09,1.91a1.65,1.65,0,0,1,0-.74,1.35,1.35,0,0,1,.2-.42,1.2,1.2,0,0,1,.33-.31,1.77,1.77,0,0,1,.6-.21,1.37,1.37,0,0,1,1.08.23,1.45,1.45,0,0,1,.54,1,1.48,1.48,0,0,1-.21,1.12,1.55,1.55,0,0,1-2,.32A1.47,1.47,0,0,1,18.09,1.91Zm.59-.11a1,1,0,0,0,.34.69.78.78,0,0,0,.61.16.75.75,0,0,0,.53-.34,1,1,0,0,0,.1-.76,1.09,1.09,0,0,0-.32-.69A.82.82,0,0,0,18.79,1,1.08,1.08,0,0,0,18.68,1.8Z"/><path class="cls-1" d="M22.57,2.16l.54,0a.44.44,0,0,0,.09.25.33.33,0,0,0,.22.08.35.35,0,0,0,.3-.14,1.35,1.35,0,0,0,.17-.64.66.66,0,0,1-.53.22.8.8,0,0,1-.58-.28.92.92,0,0,1-.22-.68,1,1,0,0,1,.28-.69,1,1,0,0,1,1.39.12,1.7,1.7,0,0,1,.24,1.11,1.63,1.63,0,0,1-.33,1.11,1,1,0,0,1-.78.32.81.81,0,0,1-.54-.2A.86.86,0,0,1,22.57,2.16ZM23.87,1a.63.63,0,0,0-.11-.41.36.36,0,0,0-.28-.16.31.31,0,0,0-.26.11A.64.64,0,0,0,23.1,1a.67.67,0,0,0,.1.41.35.35,0,0,0,.27.13.34.34,0,0,0,.28-.11A.59.59,0,0,0,23.87,1Z"/><path class="cls-1" d="M26.1.23a.81.81,0,0,1,.61.38,1.88,1.88,0,0,1,.11,1.19,1.74,1.74,0,0,1-.45,1.1.79.79,0,0,1-.69.2.81.81,0,0,1-.62-.42A1.76,1.76,0,0,1,25,1.52a1.88,1.88,0,0,1,.45-1.1A.79.79,0,0,1,26.1.23ZM26,.67a.31.31,0,0,0-.19,0,.36.36,0,0,0-.15.21,2.93,2.93,0,0,0-.16.69,2.75,2.75,0,0,0-.05.69.46.46,0,0,0,.09.26.28.28,0,0,0,.17.09.26.26,0,0,0,.19,0,.42.42,0,0,0,.15-.2,3.07,3.07,0,0,0,.16-.69A3.35,3.35,0,0,0,26.3,1a.6.6,0,0,0-.09-.27A.32.32,0,0,0,26,.67Z"/><path class="cls-1" d="M28.6.73a.85.85,0,0,1,.56.46,1.92,1.92,0,0,1,0,1.19,1.83,1.83,0,0,1-.57,1,.88.88,0,0,1-1.29-.36,1.88,1.88,0,0,1,0-1.17,1.76,1.76,0,0,1,.57-1A.79.79,0,0,1,28.6.73Zm-.12.44a.25.25,0,0,0-.19,0,.38.38,0,0,0-.18.18,3,3,0,0,0-.23.68,2.84,2.84,0,0,0-.13.67.61.61,0,0,0,.06.28.34.34,0,0,0,.16.1.31.31,0,0,0,.19,0,.47.47,0,0,0,.18-.19,3.09,3.09,0,0,0,.23-.67,2.89,2.89,0,0,0,.13-.68.45.45,0,0,0-.06-.27A.26.26,0,0,0,28.48,1.17Z"/><path class="cls-1" d="M30.43,4.35l-.51-.2.74-1.91a1.88,1.88,0,0,1-.82.12L30,1.9a1.55,1.55,0,0,0,.53-.08A.9.9,0,0,0,31,1.53l.42.16Z"/><rect class="cls-1" y="53.91" width="1.82" height="9.72"/><path class="cls-1" d="M3.4,56.83H5v1.29l.88-1.24a4.44,4.44,0,0,1,1.38-.22c2,0,2.34,1.24,2.34,2.66v4.31H8V59.76c0-1-.19-1.84-1.45-1.84A2.72,2.72,0,0,0,5,58.43v5.2H3.4Z"/><path class="cls-1" d="M13.93,63.7a3.52,3.52,0,0,1-.81.1,1.75,1.75,0,0,1-1.36-.53,2,2,0,0,1-.4-1.55l0-3.73h-.88l.73-1.18h.17V55.53L13,55v1.77h1.53V58H13l0,3c0,.74,0,1,.16,1.28a1,1,0,0,0,.84.37,2.83,2.83,0,0,0,.91-.18Z"/><path class="cls-1" d="M20.35,63.58a6.11,6.11,0,0,1-1.64.22A3.34,3.34,0,0,1,15,60.26a3.29,3.29,0,0,1,3.28-3.61,3.23,3.23,0,0,1,1.4.29c1.64.76,1.66,2.56,1.67,3.39H16.76a2.46,2.46,0,0,0,.66,1.7,2.56,2.56,0,0,0,1.77.6,5.19,5.19,0,0,0,1.95-.42Zm-.63-4.27a1.81,1.81,0,0,0-.4-1.15,1.34,1.34,0,0,0-1-.41c-.84,0-1.38.66-1.55,1.56Z"/><path class="cls-1" d="M24,63.63H22.33v-6.8H24V58l.78-1.1A3.41,3.41,0,0,1,26,56.69a1.93,1.93,0,0,1,.65.1v1.57A2.79,2.79,0,0,0,25.36,58a2.58,2.58,0,0,0-1.37.41Z"/><path class="cls-1" d="M30.56,63.7a3.7,3.7,0,0,1-.82.1,1.75,1.75,0,0,1-1.36-.53,2,2,0,0,1-.4-1.55L28,58h-.88l.73-1.18H28V55.53l1.6-.49v1.77h1.53V58H29.61l0,3c0,.74,0,1,.16,1.28a1,1,0,0,0,.84.37,2.83,2.83,0,0,0,.91-.18Z"/><path class="cls-1" d="M37,63.58a6.06,6.06,0,0,1-1.64.22,3.34,3.34,0,0,1-3.69-3.54,3.29,3.29,0,0,1,3.28-3.61,3.23,3.23,0,0,1,1.4.29C38,57.7,38,59.5,38,60.33H33.38A2.46,2.46,0,0,0,34,62a2.57,2.57,0,0,0,1.78.6,5.18,5.18,0,0,0,1.94-.42Zm-.63-4.27a1.81,1.81,0,0,0-.4-1.15,1.34,1.34,0,0,0-1-.41c-.84,0-1.38.66-1.55,1.56Z"/><polygon class="cls-1" points="45.61 63.63 43.61 63.63 40.58 60.04 40.58 63.63 38.95 63.63 38.95 53.91 40.58 53.91 40.58 59.72 43.34 56.83 45.22 56.83 42.37 59.84 45.61 63.63"/><rect class="cls-1" y="48.97" width="45.61" height="1.14"/><path class="cls-1" d="M46.88,45V42.42h-1v-.34h2.3v.34h-1V45Z"/><path class="cls-1" d="M48.61,45v-2.9h.58l.69,2.06.14.43c0-.11.08-.27.15-.47l.7-2h.51V45H51V42.55L50.17,45h-.35L49,42.51V45Z"/></g></g></svg>