<svg xmlns="http://www.w3.org/2000/svg" viewBox="0 0 51.03 63.8"><defs><style>.cls-1{fill:#fff;}</style></defs><title>ISO-9001</title><g id="Слой_2" data-name="Слой 2"><g id="Layer_1" data-name="Layer 1"><path class="cls-1" d="M29.74,23.6H15.86a34.81,34.81,0,0,0,1,7.82H28.73A34.81,34.81,0,0,0,29.74,23.6Z"/><path class="cls-1" d="M28.26,33H17.34a13.37,13.37,0,0,0,3,5.39,3.59,3.59,0,0,0,2.46,1.16,3.58,3.58,0,0,0,2.46-1.16,11,11,0,0,0,2.29-3.53C27.8,34.32,28,33.7,28.26,33Z"/><path class="cls-1" d="M30.37,14.09a36.75,36.75,0,0,1,1,7.82h8.51a17,17,0,0,0-2.34-7.82Z"/><path class="cls-1" d="M30.37,31.42h7.14a17,17,0,0,0,2.34-7.82H31.34A36.75,36.75,0,0,1,30.37,31.42Z"/><path class="cls-1" d="M29,10a24.2,24.2,0,0,1,.92,2.5h6.5a17.15,17.15,0,0,0-9.9-6.38A13.09,13.09,0,0,1,29,10Z"/><path class="cls-1" d="M17.34,12.47H28.26a13.37,13.37,0,0,0-3-5.39A3.58,3.58,0,0,0,22.8,5.92a3.59,3.59,0,0,0-2.46,1.16,11,11,0,0,0-2.29,3.53C17.8,11.18,17.56,11.81,17.34,12.47Z"/><path class="cls-1" d="M15.86,21.91H29.74a34.81,34.81,0,0,0-1-7.82H16.88A34.78,34.78,0,0,0,15.86,21.91Z"/><path class="cls-1" d="M16.59,35.54a24.2,24.2,0,0,1-.92-2.5H9.18a17.06,17.06,0,0,0,9.9,6.37A12.86,12.86,0,0,1,16.59,35.54Z"/><path class="cls-1" d="M29.93,33a15.71,15.71,0,0,1-3.4,6.37A17.09,17.09,0,0,0,36.43,33Z"/><path class="cls-1" d="M8.09,14.09a17,17,0,0,0-2.34,7.82h8.52a36.77,36.77,0,0,1,1-7.82Z"/><path class="cls-1" d="M14.27,23.6H5.75a17,17,0,0,0,2.34,7.82h7.14A36.14,36.14,0,0,1,14.27,23.6Z"/><path class="cls-1" d="M15.67,12.47a15.65,15.65,0,0,1,3.4-6.37,17.06,17.06,0,0,0-9.89,6.37Z"/><path class="cls-1" d="M9.51,39.8l.33.5a1.31,1.31,0,0,1-.78.25,1.22,1.22,0,0,1-.73-.32,1.28,1.28,0,0,1-.49-.9,1.47,1.47,0,0,1,.4-1,1.49,1.49,0,0,1,1-.61,1.28,1.28,0,0,1,1,.33,1.18,1.18,0,0,1,.47.79,1.12,1.12,0,0,1-.11.59l-.53-.27a.57.57,0,0,0,.06-.4.63.63,0,0,0-.22-.36.71.71,0,0,0-.55-.16,1.07,1.07,0,0,0-.62.44,1.14,1.14,0,0,0-.34.72.6.6,0,0,0,.25.5A.59.59,0,0,0,9,40,.89.89,0,0,0,9.51,39.8Z"/><path class="cls-1" d="M10,41.43,11.45,39l1.83,1.14-.26.4-1.32-.82-.34.53L12.6,41l-.26.41-1.23-.77-.41.65,1.38.86-.26.41Z"/><path class="cls-1" d="M12.54,43l1.16-2.6,1.12.5a2.51,2.51,0,0,1,.59.35.66.66,0,0,1,.19.38.77.77,0,0,1-.06.47.8.8,0,0,1-.39.4,1,1,0,0,1-.63,0,1.45,1.45,0,0,1,.19.34,2.71,2.71,0,0,1,.11.56l.1.65-.64-.29L14.15,43c-.05-.27-.09-.43-.11-.51a.57.57,0,0,0-.12-.18,1.14,1.14,0,0,0-.25-.15l-.11,0-.48,1.09Zm1.2-1.26.4.18a2.91,2.91,0,0,0,.49.18.33.33,0,0,0,.2,0,.3.3,0,0,0,.14-.17.34.34,0,0,0,0-.24.41.41,0,0,0-.16-.19,2.62,2.62,0,0,0-.39-.18L14,41.06Z"/><path class="cls-1" d="M16.15,44.41l.66-2.27L16,41.9l.13-.46,2.21.65-.13.46-.83-.24-.66,2.26Z"/><path class="cls-1" d="M18.14,44.92l.54-2.79.58.11L18.71,45Z"/><path class="cls-1" d="M19.51,45.18l.29-2.83,2,.21-.05.48-1.39-.15-.07.67,1.2.13,0,.47L20.22,44l-.13,1.2Z"/><path class="cls-1" d="M22.19,45.39l0-2.84h.58l0,2.84Z"/><path class="cls-1" d="M25.36,44.21l.58.13a1.24,1.24,0,0,1-.37.73,1.34,1.34,0,0,1-.75.29,1.27,1.27,0,0,1-1-.31,1.44,1.44,0,0,1-.46-1,1.53,1.53,0,0,1,.28-1.13,1.27,1.27,0,0,1,.94-.47,1.25,1.25,0,0,1,.89.23,1.11,1.11,0,0,1,.34.5l-.56.18A.64.64,0,0,0,25,43a.7.7,0,0,0-.9.18,1.09,1.09,0,0,0-.14.75,1.2,1.2,0,0,0,.26.75.64.64,0,0,0,.53.18.55.55,0,0,0,.39-.18A.85.85,0,0,0,25.36,44.21Z"/><path class="cls-1" d="M29.37,44.48l-.62.14-.39-.57-1.13.26-.08.69-.61.14.46-3,.6-.14Zm-1.3-.85-.63-.94-.14,1.12Z"/><path class="cls-1" d="M30.27,44.14l-.81-2.22-.81.3-.16-.46L30.65,41l.17.45-.81.29.81,2.22Z"/><path class="cls-1" d="M32.17,43.38,31,40.81l.53-.25,1.21,2.57Z"/><path class="cls-1" d="M32.63,41.64a1.82,1.82,0,0,1-.27-.69,1.25,1.25,0,0,1,0-.47,1,1,0,0,1,.19-.41,1.64,1.64,0,0,1,.47-.43,1.38,1.38,0,0,1,1.08-.19,1.46,1.46,0,0,1,.89.72,1.44,1.44,0,0,1,.23,1.12,1.35,1.35,0,0,1-.66.86,1.33,1.33,0,0,1-2-.51Zm.5-.33a1,1,0,0,0,.58.51.76.76,0,0,0,.62-.09.72.72,0,0,0,.36-.51,1.08,1.08,0,0,0-.19-.75,1.13,1.13,0,0,0-.57-.51.82.82,0,0,0-1,.61A1.06,1.06,0,0,0,33.13,41.31Z"/><path class="cls-1" d="M36.39,40.9l-1.82-2.18.44-.36,2.13.7L35.92,37.6l.42-.35,1.82,2.18-.45.38-2.09-.68,1.19,1.43Z"/><path class="cls-1" d="M13.85,5,12.61,2.41l.53-.26,1.24,2.56Z"/><path class="cls-1" d="M14.41,3.64l.51-.25a.69.69,0,0,0,.34.32.81.81,0,0,0,.8-.28.32.32,0,0,0,0-.31A.26.26,0,0,0,16,3a.55.55,0,0,0-.24,0l-.49,0a1.56,1.56,0,0,1-.71,0,.73.73,0,0,1-.45-.44.7.7,0,0,1,0-.43.79.79,0,0,1,.23-.39,1.61,1.61,0,0,1,.5-.29,1.24,1.24,0,0,1,.85-.07.82.82,0,0,1,.49.49L15.61,2a.47.47,0,0,0-.26-.23.58.58,0,0,0-.38,0,.62.62,0,0,0-.33.24.18.18,0,0,0,0,.2.23.23,0,0,0,.14.13,1.53,1.53,0,0,0,.57,0,2.65,2.65,0,0,1,.66,0,.76.76,0,0,1,.4.16.78.78,0,0,1,.27.38.79.79,0,0,1,0,.48.78.78,0,0,1-.26.43,1.51,1.51,0,0,1-.55.32A1.25,1.25,0,0,1,15,4.2,1.08,1.08,0,0,1,14.41,3.64Z"/><path class="cls-1" d="M16.93,2.21a1.7,1.7,0,0,1,0-.74A1.16,1.16,0,0,1,17.09,1,1.1,1.1,0,0,1,17.4.71,1.66,1.66,0,0,1,18,.47a1.36,1.36,0,0,1,1.08.16,1.48,1.48,0,0,1,.61,1,1.51,1.51,0,0,1-.15,1.13,1.35,1.35,0,0,1-.91.6,1.42,1.42,0,0,1-1.09-.16A1.49,1.49,0,0,1,16.93,2.21Zm.59-.14a1.09,1.09,0,0,0,.37.67.76.76,0,0,0,.62.12A.74.74,0,0,0,19,2.5a1.1,1.1,0,0,0,.06-.78,1.07,1.07,0,0,0-.36-.66A.71.71,0,0,0,18.1,1a.74.74,0,0,0-.52.36A1,1,0,0,0,17.52,2.07Z"/><path class="cls-1" d="M23.29,2.33v.5l-1.95,0a1.33,1.33,0,0,1,.18-.54,3.25,3.25,0,0,1,.61-.7,5,5,0,0,0,.45-.47A.68.68,0,0,0,22.7.82a.42.42,0,0,0-.11-.28.41.41,0,0,0-.28-.09A.37.37,0,0,0,22,.56a.46.46,0,0,0-.11.34l-.56,0a.89.89,0,0,1,.3-.65A1.12,1.12,0,0,1,22.32,0,1,1,0,0,1,23,.21a.75.75,0,0,1,.25.56.93.93,0,0,1-.06.37,1.79,1.79,0,0,1-.21.37l-.36.37c-.17.16-.28.26-.33.32l-.11.15Z"/><path class="cls-1" d="M25.56,2.51l0,.5-1.94-.17a1.34,1.34,0,0,1,.24-.53,3.36,3.36,0,0,1,.68-.62,6.12,6.12,0,0,0,.5-.42A.68.68,0,0,0,25.14,1a.37.37,0,0,0-.07-.29A.38.38,0,0,0,24.8.54a.37.37,0,0,0-.28.07.49.49,0,0,0-.15.33l-.55-.1a.88.88,0,0,1,.37-.62,1,1,0,0,1,.67-.13,1,1,0,0,1,.65.28A.74.74,0,0,1,25.7,1a1.08,1.08,0,0,1-.1.35,1.5,1.5,0,0,1-.26.35A3.7,3.7,0,0,1,25,2l-.36.29a.86.86,0,0,0-.13.14Z"/><path class="cls-1" d="M27.35.45a.82.82,0,0,1,.59.42,1.89,1.89,0,0,1,0,1.19,1.88,1.88,0,0,1-.51,1.08.79.79,0,0,1-.7.15.81.81,0,0,1-.61-.45,1.87,1.87,0,0,1,0-1.16A1.87,1.87,0,0,1,26.65.61.82.82,0,0,1,27.35.45Zm-.09.44a.29.29,0,0,0-.18,0,.44.44,0,0,0-.17.2,2.86,2.86,0,0,0-.2.68,3.29,3.29,0,0,0-.08.68.44.44,0,0,0,.07.27.3.3,0,0,0,.17.1.23.23,0,0,0,.18,0,.4.4,0,0,0,.17-.19,3.59,3.59,0,0,0,.2-.69,3.16,3.16,0,0,0,.08-.68A.44.44,0,0,0,27.43,1,.37.37,0,0,0,27.26.89Z"/><path class="cls-1" d="M29.81,1.1a.77.77,0,0,1,.54.48,1.89,1.89,0,0,1-.09,1.19,1.87,1.87,0,0,1-.63,1,.8.8,0,0,1-.71.08.84.84,0,0,1-.55-.52,1.82,1.82,0,0,1,.1-1.16,1.91,1.91,0,0,1,.63-1A.77.77,0,0,1,29.81,1.1Zm-.14.43a.31.31,0,0,0-.19,0,.38.38,0,0,0-.18.18,3.26,3.26,0,0,0-.28.66,3.42,3.42,0,0,0-.16.66.42.42,0,0,0,.05.28.26.26,0,0,0,.15.12.31.31,0,0,0,.19,0,.38.38,0,0,0,.18-.18,3.38,3.38,0,0,0,.28-.65,3.47,3.47,0,0,0,.16-.67.44.44,0,0,0-.05-.28A.22.22,0,0,0,29.67,1.53Z"/><path class="cls-1" d="M32.18,2a.8.8,0,0,1,.48.54,1.91,1.91,0,0,1-.22,1.17,1.87,1.87,0,0,1-.74.94.79.79,0,0,1-.72,0,.83.83,0,0,1-.49-.57,1.83,1.83,0,0,1,.24-1.14A1.79,1.79,0,0,1,31.46,2,.79.79,0,0,1,32.18,2ZM32,2.42a.31.31,0,0,0-.19,0,.4.4,0,0,0-.21.15,3.11,3.11,0,0,0-.35.63,3.2,3.2,0,0,0-.23.64.49.49,0,0,0,0,.28.29.29,0,0,0,.14.13.25.25,0,0,0,.19,0,.4.4,0,0,0,.2-.16,2.56,2.56,0,0,0,.35-.62,3,3,0,0,0,.24-.64.46.46,0,0,0,0-.28A.29.29,0,0,0,32,2.42Z"/><rect class="cls-1" y="53.91" width="1.82" height="9.72"/><path class="cls-1" d="M3.4,56.83H5v1.29l.88-1.24a4.44,4.44,0,0,1,1.38-.22c2,0,2.34,1.24,2.34,2.66v4.31H8V59.76c0-1-.19-1.84-1.45-1.84A2.8,2.8,0,0,0,5,58.43v5.2H3.4Z"/><path class="cls-1" d="M13.93,63.7a3.52,3.52,0,0,1-.81.1,1.74,1.74,0,0,1-1.36-.53,1.94,1.94,0,0,1-.4-1.55l0-3.73H10.5l.73-1.18h.18V55.53L13,55v1.77h1.53V58H13l0,3c0,.74,0,1,.16,1.28a1,1,0,0,0,.84.37,2.89,2.89,0,0,0,.91-.18Z"/><path class="cls-1" d="M20.35,63.58a6.11,6.11,0,0,1-1.64.22A3.34,3.34,0,0,1,15,60.26c0-2.11,1.29-3.61,3.28-3.61a3.23,3.23,0,0,1,1.4.29c1.64.76,1.66,2.56,1.67,3.39H16.76a2.46,2.46,0,0,0,.66,1.7,2.54,2.54,0,0,0,1.77.6,5.07,5.07,0,0,0,1.94-.42Zm-.63-4.27a1.81,1.81,0,0,0-.4-1.15,1.34,1.34,0,0,0-1-.41c-.84,0-1.38.66-1.55,1.56Z"/><path class="cls-1" d="M24,63.63H22.33v-6.8H24V58l.79-1.1A3.41,3.41,0,0,1,26,56.69a1.82,1.82,0,0,1,.64.1v1.57A2.75,2.75,0,0,0,25.36,58a2.63,2.63,0,0,0-1.38.41Z"/><path class="cls-1" d="M30.55,63.7a3.52,3.52,0,0,1-.81.1,1.74,1.74,0,0,1-1.36-.53,1.94,1.94,0,0,1-.4-1.55L28,58h-.88l.73-1.18H28V55.53l1.6-.49v1.77h1.53V58H29.6l0,3c0,.74,0,1,.17,1.28a1,1,0,0,0,.84.37,2.89,2.89,0,0,0,.91-.18Z"/><path class="cls-1" d="M37,63.58a6.11,6.11,0,0,1-1.64.22,3.34,3.34,0,0,1-3.69-3.54c0-2.11,1.29-3.61,3.28-3.61a3.23,3.23,0,0,1,1.4.29C38,57.7,38,59.5,38,60.33H33.37a2.2,2.2,0,0,0,2.44,2.3,5.12,5.12,0,0,0,1.94-.42Zm-.63-4.27a1.87,1.87,0,0,0-.4-1.15,1.36,1.36,0,0,0-1-.41c-.83,0-1.37.66-1.54,1.56Z"/><polygon class="cls-1" points="45.6 63.63 43.6 63.63 40.58 60.04 40.58 63.63 38.95 63.63 38.95 53.91 40.58 53.91 40.58 59.72 43.33 56.83 45.22 56.83 42.37 59.84 45.6 63.63"/><rect class="cls-1" y="48.98" width="45.6" height="1.14"/><path class="cls-1" d="M46.63,45.44v-2.5h-.94V42.6H48v.34H47v2.5Z"/><path class="cls-1" d="M48.32,45.44V42.6h.57l.67,2c.06.18.1.32.13.42,0-.11.09-.26.15-.46l.68-2H51v2.84h-.36V43.07l-.83,2.37H49.5L48.68,43v2.41Z"/><path class="cls-1" d="M6.74,38.93l2.14-2.16,0-.05A19.78,19.78,0,0,1,13.18,5.5l-1-1.18-1-1.16a22.79,22.79,0,0,0-4.4,35.77Z"/><path class="cls-1" d="M42.55,22.75a19.71,19.71,0,0,1-5.78,14l-.05.05,2.15,2.16A22.8,22.8,0,0,0,34.46,3.16l-1,1.16-1,1.18a20,20,0,0,1,4.35,3.29A19.71,19.71,0,0,1,42.55,22.75Z"/></g></g></svg>