<svg width="62" height="77" viewBox="0 0 62 77" fill="none" xmlns="http://www.w3.org/2000/svg">
<path d="M3.7393 27.5173C3.7393 20.8794 6.393 14.9656 10.7354 10.6208C12.3035 9.0518 14.2335 7.60352 16.1634 6.51732L13.751 3.74146C5.54864 8.44835 0 17.2587 0 27.5173C0 35.1208 3.13619 42.0001 8.08171 47.069L10.6148 44.4139C6.393 39.9484 3.7393 34.0346 3.7393 27.5173Z" fill="#5B7C91"/>
<path d="M41.3735 3.74146L38.9611 6.51732C41.0117 7.60352 42.821 8.93111 44.3891 10.6208C48.7315 14.9656 51.3852 20.8794 51.3852 27.5173C51.3852 34.1552 48.7315 40.069 44.3891 44.4139L46.9222 47.069C51.9883 42.1208 55.0039 35.1208 55.0039 27.5173C55.0039 17.3794 49.5759 8.44835 41.3735 3.74146Z" fill="#5B7C91"/>
<path d="M35.8249 28.4827H19.179C19.2996 31.862 19.6615 35.1206 20.3852 37.8965H34.7393C35.3424 35.1206 35.8249 31.862 35.8249 28.4827Z" fill="#5B7C91"/>
<path d="M34.1362 39.8274H20.8677C21.8327 42.7239 23.1595 45.017 24.4864 46.3446C25.4514 47.3102 26.4163 47.7929 27.5019 47.7929C28.4669 47.7929 29.4319 47.3102 30.5175 46.3446C31.4825 45.3791 32.4475 43.9308 33.2918 42.1205C33.5331 41.3964 33.7743 40.6722 34.1362 39.8274Z" fill="#5B7C91"/>
<path d="M36.6693 17.0171C37.393 19.9136 37.7549 23.0516 37.8755 26.4309H48.1284C48.0078 23.0516 46.9222 19.793 45.3541 17.0171H36.6693Z" fill="#5B7C91"/>
<path d="M36.6693 37.8965H45.2335C46.9222 35.1206 47.8871 31.862 48.0078 28.4827H37.7549C37.7549 31.862 37.2724 35.1206 36.6693 37.8965Z" fill="#5B7C91"/>
<path d="M34.9806 12.069C35.3424 13.0345 35.7043 14 36.0662 15.0862H43.9066C41.0117 11.2241 36.7899 8.44827 31.965 7.36206C33.1712 8.56896 34.1362 10.1379 34.9806 12.069Z" fill="#5B7C91"/>
<path d="M20.8677 15.0861H34.0156C33.0506 12.1896 31.7237 9.89647 30.3969 8.56888C29.4319 7.60336 28.4669 7.12061 27.3813 7.12061C26.4163 7.12061 25.4514 7.60336 24.3658 8.56888C23.4008 9.5344 22.4358 10.9827 21.5914 12.793C21.4708 13.5172 21.2296 14.2413 20.8677 15.0861Z" fill="#5B7C91"/>
<path d="M19.179 26.4309H35.9455C35.8249 23.0516 35.463 19.793 34.7393 17.0171H20.3852C19.6615 19.793 19.179 23.0516 19.179 26.4309Z" fill="#5B7C91"/>
<path d="M20.0233 42.8446C19.6615 41.8791 19.2996 40.9136 18.9377 39.8274H11.0973C13.9922 43.6895 18.214 46.4653 23.0389 47.5515C21.8327 46.3446 20.8677 44.7757 20.0233 42.8446Z" fill="#5B7C91"/>
<path d="M36.0662 39.8274C35.1012 43.086 33.6537 45.7412 31.965 47.5515C36.7899 46.4653 41.0117 43.6895 43.9066 39.8274H36.0662Z" fill="#5B7C91"/>
<path d="M9.77043 17.0171C8.08171 19.793 7.11673 23.0516 6.99611 26.4309H17.249C17.3697 23.0516 17.7315 19.793 18.4553 17.0171H9.77043Z" fill="#5B7C91"/>
<path d="M17.249 28.4827H6.99611C7.11673 31.862 8.20234 35.1206 9.77043 37.8965H18.3346C17.7315 35.1206 17.249 31.862 17.249 28.4827Z" fill="#5B7C91"/>
<path d="M18.9377 15.0862C19.9027 11.8276 21.3502 9.17241 23.0389 7.36206C18.214 8.44827 13.9922 11.2241 11.0973 15.0862H18.9377Z" fill="#5B7C91"/>
<path d="M11.4591 48.0345L11.821 48.6379C11.4591 48.8793 11.2179 49 10.856 49C10.4942 49 10.2529 48.8793 10.0117 48.6379C9.6498 48.2759 9.52918 47.9138 9.40855 47.431C9.40855 46.9483 9.52918 46.5862 9.89104 46.2241C10.2529 45.7414 10.6148 45.5 11.0973 45.5C11.5798 45.5 11.9416 45.6207 12.3035 45.8621C12.6654 46.1034 12.786 46.4655 12.9066 46.8276C12.9066 47.069 12.9066 47.3103 12.786 47.5517L12.1829 47.1897C12.3035 47.069 12.3035 46.8276 12.3035 46.7069C12.3035 46.5862 12.1829 46.3448 12.0623 46.2241C11.821 46.1034 11.7004 45.9828 11.4591 45.9828C11.2179 45.9828 10.9766 46.2241 10.7354 46.4655C10.4942 46.8276 10.3735 47.069 10.3735 47.3103C10.3735 47.5517 10.4942 47.7931 10.6148 47.9138C10.6148 48.1552 10.7354 48.2759 10.856 48.2759C11.0973 48.2759 11.2179 48.1552 11.4591 48.0345Z" fill="#5B7C91"/>
<path d="M12.0623 49.9654L13.8716 47.0688L16.0428 48.3964L15.6809 48.9999L14.1128 48.0344L13.751 48.6378L15.1984 49.6033L14.8366 50.0861L13.3891 49.1206L12.9066 49.9654L14.5953 51.0516L14.2335 51.5344L12.0623 49.9654Z" fill="#5B7C91"/>
<path d="M15.0778 51.8965L16.5253 48.7585L17.8521 49.362C18.214 49.4827 18.4552 49.6034 18.5759 49.7241C18.6965 49.8448 18.8171 49.9654 18.8171 50.2068C18.8171 50.4482 18.8171 50.5689 18.6965 50.8103C18.5759 51.0516 18.4552 51.1723 18.214 51.293C17.9728 51.4137 17.7315 51.4137 17.4903 51.293C17.6109 51.4137 17.6109 51.5344 17.7315 51.6551C17.7315 51.7758 17.8521 52.0172 17.8521 52.3792L17.9728 53.2241L17.249 52.862L17.0078 51.8965C17.0078 51.5344 16.8872 51.4137 16.8872 51.293C16.8872 51.1723 16.7665 51.1723 16.7665 51.0517C16.7665 51.0517 16.6459 50.931 16.4047 50.931H16.284L15.6809 52.2585L15.0778 51.8965ZM16.5253 50.3275L17.0078 50.5689C17.3696 50.6896 17.4903 50.8103 17.6109 50.8103C17.7315 50.8103 17.7315 50.8103 17.8521 50.8103C17.9728 50.8103 17.9728 50.6896 17.9728 50.5689C17.9728 50.4482 17.9728 50.3275 17.9728 50.3275C17.9728 50.2068 17.8521 50.2068 17.7315 50.0861C17.7315 50.0861 17.4903 49.9654 17.249 49.8448L16.8872 49.6034L16.5253 50.3275Z" fill="#5B7C91"/>
<path d="M19.5409 53.586L20.3852 50.8102L19.2996 50.5688L19.4202 49.9653L22.0739 50.6895L21.9533 51.2929L20.9883 51.0515L20.144 53.8274L19.5409 53.586Z" fill="#5B7C91"/>
<path d="M21.8327 54.1896L22.4358 50.8103L23.1595 50.931L22.5564 54.3103L21.8327 54.1896Z" fill="#5B7C91"/>
<path d="M23.5214 54.5517L23.8833 51.1724L26.2957 51.4137V52.0172L24.607 51.8965L24.4864 52.7413L25.9338 52.862V53.4655L24.3658 53.1034L24.2451 54.5517H23.5214Z" fill="#5B7C91"/>
<path d="M26.7782 54.7931V51.4138H27.5019V54.7931H26.7782Z" fill="#5B7C91"/>
<path d="M30.6381 53.3448L31.3619 53.4655C31.2412 53.8275 31.1206 54.1896 30.8794 54.3103C30.6381 54.5517 30.3969 54.6724 30.035 54.6724C29.5525 54.6724 29.1907 54.5517 28.8288 54.3103C28.4669 54.0689 28.3463 53.5862 28.2257 53.1034C28.2257 52.4999 28.3463 52.1379 28.5875 51.7758C28.8288 51.4137 29.1907 51.2931 29.6731 51.1724C30.1556 51.1724 30.3969 51.1724 30.7588 51.4137C30.8794 51.5344 31.1206 51.7758 31.1206 52.0172L30.3969 52.2586C30.3969 52.1379 30.2763 51.8965 30.1556 51.8965C30.035 51.7758 29.7938 51.7758 29.6731 51.7758C29.4319 51.7758 29.1907 51.8965 29.07 52.1379C28.9494 52.2586 28.9494 52.6206 28.9494 52.9827C28.9494 53.4655 29.07 53.7068 29.3113 53.8275C29.4319 53.9482 29.6731 54.0689 29.9144 54.0689C30.1556 54.0689 30.2763 53.9482 30.3969 53.8275C30.5175 53.8275 30.5175 53.5862 30.6381 53.3448Z" fill="#5B7C91"/>
<path d="M35.463 53.7069L34.7393 53.8276L34.2568 53.1035L32.9299 53.4656L32.6887 54.3104L31.965 54.4311L32.5681 50.8104L33.2918 50.6897L35.463 53.7069ZM33.8949 52.6207L33.1712 51.5345L33.0506 52.8621L33.8949 52.6207Z" fill="#5B7C91"/>
<path d="M36.5486 53.2241L35.5837 50.569L34.6187 50.931L34.3774 50.3276L37.0311 49.3621L37.2724 49.9655L36.1868 50.3276L37.1518 52.9828L36.5486 53.2241Z" fill="#5B7C91"/>
<path d="M38.8405 52.3793L37.393 49.2414L37.9961 49L39.4436 52.1379L38.8405 52.3793Z" fill="#5B7C91"/>
<path d="M39.323 50.2069C39.0817 49.9655 39.0817 49.6035 38.9611 49.3621C38.9611 49.1207 38.9611 49 38.9611 48.7586C38.9611 48.5173 39.0817 48.3966 39.2023 48.2759C39.323 48.0345 39.5642 47.9138 39.8054 47.7931C40.2879 47.5517 40.6498 47.4311 41.1323 47.5517C41.6148 47.6724 41.9767 47.9138 42.2179 48.3966C42.4591 48.8793 42.5798 49.3621 42.4591 49.7242C42.3385 50.2069 42.0973 50.4483 41.6148 50.8104C41.1323 51.0517 40.7704 51.1724 40.2879 51.0517C40.0467 51.0517 39.6848 50.6897 39.323 50.2069ZM39.9261 49.8448C40.1673 50.2069 40.4086 50.3276 40.6498 50.4483C40.8911 50.569 41.1323 50.4483 41.3735 50.3276C41.6148 50.2069 41.7354 49.9655 41.856 49.7242C41.856 49.4828 41.856 49.1207 41.6148 48.8793C41.3735 48.5173 41.1323 48.3966 40.8911 48.2759C40.6498 48.1552 40.4086 48.2759 40.1673 48.3966C39.9261 48.5173 39.8055 48.7586 39.6848 49C39.6848 49.2414 39.8054 49.4828 39.9261 49.8448Z" fill="#5B7C91"/>
<path d="M43.9066 49.362L41.7354 46.7068L42.2179 46.2241L44.751 47.0689L43.3035 45.2586L43.786 44.8965L45.9572 47.5517L45.3541 48.0344L42.821 47.1896L44.2685 48.8792L43.9066 49.362Z" fill="#5B7C91"/>
<path d="M17.9728 5.43107L16.6459 2.29314L17.249 2.05176L18.5759 5.18969L17.9728 5.43107Z" fill="#5B7C91"/>
<path d="M18.6965 3.86215L19.2996 3.62077C19.4202 3.86214 19.5409 3.98283 19.6615 3.98283C19.7821 4.10352 20.0234 4.10352 20.144 3.98283C20.3852 3.86214 20.5058 3.86214 20.6265 3.74146C20.7471 3.62077 20.7471 3.50008 20.7471 3.37939C20.7471 3.2587 20.6265 3.2587 20.6265 3.2587C20.5058 3.2587 20.5058 3.13801 20.3852 3.13801C20.2646 3.13801 20.144 3.13801 19.7821 3.13801C19.4202 3.13801 19.0584 3.13801 18.9378 3.01732C18.6965 2.89663 18.4553 2.65525 18.4553 2.41387C18.4553 2.29318 18.4553 2.0518 18.4553 1.93111C18.4553 1.81042 18.5759 1.56904 18.8171 1.44835C18.8171 1.32766 19.0584 1.20697 19.2996 1.20697C19.6615 1.08628 20.0234 1.08628 20.3852 1.20697C20.6265 1.32766 20.8677 1.56904 20.9883 1.81042L20.2646 2.0518C20.144 1.93111 20.144 1.81042 20.0234 1.68973C19.9027 1.68973 19.7821 1.68973 19.5409 1.68973C19.2996 1.81042 19.179 1.81042 19.0584 1.93111C19.0584 2.0518 18.9378 2.0518 19.0584 2.17249C19.0584 2.29318 19.179 2.29318 19.179 2.29318C19.2996 2.29318 19.5409 2.29318 19.9027 2.29318C20.2646 2.29318 20.5058 2.29318 20.7471 2.29318C20.9883 2.29318 21.109 2.41387 21.2296 2.53456C21.3502 2.65525 21.4708 2.77594 21.4708 3.01732C21.4708 3.2587 21.4708 3.37939 21.4708 3.62077C21.4708 3.86214 21.3502 3.98283 21.109 4.10352C20.9883 4.22421 20.7471 4.3449 20.3852 4.46559C20.0234 4.58628 19.6615 4.58628 19.2996 4.46559C18.9378 4.3449 18.8171 4.22421 18.6965 3.86215Z" fill="#5B7C91"/>
<path d="M21.8327 2.29308C21.8327 1.93101 21.8327 1.68963 21.8327 1.44825C21.8327 1.20687 21.9533 1.08618 22.0739 0.965493C22.1946 0.844803 22.3152 0.724113 22.4358 0.603424C22.6771 0.482734 22.9183 0.362044 23.1596 0.362044C23.642 0.241355 24.1245 0.362044 24.4864 0.603424C24.8483 0.844803 25.0895 1.32756 25.0895 1.81032C25.2101 2.41377 25.0895 2.77584 24.8483 3.13791C24.607 3.49997 24.2452 3.74135 23.7627 3.74135C23.2802 3.86204 22.7977 3.74135 22.4358 3.49998C22.0739 3.2586 21.9533 2.89653 21.8327 2.29308ZM22.5564 2.17239C22.5564 2.53446 22.7977 2.77584 22.9183 3.01722C23.1596 3.13791 23.4008 3.2586 23.642 3.2586C23.8833 3.2586 24.1245 3.13791 24.2452 2.89653C24.3658 2.65515 24.4864 2.41377 24.3658 1.93101C24.2452 1.56894 24.1245 1.20687 24.0039 1.08618C23.7627 0.965493 23.5214 0.844803 23.2802 0.965493C23.0389 0.965493 22.7977 1.08618 22.6771 1.32756C22.5564 1.44825 22.4358 1.81032 22.5564 2.17239Z" fill="#5B7C91"/>
<path d="M27.2607 2.65517H27.8638C27.8638 2.77586 27.8638 2.89655 27.9844 2.89655C28.1051 3.01724 28.1051 3.01724 28.2257 3.01724C28.3463 3.01724 28.4669 3.01724 28.5876 2.89655C28.7082 2.77586 28.7082 2.53448 28.8288 2.17241C28.7082 2.41379 28.4669 2.41379 28.2257 2.41379C27.9844 2.41379 27.7432 2.2931 27.502 2.05172C27.2607 1.81034 27.2607 1.56897 27.2607 1.2069C27.2607 0.844828 27.3813 0.603448 27.6226 0.362069C27.7432 0.12069 27.9844 0 28.3463 0C28.7082 0 28.9494 0.12069 29.1907 0.482759C29.4319 0.844828 29.5525 1.2069 29.4319 1.81034C29.4319 2.41379 29.3113 2.89655 29.07 3.13793C28.8288 3.37931 28.4669 3.5 28.1051 3.5C27.8638 3.5 27.6226 3.37931 27.502 3.25862C27.3813 3.13793 27.2607 2.89655 27.2607 2.65517ZM28.8288 1.2069C28.8288 0.965517 28.8288 0.844828 28.7082 0.724138C28.5876 0.603448 28.4669 0.482759 28.3463 0.482759C28.2257 0.482759 28.1051 0.482759 27.9844 0.603448C27.8638 0.724138 27.8638 0.844828 27.8638 1.08621C27.8638 1.32759 27.8638 1.44828 27.9844 1.56897C28.1051 1.68966 28.2257 1.68966 28.3463 1.68966C28.4669 1.68966 28.5876 1.68966 28.7082 1.56897C28.7082 1.56897 28.8288 1.44828 28.8288 1.2069Z" fill="#5B7C91"/>
<path d="M31.4825 0.241455C31.8444 0.241455 32.0856 0.482834 32.2062 0.724214C32.4475 1.08628 32.4475 1.56904 32.3269 2.17249C32.2062 2.77594 32.0856 3.2587 31.8444 3.50008C31.6031 3.74146 31.3619 3.74146 31 3.74146C30.6381 3.74146 30.3969 3.50008 30.2763 3.2587C30.1556 3.01732 30.035 2.53456 30.1556 1.81042C30.1556 1.20697 30.3969 0.724214 30.6381 0.482834C30.8794 0.362145 31.1206 0.241455 31.4825 0.241455ZM31.3619 0.844903C31.2413 0.844903 31.2412 0.844903 31.1206 0.844903C31 0.844903 31 0.965593 30.8794 1.08628C30.7588 1.20697 30.7588 1.56904 30.6381 1.93111C30.6381 2.29318 30.5175 2.65525 30.6381 2.77594C30.6381 2.89663 30.6381 3.01732 30.7588 3.13801C30.7588 3.13801 30.8794 3.2587 31 3.2587C31.1206 3.2587 31.1206 3.2587 31.2412 3.2587C31.3619 3.2587 31.3619 3.13801 31.4825 3.01732C31.6031 2.89663 31.6031 2.53456 31.7237 2.17249C31.7237 1.81042 31.8444 1.44835 31.7237 1.32766C31.7237 1.20697 31.7237 1.08628 31.6031 0.965593C31.6031 0.844903 31.4825 0.844903 31.3619 0.844903Z" fill="#5B7C91"/>
<path d="M34.4981 0.844727C34.8599 0.965416 35.1012 1.08611 35.2218 1.44817C35.3424 1.81024 35.3424 2.293 35.2218 2.89645C35.1012 3.4999 34.8599 3.98266 34.4981 4.10335C34.2568 4.22404 34.0156 4.34473 33.6537 4.22404C33.2918 4.10335 33.0506 3.98266 32.93 3.62059C32.8094 3.37921 32.8094 2.89645 32.93 2.17231C33.0506 1.56886 33.2918 1.08611 33.6537 0.965416C33.895 0.844727 34.1362 0.844727 34.4981 0.844727ZM34.3774 1.44817C34.2568 1.44817 34.2568 1.44817 34.1362 1.44817C34.0156 1.44817 34.0156 1.56886 33.895 1.68955C33.7743 1.81024 33.7743 2.05162 33.6537 2.41369C33.5331 2.77576 33.5331 3.01714 33.5331 3.25852C33.5331 3.37921 33.5331 3.4999 33.6537 3.62059C33.6537 3.74128 33.7743 3.74128 33.895 3.74128C34.0156 3.74128 34.0156 3.74128 34.1362 3.74128C34.2568 3.74128 34.2568 3.62059 34.3774 3.4999C34.4981 3.37921 34.6187 3.13783 34.6187 2.65507C34.7393 2.293 34.7393 2.05162 34.7393 1.81024C34.7393 1.68955 34.7393 1.56886 34.6187 1.44817C34.4981 1.44817 34.3774 1.44817 34.3774 1.44817Z" fill="#5B7C91"/>
<path d="M36.6693 5.18961L36.0661 4.94823L36.9105 2.65513C36.5486 2.77582 36.3074 2.77582 35.9455 2.77582L36.1868 2.29306C36.428 2.29306 36.5486 2.29306 36.7899 2.17237C37.0311 2.05168 37.2724 1.93099 37.393 1.8103L37.8755 2.05168L36.6693 5.18961Z" fill="#5B7C91"/>
<path d="M2.17121 65.0518H0V76.7587H2.17121V65.0518Z" fill="#5B7C91"/>
<path d="M4.10117 68.5518H6.03113V70.1208L7.11673 68.6725C7.71984 68.4312 8.44358 68.4312 8.80545 68.4312C11.2179 68.4312 11.5798 69.8794 11.5798 71.6898V76.8794H9.6498V72.1725C9.6498 70.9656 9.40856 70.0001 7.96109 70.0001C7.35797 70.0001 6.63424 70.2415 6.15175 70.6036V76.8794H4.10117V68.5518Z" fill="#5B7C91"/>
<path d="M16.7665 76.8794C16.5253 76.8794 16.284 77.0001 15.8015 77.0001C15.3191 77.0001 14.7159 76.8794 14.1128 76.3966C13.6303 75.7932 13.6303 75.1897 13.6303 74.4656V70.0001H12.5447L13.3891 68.5518H13.6303V66.9828L15.6809 66.3794V68.5518H17.4903V70.0001H15.6809V73.6208C15.6809 74.4656 15.6809 74.8277 15.9222 75.1897C16.0428 75.4311 16.4047 75.6725 16.8872 75.6725C17.249 75.6725 17.6109 75.5518 17.9728 75.4311L16.7665 76.8794Z" fill="#5B7C91"/>
<path d="M24.607 76.7587C24.0039 77.0001 23.2802 77.0001 22.677 77.0001C19.6615 77.0001 18.214 75.1898 18.214 72.776C18.214 70.2415 19.7821 68.4312 22.1945 68.4312C22.7977 68.4312 23.4008 68.5518 23.8833 68.7932C25.8132 69.7587 25.9338 71.9312 25.9338 72.8967H20.3852C20.3852 73.3794 20.5058 74.345 21.2296 74.9484C21.8327 75.4312 22.5564 75.6725 23.4008 75.6725C24.4864 75.6725 25.4514 75.3105 25.6926 75.1898L24.607 76.7587ZM23.7626 71.5691C23.7626 71.3277 23.7626 70.6036 23.2802 70.2415C23.0389 69.8794 22.5564 69.7587 22.0739 69.7587C21.1089 69.7587 20.3852 70.6036 20.2646 71.6898H23.7626V71.5691Z" fill="#5B7C91"/>
<path d="M28.9494 76.7588H26.8988V68.5518H28.9494V70.0001L29.9144 68.6725C30.2763 68.5518 30.7588 68.4312 31.4825 68.4312C31.8444 68.4312 32.0856 68.4312 32.2062 68.5518V70.4829C31.7237 70.2415 31.2412 70.0001 30.6381 70.0001C30.1556 70.0001 29.5525 70.0001 28.9494 70.4829V76.7588Z" fill="#5B7C91"/>
<path d="M36.9105 76.8794C36.6693 76.8794 36.428 77.0001 35.9455 77.0001C35.463 77.0001 34.8599 76.8794 34.2568 76.3966C33.7743 75.7932 33.7743 75.1897 33.7743 74.4656V70.0001H32.6887L33.5331 68.5518H33.7743V66.9828L35.7043 66.3794V68.5518H37.5136V70.0001H35.5837V73.6208C35.5837 74.4656 35.5837 74.8277 35.8249 75.1897C35.9455 75.4311 36.3074 75.6725 36.7899 75.6725C37.1518 75.6725 37.5136 75.5518 37.8755 75.4311L36.9105 76.8794Z" fill="#5B7C91"/>
<path d="M44.6304 76.7587C44.0272 77.0001 43.3035 77.0001 42.7004 77.0001C39.6848 77.0001 38.2374 75.1898 38.2374 72.776C38.2374 70.2415 39.8055 68.4312 42.2179 68.4312C42.821 68.4312 43.4241 68.5518 43.9066 68.7932C45.8366 69.7587 45.9572 71.9312 45.9572 72.8967H40.4086C40.4086 73.3794 40.5292 74.345 41.2529 74.9484C41.856 75.4312 42.5798 75.6725 43.4241 75.6725C44.5097 75.6725 45.4747 75.3105 45.716 75.1898L44.6304 76.7587ZM43.786 71.5691C43.786 71.3277 43.786 70.6036 43.3035 70.2415C43.0623 69.8794 42.5798 69.7587 42.0973 69.7587C41.1323 69.7587 40.4086 70.6036 40.288 71.6898H43.786V71.5691Z" fill="#5B7C91"/>
<path d="M55.0039 76.7587H52.5914L48.9727 72.4138V76.7587H47.0428V65.0518H48.9727V72.0518L52.2296 68.5518H54.5214L51.144 72.1724L55.0039 76.7587Z" fill="#5B7C91"/>
<path d="M55.0039 59.1379H0V60.4655H55.0039V59.1379Z" fill="#5B7C91"/>
<path d="M56.572 54.3103V51.1724H55.3658V50.8103H58.1401V51.1724H56.9338V54.3103H56.572Z" fill="#5B7C91"/>
<path d="M58.6226 54.3103V50.8103H59.3463L60.1907 53.3448C60.3113 53.5862 60.3113 53.7069 60.3113 53.8275C60.3113 53.7069 60.4319 53.4655 60.5525 53.2241L61.3969 50.8103H62V54.3103H61.5175V51.4138L60.5525 54.3103H60.1907L59.1051 51.2931V54.3103H58.6226Z" fill="#5B7C91"/>
</svg>
