<svg width="112" height="23" viewBox="0 0 112 23" fill="none" xmlns="http://www.w3.org/2000/svg">
<g clip-path="url(#clip0)">
<path d="M29.9 5.5V17L32.6 16.9V10.7L35.5 17H38.3L41.1 10.6V17H43.7V5.5H40.7L36.8 13.7L32.9 5.5H29.9Z" fill="#B3B3B3"/>
<path d="M44.8 17H47.8L48.8 14.7H54.8L55.8 17H58.7L53.5 5.5H49.8L44.8 17ZM49.7 12.6L51.7 7.9L53.8 12.6H49.7Z" fill="#B3B3B3"/>
<path d="M60 5.5C63.6 5.5 67.3 5.5 71 5.5V7.9H62.7V10.1H69.8V12.4H62.7V14.7H71V17C67.3 17 63.7 17 60 17V5.5Z" fill="#B3B3B3"/>
<path d="M87.5 5.5H95.7C96.7 5.5 97.4 6.1 97.4 6.8V8.8H94.7V7.8H89.1V10.1H95.2C96.8 10.1 97.4 10.6 97.5 11.8V15.4C97.5 16.4 96.5 17.1 95.4 17.1H88.3C87 17.1 86.5 16.5 86.5 15.6V13.8H89.2V14.7H94.8V12.4H87.9C87 12.4 86.5 11.7 86.5 10.8V6.9C86.4 6.2 86.6 5.5 87.5 5.5Z" fill="#B3B3B3"/>
<path d="M100 5.49999H102.7V10.2L107.8 5.39999L111.7 5.49999L105.6 10.8L111.9 17H108L102.8 12L102.7 11.9V17H100V5.49999Z" fill="#B3B3B3"/>
<path d="M84.4 7.09999V11.5C84.3 12.8 83.2 13 82.2 13L84.6 17H81.3L79 13H75.9V17H73.2V5.39999H74.5H75.8H82.1C83.3 5.49999 84.3 5.89999 84.4 7.09999ZM81.7 10.7V7.79999H75.8V10.7H81.7Z" fill="#B3B3B3"/>
<path d="M22.2 2.1V20.3C22.2 21.5 21.2 22.4 20.1 22.4H2.1C0.9 22.4 0 21.4 0 20.3V2.1C0 0.9 1 0 2.1 0H20.1C21.3 0 22.2 1 22.2 2.1Z" fill="#CCCCCC"/>
<path d="M11.1 2.5L12.5 8.7L18.3 5.9L14.4 10.9L20 13.8H13.7L15.1 20L11.1 15.1L7.10001 20L8.50001 13.8H2.20001L7.80001 10.9L3.90001 5.9L9.60001 8.7L11.1 2.5Z" fill="white"/>
</g>
<defs>
<clipPath id="clip0">
</clipPath>
</defs>
</svg>
