<svg width="101" height="33" viewBox="0 0 101 33" fill="none" xmlns="http://www.w3.org/2000/svg">
<g clip-path="url(#clip0)">
<path d="M81.9 26C81.9 26.2 81.8 26.4 81.7 26.5C81.5 26.7 81.3 26.7 81 26.7C80.8 26.7 80.6 26.6 80.4 26.5C80.3 26.4 80.2 26.3 80.1 26.2C80 26 80 25.8 80 25.6C80 25.3 80.1 25.1 80.2 24.9C80.3 24.7 80.4 24.6 80.6 24.6C80.7 24.5 80.9 24.5 81 24.5C81.2 24.5 81.4 24.5 81.5 24.6C81.6 24.7 81.7 24.7 81.7 24.9C81.8 25 81.8 25.1 81.8 25.2H81.3C81.3 25.1 81.3 25 81.2 25C81.1 24.9 81 24.9 80.9 24.9C80.7 24.9 80.6 25 80.5 25.1C80.4 25.2 80.3 25.4 80.3 25.7C80.3 26 80.4 26.2 80.5 26.3C80.6 26.4 80.7 26.4 80.8 26.4C80.9 26.4 81 26.4 81.1 26.3C81.2 26.2 81.2 26.1 81.2 26H81.9ZM84.2 24.6H84.6L85.4 26.8H84.9L84.8 26.4H84L83.9 26.8H83.4L84.2 24.6ZM84.2 25.9H84.7L84.5 25.2L84.2 25.9ZM86.8 26H87.3C87.3 26.1 87.4 26.2 87.4 26.2C87.5 26.3 87.6 26.3 87.7 26.3C88 26.3 88.1 26.2 88.1 26.1C88.1 26 88 25.9 87.8 25.9L87.4 25.8C87.2 25.7 87.1 25.7 87 25.6C86.9 25.6 86.9 25.5 86.9 25.4C86.9 25.3 86.8 25.2 86.8 25.1C86.8 24.9 86.9 24.8 87 24.6C87.1 24.5 87.4 24.4 87.6 24.4C87.9 24.4 88.1 24.5 88.2 24.6C88.3 24.7 88.4 24.9 88.4 25.1H87.9C87.9 25 87.9 24.9 87.8 24.9C87.7 24.8 87.6 24.8 87.5 24.8C87.4 24.8 87.3 24.8 87.2 24.9C87.1 24.9 87.1 25 87.1 25.1C87.1 25.2 87.1 25.2 87.2 25.2C87.2 25.2 87.3 25.3 87.4 25.3L87.7 25.4C87.9 25.5 88.1 25.5 88.2 25.6C88.3 25.6 88.3 25.7 88.3 25.8C88.3 25.9 88.4 26 88.4 26.1C88.4 26.2 88.4 26.4 88.3 26.5C88.2 26.7 87.9 26.8 87.6 26.8C87.4 26.8 87.2 26.8 87 26.7C87 26.5 86.8 26.3 86.8 26ZM90.2 24.6H91C91.1 24.6 91.2 24.6 91.3 24.6C91.4 24.6 91.5 24.7 91.5 24.7C91.7 24.8 91.7 25 91.7 25.2C91.7 25.4 91.6 25.6 91.5 25.7C91.4 25.8 91.4 25.8 91.3 25.8C91.2 25.8 91.1 25.8 91 25.8H90.5V26.5H90V24.6H90.2ZM90.7 25V25.6H91.1C91.2 25.6 91.3 25.6 91.3 25.5C91.4 25.4 91.4 25.4 91.4 25.3C91.4 25.2 91.4 25.1 91.3 25.1C91.2 25 91.1 25 91 25H90.7ZM93.5 24.6H94V26.8H93.5V24.6ZM96.3 24.6H96.8L97.6 26.8H97L96.9 26.4H96.2L96 26.7H95.5L96.3 24.6ZM96.2 25.9H96.7L96.5 25.2L96.2 25.9ZM99 24.6H99.5L100.4 26V24.6H100.9V26.8H100.4L99.5 25.4V26.8H99V24.6ZM74.5 24.6H75V25.4H75.9V24.6H76.4V26.8H75.9V25.9H75V26.8H74.5V24.6ZM71.3 24.6H73V25H72.4V26.7H71.9V25H71.3V24.6ZM68.5 25V25.6H69C69.1 25.6 69.1 25.6 69.2 25.5C69.3 25.4 69.3 25.4 69.3 25.3C69.3 25.2 69.3 25.2 69.2 25.1C69.1 25 69 25 68.9 25H68.5ZM68 24.6H68.9C69.1 24.6 69.2 24.6 69.2 24.6C69.3 24.6 69.3 24.6 69.4 24.7C69.5 24.8 69.5 24.8 69.6 24.9C69.7 25 69.7 25.1 69.7 25.2C69.7 25.4 69.6 25.6 69.4 25.7C69.5 25.7 69.6 25.8 69.6 25.8C69.6 25.9 69.7 25.9 69.7 26.1V26.5C69.7 26.6 69.7 26.6 69.7 26.6C69.7 26.6 69.7 26.7 69.8 26.7H69.4H69.3C69.3 26.7 69.3 26.7 69.3 26.6C69.3 26.6 69.3 26.5 69.3 26.4V26.1C69.3 26 69.3 26 69.2 25.9C69.2 25.9 69.1 25.8 69 25.8H68.5V26.6H68V24.6ZM65.3 24.9C65.1 24.9 65 25 64.9 25.1C64.8 25.2 64.7 25.4 64.7 25.6C64.7 25.8 64.8 26 64.9 26.1C65 26.2 65.1 26.3 65.3 26.3C65.5 26.3 65.6 26.2 65.7 26.1C65.8 26 65.9 25.8 65.9 25.6C65.9 25.4 65.9 25.2 65.8 25.1C65.6 25 65.5 24.9 65.3 24.9ZM65.3 24.5C65.6 24.5 65.8 24.6 66 24.7C66.1 24.8 66.2 24.9 66.2 25C66.3 25.2 66.3 25.4 66.3 25.5C66.3 25.8 66.2 26 66.1 26.2C65.9 26.5 65.6 26.6 65.3 26.6C65 26.6 64.8 26.5 64.6 26.4C64.5 26.3 64.4 26.2 64.4 26.1C64.3 25.9 64.3 25.7 64.3 25.5C64.3 25.4 64.3 25.3 64.4 25.1C64.4 25 64.5 24.9 64.5 24.8C64.6 24.6 64.7 24.5 64.9 24.5C65 24.6 65.1 24.5 65.3 24.5ZM60.8 24.6H61.3L62.1 26V24.6H62.6V26.8H62.1L61.3 25.4V26.8H60.8V24.6Z" fill="#6F6F6F"/>
<path d="M61.8 28.6C62.1 28.6 62.3 28.7 62.5 28.8C62.6 28.9 62.7 29 62.7 29.1C62.8 29.3 62.8 29.5 62.8 29.6C62.8 29.9 62.7 30.1 62.6 30.3C62.4 30.6 62.1 30.7 61.8 30.7C61.5 30.7 61.3 30.6 61.1 30.5C61 30.4 60.9 30.3 60.9 30.2C60.8 30 60.8 29.8 60.8 29.6C60.8 29.5 60.8 29.4 60.9 29.2C60.9 29.1 61 29 61 28.9C61.1 28.7 61.2 28.6 61.4 28.6C61.5 28.6 61.6 28.6 61.8 28.6ZM61.8 29C61.6 29 61.5 29.1 61.4 29.2C61.3 29.3 61.2 29.5 61.2 29.7C61.2 29.9 61.3 30.1 61.4 30.2C61.5 30.3 61.6 30.4 61.8 30.4C62 30.4 62.1 30.3 62.2 30.2C62.3 30.1 62.4 29.9 62.4 29.7C62.4 29.5 62.4 29.3 62.3 29.2C62.1 29 62 29 61.8 29ZM63.6 28.6H64.4C64.5 28.6 64.6 28.6 64.7 28.6C64.8 28.6 64.9 28.7 64.9 28.7C65.1 28.8 65.1 29 65.1 29.2C65.1 29.4 65 29.6 64.9 29.7C64.8 29.8 64.8 29.8 64.7 29.8C64.6 29.8 64.5 29.8 64.4 29.8H63.9V30.5H63.4L63.6 28.6ZM64.1 29V29.6H64.5C64.6 29.6 64.7 29.6 64.7 29.5C64.8 29.4 64.8 29.4 64.8 29.3C64.8 29.2 64.8 29.1 64.7 29.1C64.6 29 64.6 29 64.4 29H64.1ZM66 28.6H67.6V29H66.5V29.4H67.5V29.8H66.5V30.3H67.7V30.7H66V28.6ZM68.4 28.6H69.3C69.5 28.6 69.6 28.6 69.6 28.6C69.6 28.6 69.7 28.6 69.8 28.7C69.9 28.8 69.9 28.8 70 28.9C70.1 29 70.1 29.1 70.1 29.2C70.1 29.4 70 29.6 69.8 29.7C69.9 29.7 70 29.8 70 29.8C70 29.9 70.1 29.9 70.1 30.1V30.5C70.1 30.6 70.1 30.6 70.1 30.6C70.1 30.6 70.1 30.7 70.2 30.7H69.8H69.7C69.7 30.7 69.7 30.7 69.7 30.6C69.7 30.6 69.7 30.5 69.7 30.4V30.1C69.7 30 69.7 30 69.6 29.9C69.6 29.9 69.5 29.8 69.4 29.8H68.9V30.6H68.4V28.6ZM68.9 29V29.6H69.4C69.5 29.6 69.5 29.6 69.6 29.5C69.7 29.4 69.7 29.4 69.7 29.3C69.7 29.2 69.7 29.2 69.6 29.1C69.5 29 69.4 29 69.4 29H68.9ZM71.6 28.6H72L72.8 30.8H72.3L72.2 30.4H71.5L71.4 30.8H70.9L71.6 28.6ZM71.6 29.9H72.1L71.9 29.2L71.6 29.9ZM73.3 28.6H75V29H74.4V30.7H73.9V29H73.3V28.6ZM75.7 28.6H76.2V30.8H75.7V28.6ZM77 28.6H77.5L78.3 30V28.6H78.8V30.8H78.3L77.5 29.4V30.8H77V28.6ZM80.7 29.6H81.6V30.7H81.3L81.2 30.5C81.1 30.7 80.8 30.8 80.6 30.8C80.4 30.8 80.2 30.8 80.1 30.7C80 30.6 79.9 30.5 79.8 30.4C79.7 30.2 79.6 30 79.6 29.8C79.6 29.5 79.7 29.3 79.8 29.1C79.9 28.9 80 28.8 80.2 28.7C80.4 28.6 80.5 28.6 80.7 28.6C80.9 28.6 81 28.6 81.2 28.7C81.5 28.8 81.6 29 81.7 29.4H81.2C81.2 29.3 81.2 29.3 81.2 29.3L81.1 29.2C80.9 29 80.8 29 80.7 29C80.6 29 80.5 29 80.4 29.1C80.2 29.2 80.1 29.4 80.1 29.7C80.1 29.9 80.1 30 80.2 30.2C80.3 30.4 80.5 30.5 80.7 30.5C80.8 30.5 81 30.5 81.1 30.4C81.2 30.3 81.3 30.2 81.3 30.1H80.8L80.7 29.6ZM85.1 30C85.1 30.2 85 30.4 84.9 30.5C84.7 30.7 84.5 30.7 84.2 30.7C84 30.7 83.8 30.6 83.6 30.5C83.5 30.4 83.4 30.3 83.3 30.2C83.2 30 83.2 29.8 83.2 29.6C83.2 29.3 83.3 29.1 83.4 28.9C83.5 28.7 83.6 28.6 83.8 28.6C83.9 28.5 84.1 28.5 84.2 28.5C84.4 28.5 84.6 28.5 84.7 28.6C84.8 28.7 84.9 28.7 84.9 28.8C85 28.9 85 29 85 29.1H84.5C84.5 29 84.5 28.9 84.4 28.9C84.5 29 84.4 29 84.2 29C84 29 83.9 29.1 83.8 29.2C83.7 29.3 83.6 29.5 83.6 29.8C83.6 30.1 83.7 30.3 83.8 30.4C83.9 30.5 84 30.5 84.1 30.5C84.2 30.5 84.3 30.5 84.4 30.4C84.5 30.3 84.5 30.2 84.5 30.1L85.1 30ZM86.9 28.6C87.2 28.6 87.4 28.7 87.6 28.8C87.7 28.9 87.8 29 87.8 29.1C87.9 29.3 87.9 29.5 87.9 29.6C87.9 29.9 87.8 30.1 87.7 30.3C87.5 30.6 87.2 30.7 86.9 30.7C86.6 30.7 86.4 30.6 86.2 30.5C86.1 30.4 86 30.3 86 30.2C85.9 30 85.9 29.8 85.9 29.6C85.9 29.5 85.9 29.4 86 29.2C86 29.1 86.1 29 86.1 28.9C86.2 28.7 86.3 28.6 86.5 28.6C86.6 28.6 86.7 28.6 86.9 28.6ZM86.9 29C86.7 29 86.6 29.1 86.5 29.2C86.4 29.3 86.3 29.5 86.3 29.7C86.3 29.9 86.4 30.1 86.5 30.2C86.6 30.3 86.7 30.4 86.9 30.4C87.1 30.4 87.2 30.3 87.3 30.2C87.4 30.1 87.5 29.9 87.5 29.7C87.5 29.5 87.5 29.3 87.4 29.2C87.2 29 87 29 86.9 29ZM88.7 28.6H89.4L89.8 30.2L90.2 28.6H90.8V30.8H90.4V29.2L90 30.8H89.6L89.1 29.2V30.8H88.7V28.6ZM91.7 28.6H92.5C92.6 28.6 92.7 28.6 92.8 28.6C92.9 28.6 93 28.7 93 28.7C93.2 28.8 93.2 29 93.2 29.2C93.2 29.4 93.1 29.6 93 29.7C92.9 29.8 92.9 29.8 92.8 29.8C92.7 29.8 92.6 29.8 92.5 29.8H92V30.5H91.5V28.6H91.7ZM92.2 29V29.6H92.6C92.7 29.6 92.8 29.6 92.8 29.5C92.9 29.4 92.9 29.4 92.9 29.3C92.9 29.2 92.9 29.1 92.8 29.1C92.7 29 92.7 29 92.5 29H92.2ZM94.7 28.6H95.2L96 30.8H95.5L95.4 30.4H94.7L94.6 30.8H94.1L94.7 28.6ZM94.7 29.9H95.2L95 29.2L94.7 29.9ZM96.6 28.6H97.1L97.9 30V28.6H98.4V30.8H97.9L97.1 29.4V30.8H96.6V28.6ZM99 28.6H99.5L99.9 29.5L100.3 28.6H100.8L100.1 29.9V30.7H99.6V29.9L99 28.6Z" fill="#6F6F6F"/>
<path d="M76.1 13.3H79.5V15.5H76.9C76.5 15.5 76.2 15.6 75.9 15.7C75.6 15.8 75.3 16 75.1 16.3C74.8 16.6 74.7 16.8 74.5 17.1C74.4 17.4 74.3 17.7 74.3 18C74.3 18.4 74.4 18.7 74.5 19C74.6 19.3 74.8 19.6 75.1 19.8C75.3 20.1 75.6 20.2 75.9 20.4C76.2 20.5 76.6 20.6 76.9 20.6H79.5V22.8H76.1C75.4 22.8 74.8 22.7 74.3 22.5C73.7 22.3 73.3 21.9 72.8 21.5C72.4 21 72 20.5 71.8 20C71.6 19.4 71.5 18.8 71.5 18.1C71.5 16.9 72 15.8 72.9 14.9C73.4 14.4 73.9 14.1 74.4 13.9C74.9 13.5 75.5 13.3 76.1 13.3Z" fill="#6C6C6C"/>
<path d="M86.2 23C85.4 23 84.7 22.9 84.1 22.7C83.5 22.5 82.9 22.2 82.4 21.8C81.9 21.3 81.4 20.8 81.2 20.2C80.9 19.6 80.8 18.9 80.8 18.1C80.8 17.3 80.9 16.6 81.2 16C81.5 15.4 81.9 14.8 82.4 14.4C82.9 14 83.5 13.6 84.1 13.4C84.7 13.2 85.4 13.1 86.2 13.1C87 13.1 87.7 13.2 88.3 13.4C88.9 13.6 89.5 13.9 90 14.4C90.5 14.9 91 15.4 91.2 16C91.5 16.6 91.6 17.3 91.6 18.1C91.6 18.9 91.5 19.6 91.2 20.2C90.9 20.8 90.5 21.4 90 21.8C89.5 22.2 88.9 22.5 88.3 22.7C87.7 22.9 87 23 86.2 23ZM86.2 15.3C85.8 15.3 85.4 15.4 85.1 15.5C84.8 15.6 84.5 15.8 84.3 16.1C84.1 16.4 83.9 16.7 83.8 17C83.7 17.3 83.6 17.7 83.6 18.1C83.6 18.5 83.7 18.8 83.8 19.2C83.9 19.5 84.1 19.8 84.3 20.1C84.6 20.4 84.8 20.6 85.2 20.7C85.5 20.8 85.9 20.9 86.3 20.9C86.7 20.9 87.1 20.8 87.4 20.7C87.7 20.6 88 20.4 88.2 20.1C88.7 19.6 88.9 18.9 88.9 18.1C88.9 17.7 88.8 17.3 88.7 17C88.6 16.7 88.4 16.4 88.1 16.1C87.9 15.8 87.6 15.6 87.3 15.5C87 15.4 86.6 15.3 86.2 15.3Z" fill="#6C6C6C"/>
<path d="M97.4 13.3H100.8V15.5H98.2C97.8 15.5 97.5 15.6 97.2 15.7C96.9 15.8 96.6 16 96.4 16.3C96.1 16.6 96 16.8 95.8 17.1C95.7 17.4 95.6 17.7 95.6 18C95.6 18.4 95.7 18.7 95.8 19C95.9 19.3 96.1 19.6 96.4 19.8C96.6 20.1 96.9 20.2 97.2 20.4C97.5 20.5 97.9 20.6 98.2 20.6H100.8V22.8H97.4C96.7 22.8 96.1 22.7 95.6 22.5C95 22.3 94.6 21.9 94.1 21.5C93.7 21 93.3 20.5 93.1 20C92.9 19.4 92.8 18.8 92.8 18.1C92.8 16.9 93.3 15.8 94.2 14.9C94.7 14.4 95.2 14.1 95.7 13.9C96.2 13.5 96.8 13.3 97.4 13.3Z" fill="#6C6C6C"/>
<path d="M67.1 13.3H69.7V22.8H67.1L63.4 17.7V22.8H60.7V13.3H63.4L67.1 18.4V13.3Z" fill="#6C6C6C"/>
<path d="M16 18.1C16.4 15.5 17.6 13.3 19.4 11.5C21.6 9.3 24.7 8 28.1 8C31.5 8 34.5 9.4 36.7 11.6C38.7 13.6 40 16.3 40.2 19.3C40.5 19.2 40.9 19.1 41.2 19C40.9 15.8 39.5 13 37.4 10.9C35 8.5 31.7 7 28 7C24.3 7 21 8.5 18.6 10.9C16.7 12.8 15.4 15.2 14.9 17.9C15.4 17.9 15.7 18 16 18.1ZM24.3 20C24.9 20.1 25.5 20.1 26.2 20.2L26.3 20.1L25.2 19L24.3 20ZM28 16.2L26.9 17.3L28 18.4H28.1L29.2 17.3L28.1 16.2H28ZM18.4 18.9C18.6 17.7 18.9 16.6 19.5 15.5L20 16H20.5L22.9 18.4V18.9L23.9 19.8L24.1 19.6L24.8 18.9L25 18.7L24.1 17.7H23.6L21.2 15.3V14.8L20.5 14.1C20.6 14 20.7 13.9 20.8 13.8L21.5 14.5H22L24.4 16.9V17.4L25.4 18.3L25.6 18.1L26.3 17.4L26.5 17.2L25.6 16.2H25.1L22.7 13.8V13.3L22 12.6C22.1 12.5 22.2 12.4 22.3 12.3L23 13H23.5L25.9 15.4V15.9L26.9 16.8L27.1 16.6L27.8 15.9L28 15.7L27.1 14.7H26.6L24.2 12.3V11.8L23.7 11.3C25.1 10.5 26.7 10.1 28.4 10.1C30.1 10.1 31.7 10.5 33.1 11.3L32.6 11.8V12.3L30.2 14.7H29.7L28.8 15.7L29 15.9L29.7 16.6L29.9 16.8L30.9 15.9V15.4L33.3 13H33.8L34.5 12.3C34.6 12.4 34.7 12.5 34.8 12.6L34.1 13.3V13.8L31.7 16.2H31.2L30.3 17.2L30.5 17.4L31.2 18.1L31.4 18.3L32.4 17.4V16.9L34.8 14.5H35.3L36 13.8C36.1 13.9 36.2 14 36.3 14.1L35 14.9V15.4L32.6 17.8H32.1L31.2 18.8L31.4 19L32.1 19.7L32.3 19.9L33.3 19V18.5L35.7 16.1H36.2L36.7 15.6C37.4 16.9 37.8 18.3 37.9 19.9C38.3 19.8 38.8 19.7 39.2 19.6C39 16.8 37.8 14.3 36 12.4C34 10.4 31.2 9.2 28.2 9.2C25.1 9.2 22.4 10.4 20.4 12.4C18.8 14 17.7 16.2 17.3 18.5C17.7 18.7 18.1 18.8 18.4 18.9ZM25.5 18.7L26.6 19.8L27.7 18.7L27.6 18.6L26.5 17.5L25.5 18.7ZM29.1 20.2L28 19.1L27 20.2L27.1 20.3C27.7 20.3 28.3 20.4 29 20.4L29.1 20.2ZM29.5 17.7L28.5 18.7V18.8L29.6 19.9L29.7 19.8L30.7 18.8L30.8 18.7L29.5 17.7ZM30.9 19L29.8 20.1L29.9 20.2V20.3L30.1 20.5C30.7 20.5 31.1 20.5 31.7 20.5L31.8 20.4L31.9 20.3L32 20.2L30.9 19ZM42.2 13.7C42.6 13.5 43.2 12.9 43.6 12.6L44.6 11.7L43.2 11.8C42.8 11.8 41.8 11.8 41.4 12C40.8 12.3 40.5 12.9 40.7 13.3C40.9 13.8 41.6 14 42.2 13.7ZM39.5 8.9C39.8 8.6 40.2 7.7 40.4 7.3L41 6L39.7 6.6C39.3 6.8 38.4 7.2 38.1 7.5C37.6 8 37.5 8.7 37.9 9.1C38.3 9.5 39 9.4 39.5 8.9ZM35.4 6.1C35.6 5.6 35.7 4.5 35.8 4L36.1 2.3L34.9 3.5C34.5 3.9 33.6 4.6 33.4 5.1C33 5.8 33.2 6.7 33.7 7C34.2 7.1 35 6.8 35.4 6.1ZM13.9 13.7C14.5 14 15.2 13.8 15.4 13.3C15.6 12.8 15.3 12.2 14.7 12C14.3 11.8 13.4 11.8 12.9 11.8L11.5 11.7L12.5 12.6C12.9 12.9 13.5 13.6 13.9 13.7ZM16.6 8.9C17.1 9.4 17.8 9.5 18.2 9.1C18.6 8.7 18.5 8 18 7.5C17.7 7.2 16.8 6.8 16.4 6.6L15.1 6L15.7 7.3C15.9 7.7 16.3 8.6 16.6 8.9ZM20.7 6.1C21.1 6.8 21.9 7.2 22.4 6.9C23 6.6 23.1 5.8 22.7 5C22.5 4.5 21.6 3.8 21.2 3.4L20 2.2L20.3 3.9C20.4 4.4 20.5 5.6 20.7 6.1ZM26.7 3.9C26.7 3.4 27.2 2.2 27.4 1.7L28 0L28.6 1.7C28.8 2.2 29.2 3.4 29.2 3.9C29.2 4.8 28.6 5.5 28 5.5C27.2 5.5 26.7 4.8 26.7 3.9Z" fill="#C0C0C0"/>
<path d="M28.4 23.3C28 22.5 27.5 22 26.8 21.6C25.3 20.7 23.1 19.9 20.3 19.7C18.1 19.5 15.4 19.9 12.3 18.9C10.3 18.2 9.2 16.6 6.8 15.2C5.5 14.5 3.4 14.1 1.7 13.2C1.4 13 1 12.8 0.700001 12.6C0.400001 12.4 0.300001 12.4 0.200001 12.4C-0.999999 12.7 2.4 17 5.8 18.2C10.6 19.9 8.3 19.9 8.3 19.9C8.3 19.9 5.7 19.6 2.4 17.7C1.7 18.6 3 20 5.7 21C8.4 21.9 8.9 22 8.9 22C8.9 22 10.4 22.1 8.3 22.7C7.2 23 5.6 22.7 5.6 23C5.7 23.9 11.1 24.9 12.1 25.5C12.1 25.5 8.2 25.9 9.7 26.7C12.7 28.3 16.7 28.9 20.5 29.4C21.2 29.5 21.9 29.6 22.6 29.7C23.6 29.8 24.3 29.9 25.2 29.6C26.9 29.2 27.7 27.3 27.5 25.9C27.4 25 26.8 24.3 26.1 23.9C25.2 23.4 24 23.3 23.2 24.1C22.5 24.8 22.3 26.2 23.3 26.6C24.2 26.9 24.7 26.4 24.8 26C25 25.5 24.6 25 24 24.8C24.5 24.5 25.1 24.5 25.6 24.9C26.4 25.7 26.1 27.1 25 27.8C24 28.3 22.4 28.1 21.8 27.3C21 26.5 20.6 24.7 22.2 23C19.5 24.1 18.4 23.6 15.6 21.6C15.6 21.6 17.2 22.1 21.1 21.9C25 21.7 25.5 21.7 26.9 22.2C27.6 22.5 28.1 22.9 28.4 23.3Z" fill="#6C6C6C"/>
<path d="M31 21.4C32.7 21.3 34.3 20.7 35.7 20.7C38.2 20.6 40.3 21 42.9 20.2C44.2 19.8 45.3 18.5 46.9 17.6C48 17 49.4 17 50.7 16.2C51.9 15.4 53.3 14.4 54.8 13.3C54.9 13.2 55 13.1 55.1 13C55.2 12.9 55.4 13 55.5 13C56.6 13.3 54 16.7 50.7 17.8C47.1 19 50.7 19.3 53.5 17.7C54.5 18.7 53.2 20.5 50.1 21.4C46.9 22.2 46.9 22.4 46.9 22.4C45 22.6 50.4 22.3 50.3 22.6C50.1 24.2 45.9 25.4 44.5 25.4C44.5 25.4 46.9 25.6 45.6 26.6C40.9 30.1 34.9 25.1 29.9 32.5C30.7 26.7 36.6 23.2 37.4 26.2C38 25.4 38.4 23.7 35.7 23.2C34.1 21.3 29.4 23.8 30.6 21.5C30.6 21.5 30.7 21.4 30.8 21.4C30.8 21.4 30.9 21.4 31 21.4Z" fill="#6C6C6C"/>
</g>
<defs>
<clipPath id="clip0">
</clipPath>
</defs>
</svg>
