<svg width="81" height="23" viewBox="0 0 81 23" fill="none" xmlns="http://www.w3.org/2000/svg">
<g clip-path="url(#clip0)">
<path d="M43.6 9.70001C41.8 9.70001 40.5 10.1 39.6 10.8C38.7 11.5 38.2 12.5 38.2 13.8C38.2 15.1 38.7 16.1 39.6 16.8C40.5 17.5 41.9 17.9 43.6 17.9C45.3 17.9 46.7 17.5 47.6 16.8C48.5 16.1 49 15.1 49 13.8C49 12.5 48.5 11.5 47.6 10.8C46.6 10 45.3 9.70001 43.6 9.70001ZM43.6 15.9C41.7 15.9 40.7 15.2 40.7 13.7C40.7 12.2 41.7 11.5 43.6 11.5C45.5 11.5 46.5 12.2 46.5 13.7C46.4 15.2 45.5 15.9 43.6 15.9Z" fill="#A2A2A2"/>
<path d="M59.2 9.89999H49.7V11.6H53V17C53 17.5 53.5 17.7 54.4 17.7C55.4 17.7 55.9 17.5 55.9 17V11.6H59.2V9.89999Z" fill="#A2A2A2"/>
<path d="M71.8 10.4V14.1C71.8 15.5 72.3 16.5 73.2 17C73.9 17.4 75.6 17.6 78.3 17.6H80.7V15.8H76.7C75.9 15.8 75.4 15.7 75.1 15.4C74.8 15.2 74.7 14.8 74.7 14.2V10.4C74.7 9.90001 74.2 9.70001 73.3 9.70001C72.4 9.70001 71.8 10 71.8 10.4Z" fill="#A2A2A2"/>
<path d="M31.8 9.4V15.2C31.8 15.9 32.1 16.5 32.6 16.9C33.2 17.3 33.9 17.6 34.9 17.7V9.4H39.3V7.5H27.8V9.4H31.8Z" fill="#A2A2A2"/>
<path d="M61.3 12.7C59.9 14.4 59.1 16 58.8 17.4L58.7 17.7H61.3V17.5C61.4 17 61.6 16.5 61.8 16.1H67.4C67.6 16.6 67.8 17.1 67.9 17.5V17.7H70.5L70.4 17.4C70.1 16 69.3 14.5 67.9 12.7C66.9 11.4 66.1 10.5 65.4 9.99999C65.2 9.89999 64.9 9.79999 64.6 9.79999C64.2 9.79999 63.9 9.89999 63.8 9.99999C63.2 10.4 62.4 11.3 61.3 12.7ZM62.8 14.3C63.4 13.4 64 12.7 64.7 12C65.4 12.7 66.1 13.5 66.6 14.3H62.8Z" fill="#A2A2A2"/>
<path d="M21 12.7C20.2 13.6 18.9 14.4 17.1 14.9C15.3 15.4 13.5 15.6 11.7 15.5C10.6 15.4 9.19998 15.1 7.59998 14.7C5.89998 14.2 4.59998 13.6 3.59998 13C5.79998 15.1 8.29998 16.6 11 17.4C12.7 17.9 14.3 18.1 15.9 18.1C17.5 18.1 18.8 17.8 19.8 17.3C20.5 16.8 21 16.2 21.2 15.3C21.4 14.5 21.3 13.7 21 12.8V12.7Z" fill="#C9C9C9"/>
<path d="M19.6 11C19.2 13 18.5 14.9 17.4 16.8C16.3 18.6 15.2 20 13.9 21C12.7 21.9 11.5 22.5 10.3 22.8C9.09999 23 7.99999 23.1 6.89999 22.9C5.89999 22.7 4.99999 22.3 4.29999 21.7C3.49999 21.1 2.99999 20.4 2.79999 19.6C3.29999 20.3 3.99999 20.8 4.79999 21.1C5.69999 21.4 6.49999 21.3 7.39999 21C9.49999 20.2 11.3 18 12.9 14.6C13.5 13.3 14 12 14.4 10.5C14.7 9.3 15 8.2 15 7.4C15.2 4.9 14.9 3.1 14 2C12.8 0.7 11.1 0.4 8.99999 1C9.79999 0.3 11 0 12.4 0C13.9 0 15.2 0.3 16.4 1C18 1.9 19 3.3 19.6 5.2C20 6.9 20 8.8 19.6 11Z" fill="#8A8A8A"/>
<path d="M12.1 8.19999C9.90002 7.49999 7.80002 7.19999 5.60002 7.49999C3.70002 7.69999 2.20002 8.19999 1.30002 8.99999C0.500018 9.89999 0.600018 11 1.40002 12.3C1.50002 12.5 1.70002 12.7 2.00002 13C2.60002 11.7 4.20002 10.5 6.80002 9.49999C7.80002 9.09999 8.90002 8.79999 9.90002 8.49999C10.8 8.29999 11.6 8.19999 12.1 8.19999Z" fill="#C9C9C9"/>
<path d="M0.4 14.9C0.7 16 1.4 17.1 2.3 18C3.2 18.9 4.2 19.7 5.5 20.3C6.7 20.9 8 21.3 9.3 21.5C10.7 21.7 12 21.8 13.3 21.6C14.7 21.4 16.1 20.9 17.3 20.2C18 19.8 18.7 19.2 19.5 18.6C18 19 16.4 19.2 14.8 19.1C12.6 19 10.5 18.5 8.4 17.7C5.8 16.7 3.7 15.2 2 13.2L1.9 13.1C1.6 12.8 1.4 12.5 1.3 12.4C0.5 11 0.5 9.9 1.3 9C1.1 9.2 1 9.3 0.8 9.5C0.3 10.1 0 10.9 0 11.9C0 12.8 0.1 13.8 0.4 14.9Z" fill="#AEAEAE"/>
<path d="M22.5 10.3C22.3 8.90001 21.9 7.70001 21.1 6.50001C20.2 5.20001 19.1 4.20001 17.6 3.40001C16.1 2.60001 14.3 2.00001 12.4 1.80001C9.7 1.50001 7.3 2.00001 5 3.10001C4.1 3.60001 3.3 4.20001 2.5 5.10001C1.7 6.00001 1 7.00001 0.5 8.20001C0.9 7.60001 1.4 7.10001 2 6.70001C2.7 6.30001 3.6 6.00001 4.8 5.90001C6.1 5.80001 7.5 5.80001 9 6.00001C10.6 6.20001 12.2 6.60001 13.8 7.10001C15.8 7.80001 17.5 8.80001 18.9 9.90001C20 10.8 20.7 11.7 21 12.7L21.1 12.8C21.4 13.7 21.5 14.5 21.3 15.3C21.1 16.1 20.6 16.8 19.9 17.3L20.3 17.1C20.4 17 20.6 16.9 20.7 16.8L20.9 16.6C21.5 15.9 22 15.1 22.3 13.9C22.6 12.7 22.7 11.5 22.5 10.3Z" fill="#A2A2A2"/>
</g>
<defs>
<clipPath id="clip0">
</clipPath>
</defs>
</svg>
