<svg width="54" height="77" viewBox="0 0 54 77" fill="none" xmlns="http://www.w3.org/2000/svg">
<path d="M19.7011 8.55546C20.0571 8.55546 20.2945 8.3178 20.2945 7.96132C20.2945 7.60484 20.0571 7.36719 19.7011 7.36719C19.3451 7.36719 19.1077 7.60484 19.1077 7.96132C19.1077 8.3178 19.4637 8.55546 19.7011 8.55546Z" fill="#5B7C91"/>
<path d="M21.3626 8.43681C21.7187 8.43681 21.956 8.19915 21.956 7.84267C21.956 7.48619 21.7187 7.24854 21.3626 7.24854C21.0066 7.24854 20.7692 7.48619 20.7692 7.84267C20.7692 8.08033 21.0066 8.43681 21.3626 8.43681Z" fill="#5B7C91"/>
<path d="M22.7868 8.79325C23.1428 8.79325 23.3802 8.5556 23.3802 8.19912C23.3802 7.84263 23.1428 7.60498 22.7868 7.60498C22.4308 7.60498 22.1934 7.84263 22.1934 8.19912C22.1934 8.5556 22.5494 8.79325 22.7868 8.79325Z" fill="#5B7C91"/>
<path d="M24.211 9.26859C24.567 9.26859 24.8044 9.03094 24.8044 8.67446C24.8044 8.31798 24.567 8.08032 24.211 8.08032C23.8549 8.08032 23.6176 8.31798 23.6176 8.67446C23.6176 9.03094 23.9736 9.26859 24.211 9.26859Z" fill="#5B7C91"/>
<path d="M18.5143 9.26859C18.8703 9.26859 19.1077 9.03094 19.1077 8.67446C19.1077 8.31798 18.8703 8.08032 18.5143 8.08032C18.1582 8.08032 17.9209 8.31798 17.9209 8.67446C17.9209 8.91211 18.1582 9.26859 18.5143 9.26859Z" fill="#5B7C91"/>
<path d="M17.4462 10.3379C17.8022 10.3379 18.0396 10.1003 18.0396 9.74379C18.0396 9.38731 17.8022 9.14966 17.4462 9.14966C17.0901 9.14966 16.8528 9.38731 16.8528 9.74379C16.8528 9.98145 17.0901 10.3379 17.4462 10.3379Z" fill="#5B7C91"/>
<path d="M16.8527 11.6451C17.2088 11.6451 17.4461 11.4074 17.4461 11.0509C17.4461 10.6944 17.2088 10.4568 16.8527 10.4568C16.4967 10.4568 16.2593 10.6944 16.2593 11.0509C16.2593 11.4074 16.6154 11.6451 16.8527 11.6451Z" fill="#5B7C91"/>
<path d="M16.8527 13.0711C17.2088 13.0711 17.4461 12.8334 17.4461 12.4769C17.4461 12.1205 17.2088 11.8828 16.8527 11.8828C16.4967 11.8828 16.2593 12.1205 16.2593 12.4769C16.2593 12.8334 16.4967 13.0711 16.8527 13.0711Z" fill="#5B7C91"/>
<path d="M17.2088 14.4969C17.5648 14.4969 17.8022 14.2592 17.8022 13.9027C17.8022 13.5462 17.5648 13.3086 17.2088 13.3086C16.8528 13.3086 16.6154 13.5462 16.6154 13.9027C16.6154 14.2592 16.8528 14.4969 17.2088 14.4969Z" fill="#5B7C91"/>
<path d="M18.0395 13.9027C17.2088 12.1203 17.5648 10.8132 18.0395 10.1003C18.7516 9.03083 19.9385 8.43669 20.7692 8.55552C21.7187 8.55552 22.3121 8.79318 22.9055 9.03083C23.4989 9.26848 24.0923 9.50614 25.1604 9.62497V9.98145C24.0923 9.86262 23.3802 9.62497 22.7868 9.38731C22.1934 9.14966 21.7187 8.912 20.7692 8.912C20.0571 8.912 18.8703 9.38731 18.2769 10.3379C17.8022 11.0509 17.4461 12.1203 18.2769 13.7839L18.0395 13.9027Z" fill="#5B7C91"/>
<path d="M32.756 8.55546C32.4 8.55546 32.1626 8.3178 32.1626 7.96132C32.1626 7.60484 32.4 7.36719 32.756 7.36719C33.1121 7.36719 33.3494 7.60484 33.3494 7.96132C33.3494 8.3178 33.1121 8.55546 32.756 8.55546Z" fill="#5B7C91"/>
<path d="M31.2132 8.43681C30.8571 8.43681 30.6198 8.19915 30.6198 7.84267C30.6198 7.48619 30.8571 7.24854 31.2132 7.24854C31.5692 7.24854 31.8066 7.48619 31.8066 7.84267C31.8066 8.08033 31.5692 8.43681 31.2132 8.43681Z" fill="#5B7C91"/>
<path d="M29.6703 8.79325C29.3143 8.79325 29.0769 8.5556 29.0769 8.19912C29.0769 7.84263 29.3143 7.60498 29.6703 7.60498C30.0264 7.60498 30.2637 7.84263 30.2637 8.19912C30.2637 8.5556 30.0264 8.79325 29.6703 8.79325Z" fill="#5B7C91"/>
<path d="M28.2461 9.26859C27.8901 9.26859 27.6527 9.03094 27.6527 8.67446C27.6527 8.31798 27.8901 8.08032 28.2461 8.08032C28.6022 8.08032 28.8396 8.31798 28.8396 8.67446C28.8396 9.03094 28.6022 9.26859 28.2461 9.26859Z" fill="#5B7C91"/>
<path d="M34.0615 9.26859C33.7055 9.26859 33.4681 9.03094 33.4681 8.67446C33.4681 8.31798 33.7055 8.08032 34.0615 8.08032C34.4176 8.08032 34.6549 8.31798 34.6549 8.67446C34.6549 8.91211 34.4176 9.26859 34.0615 9.26859Z" fill="#5B7C91"/>
<path d="M35.1297 10.3379C34.7736 10.3379 34.5363 10.1003 34.5363 9.74379C34.5363 9.38731 34.7736 9.14966 35.1297 9.14966C35.4857 9.14966 35.7231 9.38731 35.7231 9.74379C35.7231 9.98145 35.4857 10.3379 35.1297 10.3379Z" fill="#5B7C91"/>
<path d="M35.6044 11.6451C35.2483 11.6451 35.011 11.4074 35.011 11.0509C35.011 10.6944 35.2483 10.4568 35.6044 10.4568C35.9604 10.4568 36.1978 10.6944 36.1978 11.0509C36.1978 11.4074 35.9604 11.6451 35.6044 11.6451Z" fill="#5B7C91"/>
<path d="M35.7231 13.0711C35.367 13.0711 35.1297 12.8334 35.1297 12.4769C35.1297 12.1205 35.367 11.8828 35.7231 11.8828C36.0791 11.8828 36.3165 12.1205 36.3165 12.4769C36.3165 12.8334 36.0791 13.0711 35.7231 13.0711Z" fill="#5B7C91"/>
<path d="M35.2483 14.4969C34.8923 14.4969 34.6549 14.2592 34.6549 13.9027C34.6549 13.5462 34.8923 13.3086 35.2483 13.3086C35.6044 13.3086 35.8418 13.5462 35.8418 13.9027C35.8418 14.2592 35.6044 14.4969 35.2483 14.4969Z" fill="#5B7C91"/>
<path d="M34.4176 13.9029L34.1802 13.7841C35.011 12.1205 34.6549 10.9322 34.1802 10.3381C33.5868 9.38745 32.5187 8.91215 31.6879 8.91215C30.7385 8.91215 30.2637 9.1498 29.6703 9.38745C29.0769 9.62511 28.3648 9.86276 27.2967 9.98159V9.62511C28.3648 9.50628 28.9582 9.26863 29.5516 9.03097C30.145 8.79332 30.7385 8.55566 31.6879 8.55566C32.5187 8.55566 33.7055 9.03097 34.4176 10.1004C34.8923 10.8134 35.367 12.1205 34.4176 13.9029Z" fill="#5B7C91"/>
<path d="M35.367 14.9722L34.655 13.6651L34.1802 13.1898C33.9429 13.6651 33.8242 13.784 33.8242 13.784C34.5363 14.7346 34.0615 15.9229 34.0615 15.9229C33.4681 15.6852 33.8242 14.2593 33.8242 14.2593H33.7055L32.4 17.7053L32.6374 17.8241C33.3495 16.6358 33.9429 16.8735 33.9429 16.8735C33.2308 18.2994 32.044 17.8241 32.044 17.8241C30.9758 17.3488 31.0945 16.517 31.0945 16.2793C31.0945 16.1605 31.3319 15.804 31.5692 15.804C31.9253 15.9229 31.9253 16.1605 31.5692 16.3982C31.5692 16.3982 32.5187 16.7547 32.7561 15.9229C32.9934 15.0911 32.1626 14.7346 31.5692 14.8534C31.5692 14.8534 32.044 13.5463 31.4506 12.8334C30.6198 13.1898 30.3824 14.6158 30.3824 14.6158C30.0264 14.2593 28.9582 14.2593 28.8396 14.9722C28.7209 15.804 29.6703 16.0417 29.6703 16.0417C29.5517 15.6852 29.6703 15.4476 30.0264 15.4476C30.3824 15.5664 30.2637 15.9229 30.2637 16.0417C30.2637 16.1605 29.789 17.3488 28.6022 17.3488C27.0593 17.23 26.9407 15.804 26.9407 15.804C28.2462 15.804 28.4835 17.1111 28.4835 17.1111H28.8396V13.4275H28.4835C28.4835 13.4275 28.1275 14.7346 27.0593 14.7346C27.178 13.3087 28.3648 13.1898 28.3648 13.1898V12.8334H27.7714V8.79323H27.2967C27.5341 8.67441 28.1275 8.31792 28.1275 7.48613C28.1275 6.65434 27.6528 6.29786 27.2967 6.06021C26.9407 5.70373 26.9407 4.87194 26.9407 4.87194C26.9407 4.87194 27.5341 4.99076 27.8901 5.22842V3.68367C27.4154 4.04015 26.9407 4.04015 26.9407 4.04015C26.9407 3.44601 27.4154 2.9707 27.4154 2.9707H26.7033H25.9912C25.9912 2.9707 26.4659 3.32718 26.4659 4.04015C26.4659 4.04015 25.9912 4.04015 25.5165 3.68367V5.10959C25.3978 4.87194 25.9912 4.75311 25.9912 4.75311C25.9912 4.75311 25.9912 5.5849 25.6352 5.94138C25.3978 6.17904 24.8044 6.53552 24.8044 7.36731C24.8044 8.1991 25.3978 8.67441 25.6352 8.67441H25.1604V12.7145H24.567V13.071C24.567 13.071 25.7539 13.1898 25.8725 14.6158C24.8044 14.6158 24.4484 13.3087 24.4484 13.3087H24.0923V16.9923H24.4484C24.4484 16.9923 24.6857 15.6852 25.9912 15.6852C25.9912 15.6852 25.8725 17.23 24.3297 17.23C23.1429 17.23 22.6681 16.1605 22.6681 15.9229C22.6681 15.804 22.5495 15.3287 22.9055 15.3287C23.2615 15.2099 23.3802 15.5664 23.1429 15.9229C23.1429 15.9229 24.211 15.6852 23.9736 14.8534C23.855 14.0216 22.7868 14.0216 22.4308 14.4969C22.4308 14.4969 22.1934 13.071 21.3626 12.7145C20.7692 13.4275 21.244 14.7346 21.244 14.7346C20.7692 14.6158 19.8198 14.9722 20.0572 15.804C20.2945 16.6358 21.244 16.2793 21.244 16.2793C20.8879 16.0417 20.8879 15.6852 21.244 15.6852C21.6 15.5664 21.7187 15.9229 21.7187 16.1605C21.7187 16.2793 21.9561 17.23 20.7692 17.7053C20.7692 17.7053 19.5824 18.1806 18.989 16.7547C18.989 16.7547 19.5824 16.517 20.2945 17.7053L20.5319 17.5864L18.8703 14.2593H18.5143C18.5143 14.2593 18.989 15.6852 18.2769 15.9229C18.2769 15.9229 17.9209 14.7346 18.5143 13.784C18.5143 13.784 18.3956 13.6651 18.1583 13.1898L17.8022 13.6651L17.0901 14.9722L18.7517 19.1312L18.5143 19.7253L19.1077 20.0818L19.3451 20.6759C19.3451 20.6759 22.0747 19.4877 26.1099 19.4877C30.2637 19.4877 32.8747 20.6759 32.8747 20.6759L33.1121 20.0818L33.7055 19.7253L33.4681 19.1312L35.367 14.9722ZM19.4637 19.8442L18.989 19.6065L19.2264 19.1312L19.7011 19.3688L19.4637 19.8442ZM23.0242 19.1312C22.6681 19.1312 22.1934 19.25 21.9561 19.25C21.7187 19.25 21.6 19.1312 21.6 18.8935C21.6 18.6559 21.7187 18.5371 21.9561 18.5371C22.1934 18.5371 22.9055 18.4182 23.1429 18.4182C23.3802 18.4182 23.4989 18.5371 23.4989 18.7747C23.4989 18.8935 23.2615 19.1312 23.0242 19.1312ZM26.9407 12.8334L26.822 8.91206H26.9407V12.8334ZM25.6352 12.8334L25.5165 8.91206H25.6352V12.8334ZM25.0418 7.60496V7.24848C25.2791 7.12965 26.1099 7.01083 26.1099 7.01083V6.06021H26.3473H26.5846V7.01083C26.5846 7.01083 27.4154 7.12965 27.6528 7.24848V7.60496C27.6528 7.60496 26.822 7.48613 26.4659 7.48613C25.8725 7.48613 25.0418 7.60496 25.0418 7.60496ZM26.2286 11.7639C25.9912 11.7639 25.8725 11.6451 25.8725 11.4074C25.8725 11.1698 25.9912 11.0509 26.2286 11.0509C26.4659 11.0509 26.5846 11.1698 26.5846 11.4074C26.5846 11.6451 26.4659 11.7639 26.2286 11.7639ZM26.5846 12.2392C26.5846 12.4769 26.4659 12.5957 26.2286 12.5957C25.9912 12.5957 25.8725 12.4769 25.8725 12.2392C25.8725 12.0016 25.9912 11.8827 26.2286 11.8827C26.4659 11.8827 26.5846 12.1204 26.5846 12.2392ZM26.2286 10.9321C25.9912 10.9321 25.8725 10.8133 25.8725 10.5756C25.8725 10.338 25.9912 10.2192 26.2286 10.2192C26.4659 10.2192 26.5846 10.338 26.5846 10.5756C26.5846 10.8133 26.4659 10.9321 26.2286 10.9321ZM26.2286 10.1003C25.9912 10.1003 25.8725 9.9815 25.8725 9.74385C25.8725 9.5062 25.9912 9.38737 26.2286 9.38737C26.4659 9.38737 26.5846 9.5062 26.5846 9.74385C26.5846 9.86268 26.4659 10.1003 26.2286 10.1003ZM26.2286 9.26854C25.9912 9.26854 25.8725 9.14971 25.8725 8.91206C25.8725 8.67441 25.9912 8.55558 26.2286 8.55558C26.4659 8.55558 26.5846 8.67441 26.5846 8.91206C26.5846 9.03089 26.4659 9.26854 26.2286 9.26854ZM26.2286 19.25L25.6352 18.5371L26.3473 17.9429L26.9407 18.6559L26.2286 19.25ZM30.7385 19.25C30.5011 19.25 29.9077 19.1312 29.6703 19.1312C29.433 19.1312 29.3143 19.0124 29.3143 18.7747C29.3143 18.5371 29.433 18.4182 29.6703 18.4182C29.9077 18.4182 30.6198 18.5371 30.8572 18.5371C31.0945 18.5371 31.2132 18.6559 31.2132 18.8935C31.0945 19.1312 30.8571 19.25 30.7385 19.25ZM33.7055 19.7253L33.2308 19.8442L32.9934 19.3688L33.4681 19.1312L33.7055 19.7253Z" fill="#5B7C91"/>
<path d="M9.96924 52.0463C9.96924 50.858 9.96924 50.2639 9.96924 49.5509C9.96924 48.3627 9.96924 47.6497 9.96924 47.2932C10.2066 47.2932 10.5626 47.2932 10.8 47.2932C11.0374 47.2932 11.3934 47.2932 11.6308 47.2932C11.5121 48.7191 11.5121 49.7886 11.5121 51.0957C11.5121 53.7099 12.2242 54.1852 13.6484 54.1852C15.3099 54.1852 15.4286 52.284 15.4286 50.3827C15.4286 49.4321 15.4286 48.3627 15.3099 47.412C15.5473 47.412 15.6659 47.412 15.9033 47.412C16.1407 47.412 16.2593 47.412 16.4967 47.412C16.378 48.0062 16.378 49.5509 16.378 51.4522C16.378 53.9475 15.3099 55.017 13.1736 55.017C11.3934 54.8982 9.96924 54.0664 9.96924 52.0463Z" fill="#5B7C91"/>
<path d="M21.956 51.3333C21.956 52.8781 21.956 54.0664 22.0747 54.6605C21.8374 54.6605 21.6 54.6605 21.2439 54.6605C20.8879 54.6605 20.6505 54.6605 20.4132 54.6605C20.5319 53.7099 20.5319 52.8781 20.5319 51.6898V50.2639C20.5319 49.0756 20.5319 48.2438 20.4132 47.2932C20.6505 47.2932 20.8879 47.2932 21.2439 47.2932C21.6 47.2932 21.8374 47.2932 22.0747 47.2932C21.956 47.8873 21.956 49.3133 21.956 50.7392C22.9055 49.5509 24.3297 47.8873 24.6857 47.2932C24.9231 47.2932 25.0417 47.2932 25.2791 47.2932C25.5165 47.2932 25.6352 47.2932 25.8725 47.2932C25.3978 47.7685 23.6176 49.6698 23.1428 50.3827C24.0923 51.8086 25.5165 53.9475 26.1099 54.6605C25.6352 54.6605 25.3978 54.6605 25.0417 54.6605C24.6857 54.6605 24.4483 54.6605 24.0923 54.6605C23.3802 53.5911 22.6681 52.5216 21.956 51.3333Z" fill="#5B7C91"/>
<path d="M35.1297 54.7793C34.7736 54.7793 34.5363 54.7793 34.1802 54.7793C33.8242 54.7793 33.5868 54.7793 33.2308 54.7793C32.9934 54.0664 32.756 53.3534 32.5187 52.5216C32.044 52.5216 31.5692 52.5216 31.0945 52.5216C30.7385 52.5216 30.3824 52.5216 30.0264 52.5216C29.789 53.2346 29.5517 53.9475 29.3143 54.7793C29.1956 54.7793 28.9582 54.7793 28.8396 54.7793C28.7209 54.7793 28.4835 54.7793 28.2462 54.7793C28.7209 53.5911 30.3824 49.7886 31.3319 47.2932C31.4506 47.2932 31.5692 47.2932 31.6879 47.2932C31.8066 47.2932 31.9253 47.2932 32.044 47.2932C33.1121 49.6698 34.2989 52.9969 35.1297 54.7793ZM32.2813 51.9275C31.9253 51.0957 31.6879 50.2639 31.3319 49.3133C30.9758 50.1451 30.6198 50.9769 30.3824 51.9275H32.2813Z" fill="#5B7C91"/>
<path d="M41.5385 48.7191C41.3011 48.1249 40.9451 47.7685 40.233 47.7685C39.5209 47.7685 39.1648 48.2438 39.1648 48.7191C39.1648 50.2638 42.4879 49.9073 42.4879 52.4027C42.4879 53.8286 41.3011 54.7793 39.6396 54.7793C38.8088 54.7793 38.2154 54.5416 37.8593 54.3039C37.978 53.8286 38.0967 53.4722 38.2154 52.9968H38.4528C38.5714 53.591 39.0462 54.1851 39.8769 54.1851C40.7077 54.1851 41.1824 53.7098 41.1824 53.1157C41.1824 51.4521 37.978 51.9274 37.978 49.432C37.978 48.0061 39.1648 47.1743 40.3517 47.1743C41.1824 47.1743 41.6572 47.412 42.1319 47.6496C42.0132 48.0061 41.8945 48.2438 41.7758 48.7191H41.5385Z" fill="#5B7C91"/>
<path d="M18.633 59.0572C18.633 60.0078 18.0396 60.7208 17.2088 61.0772C17.8022 61.4337 18.3956 61.7902 18.7517 62.0279C18.5143 62.0279 18.2769 62.1467 17.9209 62.3843C17.4462 61.909 17.2088 61.7902 16.378 61.3149C15.1912 61.3149 14.2418 60.7208 14.2418 59.2948C14.2418 58.1066 15.0725 57.2748 16.4967 57.2748C17.6835 57.0371 18.633 57.7501 18.633 59.0572ZM16.378 57.3936C15.5473 57.3936 15.0725 58.2254 15.0725 59.176C15.0725 60.3643 15.6659 60.8396 16.2593 60.8396C16.9714 60.8396 17.5648 60.2455 17.5648 59.0572C17.6835 57.9877 17.2088 57.3936 16.378 57.3936Z" fill="#5B7C91"/>
<path d="M19.5824 60.1265C19.5824 59.5323 19.5824 59.1759 19.5824 58.8194C19.5824 58.2252 19.5824 57.8688 19.5824 57.6311C19.7011 57.6311 19.9385 57.6311 20.0572 57.6311C20.1758 57.6311 20.4132 57.6311 20.5319 57.6311C20.4132 58.3441 20.4132 58.9382 20.4132 59.6512C20.4132 61.0771 20.7692 61.3147 21.6 61.3147C22.5495 61.3147 22.5495 60.3641 22.5495 59.2947C22.5495 58.8194 22.5495 58.2252 22.5495 57.7499C22.6681 57.7499 22.7868 57.7499 22.7868 57.7499C22.9055 57.7499 23.0242 57.7499 23.0242 57.7499C23.0242 58.1064 22.9055 58.9382 22.9055 59.8888C22.9055 61.1959 22.3121 61.7901 21.244 61.7901C20.2945 61.6712 19.5824 61.1959 19.5824 60.1265Z" fill="#5B7C91"/>
<path d="M26.7033 61.0772C26.4659 61.0772 26.3473 61.0772 26.2286 61.0772C26.1099 61.0772 25.8725 61.0772 25.7538 61.0772C25.6352 60.7208 25.5165 60.2454 25.3978 59.889C25.1604 59.889 24.9231 59.889 24.6857 59.889C24.4483 59.889 24.3297 59.889 24.0923 59.889C23.9736 60.2454 23.8549 60.7208 23.7363 61.0772C23.6176 61.0772 23.4989 61.0772 23.4989 61.0772C23.3802 61.0772 23.2615 61.0772 23.2615 61.0772C23.4989 60.4831 24.4483 58.3442 24.9231 57.0371C25.0418 57.0371 25.0418 57.0371 25.1604 57.0371C25.2791 57.0371 25.2791 57.0371 25.3978 57.0371C25.5165 58.3442 26.2286 60.1266 26.7033 61.0772ZM25.1604 59.5325C25.0418 59.0572 24.8044 58.5819 24.6857 58.1066C24.4483 58.5819 24.3297 59.0572 24.0923 59.5325H25.1604Z" fill="#5B7C91"/>
<path d="M27.2967 58.7005C27.2967 58.1064 27.2967 57.6311 27.2967 57.1558C27.4154 57.1558 27.5341 57.1558 27.7714 57.1558C28.0088 57.1558 28.1275 57.1558 28.2461 57.1558C28.2461 57.6311 28.2461 58.1064 28.2461 58.7005V59.5323C28.2461 60.0076 28.2461 60.3641 28.2461 60.7206C28.7209 60.7206 29.0769 60.7206 29.5516 60.6018C29.5516 60.7206 29.5516 60.7206 29.5516 60.8394C29.5516 60.9582 29.5516 61.0771 29.5516 61.0771C29.3143 61.0771 29.0769 61.0771 28.4835 61.0771C27.5341 61.0771 27.4154 61.0771 27.2967 61.0771C27.2967 60.6018 27.2967 60.1264 27.2967 59.5323V58.7005Z" fill="#5B7C91"/>
<path d="M30.1451 58.7005C30.1451 58.1064 30.1451 57.6311 30.1451 57.1558C30.2637 57.1558 30.3824 57.1558 30.6198 57.1558C30.8571 57.1558 30.9758 57.1558 31.0945 57.1558C31.0945 57.6311 31.0945 58.1064 31.0945 58.7005V59.5323C31.0945 60.1264 31.0945 60.6018 31.0945 61.0771C30.9758 61.0771 30.8571 61.0771 30.6198 61.0771C30.3824 61.0771 30.2637 61.0771 30.1451 61.0771C30.1451 60.6018 30.1451 60.1264 30.1451 59.5323V58.7005Z" fill="#5B7C91"/>
<path d="M32.7561 58.1064C32.7561 57.8688 32.7561 57.6311 32.7561 57.6311C32.5187 57.6311 32.044 57.6311 31.6879 57.75C31.6879 57.6311 31.6879 57.6311 31.6879 57.5123C31.6879 57.3935 31.6879 57.3935 31.6879 57.2747C32.1627 57.2747 32.5187 57.2747 33.2308 57.2747C33.9429 57.2747 34.1802 57.2747 34.655 57.2747C34.655 57.3935 34.655 57.3935 34.655 57.5123C34.655 57.6311 34.655 57.6311 34.655 57.75C34.2989 57.75 33.8242 57.6311 33.5868 57.6311C33.5868 57.75 33.5868 57.8688 33.5868 58.1064V59.5324C33.5868 60.1265 33.5868 60.6018 33.5868 61.0771C33.4681 61.0771 33.3495 61.0771 33.1121 61.0771C32.8747 61.0771 32.7561 61.0771 32.6374 61.0771C32.6374 60.6018 32.6374 60.1265 32.6374 59.5324V58.1064H32.7561Z" fill="#5B7C91"/>
<path d="M36.7912 58.8195C37.1472 58.3442 37.3846 57.6312 37.622 57.0371C37.7407 57.0371 37.7407 57.0371 37.8593 57.0371C37.978 57.0371 38.0967 57.0371 38.0967 57.0371C37.8593 57.5124 37.2659 58.5819 36.9099 59.2948C36.9099 59.5325 36.9099 59.6513 36.9099 59.889C36.9099 60.2454 36.9099 60.7208 36.9099 61.0772C36.7912 61.0772 36.5538 61.0772 36.4352 61.0772C36.3165 61.0772 36.0791 61.0772 35.9604 61.0772C35.9604 60.7208 36.0791 60.3643 36.0791 60.0078C36.0791 59.7701 36.0791 59.6513 36.0791 59.4137C35.7231 58.7007 35.011 57.3936 34.8923 57.0371C35.011 57.0371 35.2483 57.0371 35.367 57.0371C35.4857 57.0371 35.7231 57.0371 35.8418 57.0371C36.1978 57.6312 36.6725 58.5819 36.7912 58.8195Z" fill="#5B7C91"/>
<path d="M15.0725 66.4244C14.8352 66.4244 14.7165 66.4244 14.5978 66.4244C14.4791 66.4244 14.2418 66.4244 14.1231 66.4244C14.0044 66.0679 13.8857 65.5926 13.767 65.2361C13.5297 65.2361 13.2923 65.2361 13.0549 65.2361C12.8176 65.2361 12.6989 65.2361 12.4615 65.2361C12.3429 65.5926 12.2242 66.0679 12.1055 66.4244C11.9868 66.4244 11.8681 66.4244 11.8681 66.4244C11.7494 66.4244 11.6308 66.4244 11.6308 66.4244C11.8681 65.8303 12.8176 63.6914 13.2923 62.3843C13.411 62.3843 13.411 62.3843 13.5297 62.3843C13.6484 62.3843 13.6484 62.3843 13.767 62.3843C13.8857 63.8102 14.5978 65.5926 15.0725 66.4244ZM13.5297 64.9985C13.411 64.5232 13.1736 64.0479 13.0549 63.5725C12.8176 64.0479 12.6989 64.5232 12.4615 64.9985H13.5297Z" fill="#5B7C91"/>
<path d="M15.6659 62.5032C15.7846 62.5032 15.7846 62.5032 15.9033 62.5032C16.022 62.5032 16.022 62.5032 16.1406 62.5032C16.9714 63.4538 17.8022 64.2856 18.633 65.2362C18.633 64.2856 18.633 62.7408 18.633 62.5032C18.7516 62.5032 18.7516 62.5032 18.8703 62.5032C18.989 62.5032 18.989 62.5032 19.1077 62.5032C18.989 64.1668 18.989 64.9985 18.989 66.5433C18.8703 66.5433 18.8703 66.5433 18.7516 66.5433C18.633 66.5433 18.633 66.5433 18.5143 66.5433C17.6835 65.5927 16.8527 64.6421 16.022 63.6914C16.022 64.1668 16.022 64.6421 16.022 64.9986C16.022 65.9492 16.022 66.3057 16.022 66.4245C15.9033 66.4245 15.7846 66.4245 15.7846 66.4245C15.6659 66.4245 15.5472 66.4245 15.5472 66.4245C15.5472 66.3057 15.6659 64.7609 15.6659 63.5726C15.6659 63.0973 15.6659 62.7408 15.6659 62.5032Z" fill="#5B7C91"/>
<path d="M23.2616 66.4244C23.0242 66.4244 22.9055 66.4244 22.7868 66.4244C22.6681 66.4244 22.4308 66.4244 22.3121 66.4244C22.1934 66.0679 22.0747 65.5926 21.9561 65.2361C21.7187 65.2361 21.4813 65.2361 21.244 65.2361C21.0066 65.2361 20.8879 65.2361 20.6506 65.2361C20.5319 65.5926 20.4132 66.0679 20.2945 66.4244C20.1758 66.4244 20.0572 66.4244 20.0572 66.4244C19.9385 66.4244 19.8198 66.4244 19.8198 66.4244C20.0572 65.8303 21.0066 63.6914 21.4813 62.3843C21.6 62.3843 21.6 62.3843 21.7187 62.3843C21.8374 62.3843 21.8374 62.3843 21.9561 62.3843C22.1934 63.8102 22.9055 65.5926 23.2616 66.4244ZM21.7187 64.9985C21.6 64.5232 21.3626 64.0479 21.244 63.5725C21.0066 64.0479 20.8879 64.5232 20.6506 64.9985H21.7187Z" fill="#5B7C91"/>
<path d="M26.9407 63.3349C26.7033 62.9784 26.3473 62.7408 25.7538 62.7408C25.0418 62.7408 24.3297 63.3349 24.3297 64.5232C24.3297 65.4738 24.8044 66.1868 25.7538 66.1868C25.9912 66.1868 26.3473 66.1867 26.3473 66.0679C26.3473 65.9491 26.3473 65.8303 26.3473 65.7114C26.3473 65.1173 26.3473 64.8797 26.3473 64.7608C26.4659 64.7608 26.5846 64.7608 26.822 64.7608C27.0593 64.7608 27.178 64.7608 27.2967 64.7608C27.2967 64.8797 27.2967 65.355 27.2967 65.7114C27.2967 65.9491 27.2967 66.3056 27.2967 66.3056C26.7033 66.4244 26.1099 66.5432 25.6352 66.5432C24.3297 66.5432 23.3802 65.8303 23.3802 64.642C23.3802 63.2161 24.4484 62.3843 25.7538 62.3843C26.3473 62.3843 26.7033 62.5031 27.178 62.7408C27.0593 62.9784 27.0593 63.0972 26.9407 63.3349Z" fill="#5B7C91"/>
<path d="M28.0088 64.0479C28.0088 63.4538 28.0088 62.9785 28.0088 62.5032C28.3648 62.5032 28.7209 62.5032 29.0769 62.5032C29.6703 62.5032 30.1451 62.5032 30.2637 62.5032C30.2637 62.622 30.2637 62.622 30.2637 62.7408C30.2637 62.8597 30.2637 62.8597 30.2637 62.9785C29.789 62.9785 29.0769 62.8597 28.9582 62.8597C28.9582 63.335 28.9582 63.6914 28.9582 64.1668C29.433 64.1668 29.789 64.1668 30.2637 64.1668C30.2637 64.2856 30.2637 64.4044 30.2637 64.4044C30.2637 64.5232 30.2637 64.5232 30.2637 64.6421C29.789 64.6421 29.433 64.6421 28.9582 64.6421C28.9582 64.8797 28.9582 65.1174 28.9582 65.355C28.9582 65.5927 28.9582 65.8303 28.9582 66.068C29.433 66.068 29.789 66.068 30.2637 65.9492C30.2637 66.068 30.2637 66.068 30.2637 66.1868C30.2637 66.3056 30.2637 66.4245 30.2637 66.4245C30.0264 66.4245 29.789 66.4245 29.1956 66.4245C28.2462 66.4245 28.1275 66.4245 28.0088 66.4245C28.0088 65.9492 28.0088 65.4739 28.0088 64.8797V64.0479Z" fill="#5B7C91"/>
<path d="M31.4506 63.8102C31.3319 64.642 31.3319 65.5926 31.2132 66.4244C31.0945 66.4244 30.9758 66.4244 30.9758 66.4244C30.8571 66.4244 30.7385 66.4244 30.7385 66.4244C30.9758 65.1173 31.2132 63.8102 31.3319 62.3843C31.4506 62.3843 31.4506 62.3843 31.5692 62.3843C31.6879 62.3843 31.6879 62.3843 31.8066 62.3843C32.2813 63.3349 32.756 64.2855 33.1121 65.1173C33.5868 64.2855 34.0615 63.2161 34.4176 62.3843C34.5363 62.3843 34.5363 62.3843 34.6549 62.3843C34.7736 62.3843 34.7736 62.3843 34.8923 62.3843C35.011 63.6914 35.2483 65.5926 35.367 66.4244C35.2483 66.4244 35.011 66.4244 34.8923 66.4244C34.7736 66.4244 34.5363 66.4244 34.4176 66.4244C34.4176 65.5926 34.2989 64.642 34.1802 63.6914C33.7055 64.642 33.3495 65.4738 32.8747 66.4244H32.756H32.6374C32.2813 65.5926 31.9253 64.7608 31.4506 63.8102Z" fill="#5B7C91"/>
<path d="M36.0791 64.0479C36.0791 63.4538 36.0791 62.9785 36.0791 62.5032C36.4352 62.5032 36.7912 62.5032 37.1473 62.5032C37.7407 62.5032 38.2154 62.5032 38.3341 62.5032C38.3341 62.622 38.3341 62.622 38.3341 62.7408C38.3341 62.8597 38.3341 62.8597 38.3341 62.9785C37.8593 62.9785 37.1473 62.8597 37.0286 62.8597C37.0286 63.335 37.0286 63.6914 37.0286 64.1668C37.5033 64.1668 37.8593 64.1668 38.3341 64.1668C38.3341 64.2856 38.3341 64.4044 38.3341 64.4044C38.3341 64.5232 38.3341 64.5232 38.3341 64.6421C37.8593 64.6421 37.5033 64.6421 37.0286 64.6421C37.0286 64.8797 37.0286 65.1174 37.0286 65.355C37.0286 65.5927 37.0286 65.8303 37.0286 66.068C37.5033 66.068 37.8593 66.068 38.3341 65.9492C38.3341 66.068 38.3341 66.068 38.3341 66.1868C38.3341 66.3056 38.3341 66.4245 38.3341 66.4245C38.0967 66.4245 37.8593 66.4245 37.2659 66.4245C36.3165 66.4245 36.1978 66.4245 36.0791 66.4245C36.0791 65.9492 36.0791 65.4739 36.0791 64.8797V64.0479Z" fill="#5B7C91"/>
<path d="M39.0461 62.5032C39.1648 62.5032 39.1648 62.5032 39.2835 62.5032C39.4022 62.5032 39.4022 62.5032 39.5209 62.5032C40.3516 63.4538 41.1824 64.2856 42.0132 65.2362C42.0132 64.2856 42.0132 62.7408 42.0132 62.5032C42.1319 62.5032 42.1319 62.5032 42.2505 62.5032C42.3692 62.5032 42.3692 62.5032 42.4879 62.5032C42.3692 64.1668 42.3692 64.9985 42.3692 66.5433C42.2505 66.5433 42.2505 66.5433 42.1319 66.5433C42.0132 66.5433 42.0132 66.5433 41.8945 66.5433C41.0637 65.5927 40.233 64.6421 39.4022 63.6914C39.4022 64.1668 39.4022 64.6421 39.4022 64.9986C39.4022 65.9492 39.4022 66.3057 39.4022 66.4245C39.2835 66.4245 39.1648 66.4245 39.1648 66.4245C39.0461 66.4245 38.9275 66.4245 38.9275 66.4245C38.9275 66.3057 39.0461 64.7609 39.0461 63.5726C39.0461 63.0973 39.0461 62.7408 39.0461 62.5032Z" fill="#5B7C91"/>
<path d="M44.1495 63.4536C44.1495 63.216 44.1495 62.9783 44.1495 62.9783C43.9121 62.9783 43.4374 62.9783 43.0813 63.0971C43.0813 62.9783 43.0813 62.9783 43.0813 62.8595C43.0813 62.7407 43.0813 62.7407 43.0813 62.6218C43.5561 62.6218 43.9121 62.6218 44.6242 62.6218C45.3363 62.6218 45.5736 62.6218 46.0484 62.6218C46.0484 62.7407 46.0484 62.7407 46.0484 62.8595C46.0484 62.9783 46.0484 62.9783 46.0484 63.0971C45.811 62.9783 45.3363 62.9783 45.0989 62.9783C45.0989 63.0971 45.0989 63.216 45.0989 63.4536V64.8795C45.0989 65.4737 45.0989 65.949 45.0989 66.4243C44.9802 66.4243 44.8615 66.4243 44.6242 66.4243C44.3868 66.4243 44.2681 66.4243 44.1495 66.4243C44.1495 65.949 44.1495 65.4737 44.1495 64.8795V63.4536Z" fill="#5B7C91"/>
<path d="M17.2088 25.5479V36.3612L24.8044 44.9167L39.7583 22.5772L39.6396 14.3782L24.8044 35.5294L17.2088 25.5479Z" fill="#5B7C91"/>
<path d="M25.2791 74.98C25.2791 76.2871 24.8044 77.0001 23.9736 77.0001C23.2615 77.0001 22.6681 76.2871 22.6681 74.98C22.6681 73.6729 23.2615 72.96 23.9736 72.96C24.9231 73.0788 25.2791 73.7917 25.2791 74.98ZM23.2615 75.0989C23.2615 76.0495 23.6176 76.6436 24.0923 76.6436C24.567 76.6436 24.9231 76.0495 24.9231 74.98C24.9231 74.0294 24.6857 73.4353 24.0923 73.4353C23.6176 73.4353 23.2615 74.0294 23.2615 75.0989Z" fill="#5B7C91"/>
<path d="M26.9407 73.5542L26.2286 73.9106L26.1099 73.5542L26.9407 73.0789H27.4154V76.8813H26.9407V73.5542Z" fill="#5B7C91"/>
<path d="M30.5011 77.0002V75.9307H28.7209V75.5742L30.3824 73.0789H30.9758V75.4554H31.5692V75.8119H30.9758V76.8813H30.5011V77.0002ZM30.5011 75.4554V74.1483C30.5011 73.9106 30.5011 73.7918 30.5011 73.5542C30.3824 73.7918 30.2637 73.9106 30.145 74.1483L29.1956 75.4554H30.5011Z" fill="#5B7C91"/>
<path d="M7.35824 63.8102C7.23956 64.642 7.23956 65.5926 7.12087 66.4244C7.00219 66.4244 6.88351 66.4244 6.88351 66.4244C6.76483 66.4244 6.64615 66.4244 6.64615 66.4244C6.88351 65.1173 7.12087 63.8102 7.23956 62.3843C7.35824 62.3843 7.35824 62.3843 7.47692 62.3843C7.5956 62.3843 7.5956 62.3843 7.71428 62.3843C8.18901 63.3349 8.66373 64.2855 9.01978 65.1173C9.4945 64.2855 9.96923 63.2161 10.3253 62.3843C10.444 62.3843 10.444 62.3843 10.5626 62.3843C10.6813 62.3843 10.6813 62.3843 10.8 62.3843C10.9187 63.6914 11.156 65.5926 11.2747 66.4244C11.156 66.4244 10.9187 66.4244 10.8 66.4244C10.6813 66.4244 10.444 66.4244 10.3253 66.4244C10.3253 65.5926 10.2066 64.642 10.0879 63.6914C9.61318 64.642 9.25714 65.4738 8.78241 66.4244H8.66373H8.54505C8.18901 65.5926 7.83296 64.7608 7.35824 63.8102Z" fill="#5B7C91"/>
<path d="M53.4066 0.594136V69.3951H0.593407V0.594136H53.4066ZM54 0H0V69.8704H54V0Z" fill="#5B7C91"/>
</svg>
