<svg xmlns="http://www.w3.org/2000/svg" viewBox="0 0 45.47 64.83"><defs><style>.cls-1{fill:#fff;}</style></defs><title>UKAS</title><g id="Слой_2" data-name="Слой 2"><g id="Layer_1" data-name="Layer 1"><path class="cls-1" d="M16.64,7.2a.51.51,0,0,0,0-1,.51.51,0,1,0,0,1Z"/><path class="cls-1" d="M18,7.07a.51.51,0,1,0,0-1,.51.51,0,0,0,0,1Z"/><path class="cls-1" d="M19.23,7.44a.5.5,0,0,0,.51-.5.51.51,0,1,0-1,0A.5.5,0,0,0,19.23,7.44Z"/><path class="cls-1" d="M20.44,7.84a.51.51,0,0,0,0-1,.51.51,0,0,0,0,1Z"/><path class="cls-1" d="M15.56,7.76a.51.51,0,1,0-.51-.51A.51.51,0,0,0,15.56,7.76Z"/><path class="cls-1" d="M14.68,8.67a.5.5,0,0,0,.51-.5.51.51,0,0,0-.51-.51.5.5,0,0,0-.5.51A.5.5,0,0,0,14.68,8.67Z"/><path class="cls-1" d="M14.23,9.79a.51.51,0,0,0,0-1,.51.51,0,0,0,0,1Z"/><path class="cls-1" d="M14.18,11a.51.51,0,1,0-.51-.51A.5.5,0,0,0,14.18,11Z"/><path class="cls-1" d="M14.53,12.23a.51.51,0,1,0-.51-.51A.51.51,0,0,0,14.53,12.23Z"/><path class="cls-1" d="M15.23,11.68a3.1,3.1,0,0,1,0-3.2,2.94,2.94,0,0,1,2.31-1.33,4.64,4.64,0,0,1,1.79.44,5.73,5.73,0,0,0,1.91.5l0,.27a5.81,5.81,0,0,1-2-.52,4.5,4.5,0,0,0-1.7-.42,2.67,2.67,0,0,0-2.07,1.21,2.82,2.82,0,0,0,0,2.93Z"/><path class="cls-1" d="M27.63,7.2a.51.51,0,1,1,.51-.51A.51.51,0,0,1,27.63,7.2Z"/><path class="cls-1" d="M26.28,7.07a.51.51,0,1,1,.51-.5A.5.5,0,0,1,26.28,7.07Z"/><path class="cls-1" d="M25,7.44a.5.5,0,0,1-.51-.5.51.51,0,1,1,1,0A.5.5,0,0,1,25,7.44Z"/><path class="cls-1" d="M23.82,7.84a.51.51,0,1,1,.51-.51A.51.51,0,0,1,23.82,7.84Z"/><path class="cls-1" d="M28.7,7.76a.51.51,0,1,1,.51-.51A.51.51,0,0,1,28.7,7.76Z"/><path class="cls-1" d="M29.58,8.67a.5.5,0,0,1-.51-.5.51.51,0,1,1,1,0A.5.5,0,0,1,29.58,8.67Z"/><path class="cls-1" d="M30,9.79a.51.51,0,1,1,.51-.51A.51.51,0,0,1,30,9.79Z"/><path class="cls-1" d="M30.09,11a.51.51,0,1,1,.51-.51A.51.51,0,0,1,30.09,11Z"/><path class="cls-1" d="M29.74,12.23a.51.51,0,1,1,0-1,.51.51,0,0,1,0,1Z"/><path class="cls-1" d="M29,11.68l-.25-.12a2.82,2.82,0,0,0,0-2.93,2.66,2.66,0,0,0-2.07-1.21A4.4,4.4,0,0,0,25,7.84a5.94,5.94,0,0,1-2,.52l0-.27a5.66,5.66,0,0,0,1.9-.5,4.64,4.64,0,0,1,1.79-.44A2.93,2.93,0,0,1,29,8.48,3.09,3.09,0,0,1,29,11.68Z"/><path class="cls-1" d="M29.81,12.58l-.58-1.09,0,0-.43-.35a1.78,1.78,0,0,1-.26.55,2.21,2.21,0,0,1,.22,1.79c-.52-.24-.16-1.41-.16-1.41L28.41,12l-1.15,2.88.2.06c.58-1,1.05-.75,1.05-.75C28,15.43,27,15,27,15a1.06,1.06,0,0,1-.77-1.25c0-.14.17-.43.44-.38s.3.31,0,.53c0,0,.8.28,1-.38s-.54-1-1-.92c0,0,.39-1.15-.09-1.74h0c-.7.3-.89,1.51-.89,1.51a.77.77,0,0,0-1.3.34c-.14.68.74.86.74.86-.19-.34-.07-.58.19-.53s.21.41.17.54A1.52,1.52,0,0,1,24,14.63a1.45,1.45,0,0,1-1.42-1.34,1.32,1.32,0,0,1,1.26,1.09h.26V11.32h-.31s-.29,1.1-1.23,1.06a1.38,1.38,0,0,1,1.1-1.31v-.29h-.53V7.36l-.42,0a1.2,1.2,0,0,0,.68-1.13A1.44,1.44,0,0,0,22.74,5a1.69,1.69,0,0,1-.33-1,1.77,1.77,0,0,1,.76.3V3.09a1.31,1.31,0,0,1-.78.31,1.22,1.22,0,0,1,.38-.86H21.5a1.24,1.24,0,0,1,.37.86,1.27,1.27,0,0,1-.77-.31V4.31a1.71,1.71,0,0,1,.75-.3s0,.73-.32,1a1.42,1.42,0,0,0-.68,1.18,1.19,1.19,0,0,0,.68,1.13l-.42,0v3.42h-.54v.29a1.37,1.37,0,0,1,1.1,1.31c-.93,0-1.23-1.06-1.23-1.06h-.31v3.06h.27a1.31,1.31,0,0,1,1.25-1.09,1.44,1.44,0,0,1-1.41,1.34,1.5,1.5,0,0,1-1.42-1.07c-.05-.13-.09-.48.16-.54s.39.19.2.53c0,0,.87-.18.74-.86a.78.78,0,0,0-1.31-.34s-.19-1.21-.89-1.51h0c-.48.59-.09,1.74-.09,1.74-.44-.12-1.19.24-1,.92s1,.38,1,.38c-.33-.22-.28-.47,0-.53s.41.24.43.38A1.06,1.06,0,0,1,17.29,15s-1,.44-1.53-.85c0,0,.46-.21,1,.75l.19-.06L15.85,12l-.21.08s.36,1.17-.15,1.41a2.17,2.17,0,0,1,.22-1.79,1.89,1.89,0,0,1-.27-.55l-.43.35,0,0-.58,1.09,1.4,3.53-.23.55.55.26.21.52a15,15,0,0,1,5.75-1,14.91,14.91,0,0,1,5.75,1l.22-.52.54-.26-.23-.55ZM16.35,16.74l-.43-.19.18-.43.44.18Zm3.08-.66c-.25,0-.74.08-.93.12a.29.29,0,0,1-.32-.3c0-.16.12-.26.3-.3a7.26,7.26,0,0,1,1-.12.3.3,0,0,1,.3.3C19.76,16,19.64,16.07,19.43,16.08Zm3.31-5.29h-.08V7.45h.08Zm-1.18,0h-.08V7.45h.08Zm-.47-4.38V6.1A4.07,4.07,0,0,1,22,5.94v-.8h.34v.8a4.24,4.24,0,0,1,.88.16v.31s-.69-.1-1-.11S21.09,6.41,21.09,6.41Zm1,3.5a.3.3,0,1,1,.29-.3A.29.29,0,0,1,22.13,9.91Zm.29.42a.29.29,0,1,1-.29-.29A.29.29,0,0,1,22.42,10.33Zm-.29-1.14a.29.29,0,0,1-.29-.29.29.29,0,1,1,.58,0A.29.29,0,0,1,22.13,9.19Zm0-.71a.3.3,0,0,1-.29-.3.29.29,0,1,1,.58,0A.3.3,0,0,1,22.13,8.48Zm0-.72a.3.3,0,1,1,.29-.29A.29.29,0,0,1,22.13,7.76Zm0,8.41-.55-.55.55-.55.55.55Zm3.71,0c-.19,0-.67-.1-.93-.12a.29.29,0,0,1-.32-.3.3.3,0,0,1,.3-.3,7.66,7.66,0,0,1,1,.12c.18,0,.3.14.3.3A.3.3,0,0,1,25.85,16.2Zm2.58.35-.43.19-.18-.44.43-.18Z"/><path class="cls-1" d="M8.35,43.79c0-1,0-1.46,0-2.11,0-1,0-1.57,0-1.87a6.3,6.3,0,0,0,.75,0,6.27,6.27,0,0,0,.74,0A29.28,29.28,0,0,0,9.69,43c0,2.21.64,2.57,1.81,2.57,1.45,0,1.55-1.57,1.55-3.25,0-.83,0-1.65-.07-2.49a2.4,2.4,0,0,0,.46,0,2.3,2.3,0,0,0,.45,0c-.05.54-.12,1.83-.12,3.4,0,2.1-.91,3-2.67,3C9.56,46.17,8.35,45.5,8.35,43.79Z"/><path class="cls-1" d="M18.45,43.22c0,1.3,0,2.27.07,2.84a5.5,5.5,0,0,0-1.48,0c.05-.8.07-1.5.07-2.51V42.32c0-1,0-1.71-.07-2.51a5.5,5.5,0,0,0,1.48,0c-.07.48-.07,1.72-.07,2.89.81-1,2-2.43,2.31-2.89a4.2,4.2,0,0,0,.51,0c.16,0,.33,0,.54,0-.41.41-1.87,2-2.34,2.61.78,1.18,2,3,2.47,3.64-.35,0-.61-.05-.87-.05s-.53,0-.79.05l-1.81-2.84Z"/><path class="cls-1" d="M29.63,46.06c-.29,0-.54-.05-.79-.05s-.52,0-.77.05q-.29-.93-.63-1.86l-1.15,0-.95,0a18.36,18.36,0,0,0-.61,1.86A3.15,3.15,0,0,0,24.3,46a4.12,4.12,0,0,0-.45.05c.45-1,1.8-4.23,2.58-6.29a1.51,1.51,0,0,0,.69,0C27.89,41.83,29,44.58,29.63,46.06Zm-2.39-2.39c-.27-.74-.52-1.45-.81-2.16-.31.71-.59,1.42-.85,2.16Z"/><path class="cls-1" d="M35.05,41a1.08,1.08,0,0,0-1.1-.77.87.87,0,0,0-.94.81c0,1.34,2.75,1,2.75,3.06a2.12,2.12,0,0,1-2.4,2,2.54,2.54,0,0,1-1.45-.39c.11-.41.19-.74.26-1.14h.17a1.19,1.19,0,0,0,1.25,1,.93.93,0,0,0,1.06-.92c0-1.37-2.7-1-2.7-3.06a1.91,1.91,0,0,1,2-1.94,2.33,2.33,0,0,1,1.48.45c-.11.28-.17.5-.29.89Z"/><path class="cls-1" d="M15.7,49.74a1.73,1.73,0,0,1-1.25,1.66c.48.29,1,.6,1.28.75a2,2,0,0,0-.69.26,13.28,13.28,0,0,0-1.27-.93A1.64,1.64,0,0,1,12,49.74,1.75,1.75,0,0,1,13.85,48,1.67,1.67,0,0,1,15.7,49.74Zm-1.87-1.47c-.66,0-1.05.68-1.05,1.51,0,1,.48,1.4,1,1.4s1.1-.48,1.1-1.55C14.9,48.79,14.46,48.27,13.83,48.27Z"/><path class="cls-1" d="M16.5,50.63c0-.52,0-.79,0-1.14,0-.51,0-.84,0-1a4,4,0,0,0,.8,0,14.39,14.39,0,0,0-.07,1.7c0,1.19.34,1.39,1,1.39s.84-.84.84-1.75c0-.45,0-.89,0-1.34a1,1,0,0,0,.24,0,1,1,0,0,0,.25,0c0,.29-.06,1-.06,1.83,0,1.13-.5,1.59-1.44,1.59S16.5,51.55,16.5,50.63Z"/><path class="cls-1" d="M22.48,51.42l-.43,0-.41,0c-.1-.33-.21-.67-.34-1H20.17c-.13.33-.23.66-.33,1l-.23,0-.24,0c.24-.54,1-2.27,1.39-3.38l.18,0,.19,0C21.54,49.15,22.11,50.63,22.48,51.42Zm-1.29-1.29c-.14-.39-.28-.77-.43-1.15-.17.38-.32.76-.46,1.15Z"/><path class="cls-1" d="M23,49.41c0-.55,0-.92,0-1.35l.4,0,.4,0c0,.43,0,.8,0,1.35v.66c0,.36,0,.73,0,1A8.38,8.38,0,0,0,24.83,51a1.27,1.27,0,0,0,0,.22,1.06,1.06,0,0,0,0,.21c-.17,0-.4,0-.85,0-.79,0-.93,0-1,0,0-.43,0-.8,0-1.35Z"/><path class="cls-1" d="M25.44,49.41c0-.55,0-.92,0-1.35l.4,0,.4,0c0,.43,0,.8,0,1.35v.66c0,.55,0,.92,0,1.35l-.4,0-.4,0c0-.43,0-.8,0-1.35Z"/><path class="cls-1" d="M27.62,48.85a2.2,2.2,0,0,0,0-.42,8.09,8.09,0,0,0-.89.06.78.78,0,0,0,0-.22.76.76,0,0,0,0-.21l1.27,0,1.24,0a.76.76,0,0,0,0,.21.78.78,0,0,0,0,.22,7.34,7.34,0,0,0-.87-.06c0,.06,0,.24,0,.42v1.22c0,.55,0,.92,0,1.35l-.4,0-.4,0c0-.43,0-.8,0-1.35Z"/><path class="cls-1" d="M31,49.52a9.46,9.46,0,0,0,.73-1.46l.23,0,.23,0c-.21.37-.7,1.25-1,1.87,0,.15,0,.31,0,.47a9.15,9.15,0,0,0,.05,1l-.41,0-.42,0c0-.31.06-.64.06-.94,0-.15,0-.3,0-.45-.33-.65-.89-1.69-1-2l.44,0,.43,0c.23.48.59,1.24.73,1.46Z"/><path class="cls-1" d="M12.67,56l-.43,0-.41,0c-.1-.34-.22-.67-.34-1H10.36A9,9,0,0,0,10,56a1.81,1.81,0,0,0-.23,0l-.24,0c.24-.55,1-2.28,1.39-3.39l.18,0,.19,0C11.73,53.67,12.3,55.15,12.67,56Zm-1.29-1.29c-.14-.39-.28-.78-.43-1.16-.17.38-.32.77-.46,1.16Z"/><path class="cls-1" d="M13.19,52.58l.22,0a.78.78,0,0,0,.22,0c.7.78,1.4,1.55,2.12,2.32,0-.77,0-2.1,0-2.32l.22,0a.83.83,0,0,0,.22,0c-.08,1.42-.08,2.07-.08,3.37a.69.69,0,0,0-.2,0,.58.58,0,0,0-.19,0c-.66-.79-1.38-1.58-2.13-2.37,0,.36,0,.77,0,1.13,0,.78,0,1.06,0,1.24a.83.83,0,0,0-.22,0,.85.85,0,0,0-.23,0c0-.15.1-1.4.1-2.4C13.22,53.12,13.2,52.82,13.19,52.58Z"/><path class="cls-1" d="M19.63,56l-.43,0-.42,0c-.1-.34-.21-.67-.33-1H17.32A7.31,7.31,0,0,0,17,56l-.23,0-.25,0c.24-.55,1-2.28,1.39-3.39l.19,0,.18,0C18.68,53.67,19.25,55.15,19.63,56Zm-1.3-1.29c-.14-.39-.27-.78-.43-1.16-.17.38-.32.77-.46,1.16Z"/><path class="cls-1" d="M22.67,53.31a1.13,1.13,0,0,0-1-.49c-.61,0-1.23.51-1.23,1.53a1.21,1.21,0,0,0,1.18,1.36,1.45,1.45,0,0,0,.53-.09,1.62,1.62,0,0,0,0-.34,6.46,6.46,0,0,0,0-.84,2.51,2.51,0,0,0,.37,0,2.44,2.44,0,0,0,.39,0,5.39,5.39,0,0,0,0,.82c0,.2,0,.46,0,.53a4.49,4.49,0,0,1-1.3.22,1.7,1.7,0,0,1-1.92-1.63,1.8,1.8,0,0,1,2-1.86,2.36,2.36,0,0,1,1.17.29c-.05.17-.11.34-.14.5Z"/><path class="cls-1" d="M23.63,53.93c0-.54,0-.92,0-1.35l.87,0c.48,0,.89,0,1,0a1.15,1.15,0,0,0,0,.21,1.27,1.27,0,0,0,0,.22L24.38,53c0,.36,0,.71,0,1.06l1.11,0a1.22,1.22,0,0,0,0,.22,1,1,0,0,0,0,.2c-.37,0-.74,0-1.11,0V55c0,.21,0,.42,0,.61a10.65,10.65,0,0,0,1.12-.06,1.09,1.09,0,0,0,0,.22,1.06,1.06,0,0,0,0,.21c-.18,0-.41,0-.85,0a9.1,9.1,0,0,0-1,0c0-.43,0-.81,0-1.35Z"/><path class="cls-1" d="M26.5,53.73c-.1.74-.14,1.48-.19,2.22l-.23,0a.91.91,0,0,0-.23,0c.2-1.13.36-2.24.5-3.37a.69.69,0,0,0,.2,0l.2,0c.35.78.76,1.65,1.12,2.33.39-.72.78-1.55,1.13-2.33a.82.82,0,0,0,.21,0,.76.76,0,0,0,.21,0c.13,1.13.3,2.68.42,3.37a2.69,2.69,0,0,0-.4,0L29,56c0-.68-.12-1.51-.2-2.26h0c-.36.75-.72,1.5-1.07,2.26h-.19c-.34-.74-.69-1.48-1.06-2.22Z"/><path class="cls-1" d="M30.4,53.93c0-.54,0-.92,0-1.35l.87,0c.48,0,.88,0,1,0a1.15,1.15,0,0,0,0,.21,1.27,1.27,0,0,0,0,.22L31.15,53c0,.36,0,.71,0,1.06l1.11,0a1.22,1.22,0,0,0,0,.22,1,1,0,0,0,0,.2c-.37,0-.74,0-1.11,0V55c0,.21,0,.42,0,.61a10.65,10.65,0,0,0,1.12-.06,1.09,1.09,0,0,0,0,.22,1.06,1.06,0,0,0,0,.21c-.18,0-.41,0-.86,0a9,9,0,0,0-1,0c0-.43,0-.81,0-1.35Z"/><path class="cls-1" d="M32.9,52.58a.82.82,0,0,0,.44,0c.7.78,1.4,1.55,2.11,2.32,0-.77,0-2.1,0-2.32a.78.78,0,0,0,.22,0l.22,0c-.08,1.42-.08,2.07-.08,3.37a.69.69,0,0,0-.2,0,.58.58,0,0,0-.19,0q-1-1.19-2.13-2.37c0,.36,0,.77,0,1.13,0,.78,0,1.06,0,1.24l-.23,0a.83.83,0,0,0-.22,0c0-.15.09-1.4.09-2.4C32.92,53.12,32.9,52.82,32.9,52.58Z"/><path class="cls-1" d="M37.24,53.38c0-.19,0-.36,0-.43-.19,0-.6,0-.89.06a1.49,1.49,0,0,0,0-.21,1.8,1.8,0,0,0,0-.22c.44,0,.66,0,1.27,0s.82,0,1.23,0a1.8,1.8,0,0,0,0,.22,1.49,1.49,0,0,0,0,.21c-.26,0-.67-.06-.86-.06,0,.07,0,.24,0,.43V54.6c0,.54,0,.92,0,1.35a3.88,3.88,0,0,0-.4,0,3.47,3.47,0,0,0-.4,0c0-.43,0-.81,0-1.35Z"/><polygon class="cls-1" points="14.49 21.51 14.49 30.64 20.87 37.77 33.51 19 33.39 12.12 20.87 29.89 14.49 21.51"/><path class="cls-1" d="M21.35,63.12c0,1.1-.41,1.71-1.13,1.71s-1.06-.6-1.07-1.67.47-1.68,1.12-1.68S21.35,62.09,21.35,63.12Zm-1.76.05c0,.84.26,1.32.65,1.32s.67-.53.67-1.35-.21-1.32-.66-1.32S19.59,62.29,19.59,63.17Z"/><path class="cls-1" d="M22.7,61.94h0l-.56.31L22,61.91l.71-.38h.38v3.24H22.7Z"/><path class="cls-1" d="M25.66,64.77v-.88h-1.5V63.6l1.44-2.07h.48v2h.45v.34h-.45v.88Zm0-1.22V62.46c0-.17,0-.33,0-.5h0c-.1.19-.18.33-.27.47l-.79,1.11h1.06Z"/><path class="cls-1" d="M6.22,53.72c-.1.74-.14,1.48-.19,2.21l-.23,0-.23,0c.21-1.12.37-2.24.5-3.36a.68.68,0,0,0,.4,0c.35.78.77,1.64,1.12,2.33.39-.72.79-1.55,1.14-2.33a.71.71,0,0,0,.21,0l.2,0c.13,1.12.3,2.68.42,3.36l-.39,0-.41,0c0-.67-.12-1.5-.19-2.26h0c-.37.76-.73,1.51-1.08,2.26H7.29C7,55.2,6.6,54.46,6.23,53.72Z"/><path class="cls-1" d="M45,.48V58.34H.48V.48H45M45.47,0H0V58.82H45.47V0Z"/></g></g></svg>