<svg width="161" height="50" viewBox="0 0 161 50" fill="none" xmlns="http://www.w3.org/2000/svg">
<path d="M89.4 23C89.4 19.3 92.2 16.4 96 16.4C98.3 16.4 100.4 17.6 101.5 19.4L99.3 20.7C98.7 19.6 97.4 18.9 96 18.9C93.5 18.9 91.9 20.6 91.9 23.1C91.9 25.5 93.5 27.3 96 27.3C97.5 27.3 98.7 26.6 99.3 25.5L101.5 26.8C100.4 28.6 98.4 29.8 96 29.8C92.2 29.6 89.4 26.7 89.4 23Z" fill="#005B96"/>
<path d="M112.1 20.3V29.4H109.8V28.3C109.1 29.1 108.2 29.6 106.8 29.6C104.4 29.6 102.4 27.5 102.4 24.8C102.4 22.1 104.4 20 106.8 20C108.1 20 109.1 20.5 109.8 21.3V20.2H112.1V20.3ZM109.7 24.8C109.7 23.3 108.6 22.2 107.2 22.2C105.8 22.2 104.7 23.2 104.7 24.8C104.7 26.3 105.8 27.4 107.2 27.4C108.7 27.4 109.7 26.4 109.7 24.8Z" fill="#005B96"/>
<path d="M117.2 22.5V26.3C117.2 27.3 117.9 27.3 119.3 27.2V29.3C116 29.7 114.9 28.7 114.9 26.2V22.4H113.3V20.1H114.9V18.3L117.2 17.6V20.1H119.3V22.4H117.2V22.5Z" fill="#005B96"/>
<path d="M125.3 27.5C126.2 27.5 126.9 27.1 127.3 26.6L129.2 27.7C128.3 28.9 127 29.6 125.2 29.6C122.1 29.6 120.2 27.5 120.2 24.8C120.2 22.1 122.1 20 125 20C127.7 20 129.6 22.1 129.6 24.8C129.6 25.1 129.6 25.5 129.5 25.8H122.6C123.1 27 124.1 27.5 125.3 27.5ZM127.3 24C127 22.7 126 22.2 125 22.2C123.7 22.2 122.9 22.9 122.6 24H127.3Z" fill="#005B96"/>
<path d="M136.3 20.1V22.7C135.1 22.6 133.5 23.1 133.5 25V29.4H131.2V20.3H133.5V21.9C134 20.6 135.2 20.1 136.3 20.1Z" fill="#005B96"/>
<path d="M137.1 17.7C137.1 16.9 137.8 16.2 138.5 16.2C139.3 16.2 140 16.9 140 17.7C140 18.5 139.3 19.1 138.5 19.1C137.8 19.2 137.1 18.5 137.1 17.7ZM137.4 20.3H139.7V29.4H137.4V20.3Z" fill="#005B96"/>
<path d="M150.2 23.8V29.4H147.9V24.1C147.9 22.9 147.2 22.2 146.1 22.2C145 22.2 144.1 22.9 144.1 24.5V29.4H141.8V20.3H144.1V21.3C144.6 20.5 145.6 20 146.8 20C148.7 20 150.2 21.4 150.2 23.8Z" fill="#005B96"/>
<path d="M161 20.3V29C161 32 158.7 33.3 156.2 33.3C154.3 33.3 152.7 32.6 151.9 31.1L153.9 30C154.3 30.7 154.9 31.3 156.3 31.3C157.8 31.3 158.7 30.5 158.7 29.1V28.1C158.1 29 157.1 29.5 155.8 29.5C153.2 29.5 151.3 27.4 151.3 24.8C151.3 22.3 153.2 20.1 155.8 20.1C157.1 20.1 158.1 20.6 158.7 21.5V20.4H161V20.3ZM158.7 24.7C158.7 23.3 157.6 22.2 156.2 22.2C154.7 22.2 153.7 23.2 153.7 24.7C153.7 26.2 154.8 27.2 156.2 27.2C157.6 27.2 158.7 26.1 158.7 24.7Z" fill="#005B96"/>
<path d="M87.4 42.7L88.2 42.2C88.6 43.7 89.9 44.8 92 44.8C94.1 44.8 95.2 43.7 95.2 42.3C95.2 40.8 93.9 40.2 91.9 39.6C89.8 38.9 87.9 38.3 87.9 36.1C87.9 34 89.6 32.7 91.8 32.7C93.9 32.7 95.3 33.9 95.9 35.4L95.1 35.9C94.6 34.8 93.6 33.7 91.8 33.7C90 33.7 88.9 34.7 88.9 36.2C88.9 37.7 90.2 38.2 92 38.8C94.3 39.5 96.2 40.3 96.2 42.5C96.2 44.6 94.5 46 92 46C89.7 45.7 88 44.5 87.4 42.7Z" fill="#005B96"/>
<path d="M105.7 36.4V45.5H104.8V43.8C104.1 45.1 102.9 45.7 101.5 45.7C99.3 45.7 98 44.3 98 42.1V36.4H99V42.1C99 43.8 100 44.9 101.7 44.9C103.5 44.9 104.9 43.7 104.9 41.3V36.5H105.7V36.4Z" fill="#005B96"/>
<path d="M117.8 41C117.8 43.7 115.7 45.8 113.1 45.8C111.3 45.8 109.9 44.9 109.2 43.5V49.3H108.3V36.4H109.2V38.5C109.9 37.1 111.3 36.2 113.1 36.2C115.7 36.2 117.8 38.3 117.8 41ZM116.9 41C116.9 38.8 115.2 37.1 113 37.1C110.8 37.1 109.1 38.8 109.1 41C109.1 43.2 110.8 44.9 113 44.9C115.2 44.9 116.9 43.2 116.9 41Z" fill="#005B96"/>
<path d="M129.3 41C129.3 43.7 127.2 45.8 124.6 45.8C122.8 45.8 121.4 44.9 120.7 43.5V49.3H119.8V36.4H120.7V38.5C121.4 37.1 122.8 36.2 124.6 36.2C127.2 36.2 129.3 38.3 129.3 41ZM128.4 41C128.4 38.8 126.7 37.1 124.5 37.1C122.3 37.1 120.6 38.8 120.6 41C120.6 43.2 122.3 44.9 124.5 44.9C126.7 44.9 128.4 43.2 128.4 41Z" fill="#005B96"/>
<path d="M131.3 32.3H132.2V45.6H131.3V32.3Z" fill="#005B96"/>
<path d="M142.6 36.4L138.7 46.3C138 48 136.7 49.2 135.1 49.1V48.2C136.3 48.3 137.2 47.4 137.8 46.1L138 45.6L133.8 36.3H134.8L138.5 44.4L141.7 36.3H142.6V36.4Z" fill="#005B96"/>
<path d="M92.3 10.5L93.1 10C93.5 11.5 94.9 12.6 97 12.6C99.2 12.6 100.2 11.5 100.2 10C100.2 8.50001 98.8 7.90001 96.9 7.20001C94.7 6.50001 92.8 5.90001 92.8 3.60001C92.8 1.50001 94.5 0.100006 96.7 0.100006C98.8 0.100006 100.2 1.30001 100.8 2.80001L100 3.30001C99.5 2.10001 98.5 1.10001 96.7 1.10001C94.9 1.10001 93.8 2.20001 93.8 3.60001C93.8 5.10001 95.1 5.60001 97 6.20001C99.3 7.00001 101.3 7.70001 101.3 9.90001C101.3 12 99.6 13.4 97.1 13.4C94.6 13.5 92.9 12.3 92.3 10.5Z" fill="#005B96"/>
<path d="M111.1 7.59999V13.3H110.2V7.59999C110.2 5.89999 109.2 4.79999 107.5 4.79999C105.7 4.79999 104.3 5.99999 104.3 8.49999V13.4H103.4V0.399994H104.3V5.79999C105 4.39999 106.2 3.79999 107.6 3.79999C109.7 3.89999 111.1 5.29999 111.1 7.59999Z" fill="#005B96"/>
<path d="M113.2 1.09999C113.2 0.699994 113.5 0.399994 113.9 0.399994C114.3 0.399994 114.6 0.699994 114.6 1.09999C114.6 1.49999 114.3 1.79999 113.9 1.79999C113.6 1.89999 113.2 1.49999 113.2 1.09999ZM113.5 4.09999H114.4V13.3H113.5V4.09999Z" fill="#005B96"/>
<path d="M126.7 8.69999C126.7 11.4 124.6 13.5 121.9 13.5C120.1 13.5 118.7 12.6 117.9 11.2V17H117V4.09999H117.9V6.19999C118.7 4.79999 120.1 3.89999 121.9 3.89999C124.5 3.89999 126.7 5.99999 126.7 8.69999ZM125.7 8.69999C125.7 6.49999 124 4.79999 121.8 4.79999C119.6 4.79999 117.9 6.49999 117.9 8.69999C117.9 10.9 119.6 12.6 121.8 12.6C124 12.6 125.7 10.9 125.7 8.69999Z" fill="#005B96"/>
<path d="M134.7 10.9C134.7 12.4 133.4 13.5 131.4 13.5C129.6 13.5 128.3 12.6 127.9 11.5L128.7 11C129 12 130 12.6 131.4 12.6C132.7 12.6 133.8 12 133.8 10.9C133.8 8.39999 128.2 9.79999 128.2 6.49999C128.2 4.99999 129.5 3.89999 131.3 3.89999C132.8 3.89999 133.9 4.59999 134.4 5.69999L133.6 6.09999C133.2 5.09999 132.3 4.69999 131.2 4.69999C130 4.69999 129 5.29999 129 6.39999C129.1 8.99999 134.7 7.49999 134.7 10.9Z" fill="#005B96"/>
<path d="M83.5 0H6.10001L1.10001 40.3C41 29.4 40.8 47.4 79 36.1L83.5 0Z" fill="#005B96"/>
<path fill-rule="evenodd" clip-rule="evenodd" d="M25.8 38.5L24.5 49.4H0L0.9 42.4C11.7 39.2 19.4 38.4 25.8 38.5Z" fill="#71CAF3"/>
<path fill-rule="evenodd" clip-rule="evenodd" d="M26.7 49.4H50.8L51.7 42V41.7C42.8 41.3 36.4 39.1 28 38.5L26.7 49.4Z" fill="#005B96"/>
<path fill-rule="evenodd" clip-rule="evenodd" d="M53.9 41.9V42.1L53 49.5H77.5L78.9 38.3C68.1 41.1 60.3 42 53.9 41.9Z" fill="#71CAF3"/>
<path d="M18 26.8C18.7 26.4 19 25.7 19 24.8C19 24.3 18.6 23.7 17.9 23.3C17.2 22.8 16.3 22.3 15.3 21.9C14.3 21.4 13.3 20.9 12.3 20.3C11.3 19.7 10.4 18.9 9.69999 17.9C8.99999 16.9 8.59999 15.7 8.59999 14.4C8.59999 11.9 9.59999 9.70001 11.7 7.90001C13.8 6.10001 16.5 5.20001 20 5.20001C21.2 5.20001 22.4 5.30001 23.5 5.60001C24.6 5.90001 25.5 6.20001 26.2 6.60001C26.9 7.00001 27.5 7.30001 28 7.70001C28.5 8.10001 28.9 8.40001 29.1 8.70001L29.5 9.10001L24.6 13.3C24.5 13.1 24.3 13 24 12.8C23.7 12.6 23.2 12.3 22.5 11.9C21.7 11.5 21 11.4 20.2 11.4C19.3 11.4 18.5 11.6 17.9 12C17.3 12.4 17 12.9 17 13.6C17 14.1 17.4 14.6 18.1 15.1C18.8 15.6 19.7 16 20.7 16.5C21.7 16.9 22.7 17.4 23.8 18C24.8 18.6 25.7 19.4 26.4 20.4C27.1 21.4 27.5 22.6 27.5 23.9C27.5 26.8 26.5 29.2 24.4 31C22.3 32.8 19.5 33.8 15.8 33.8C14.5 33.8 13.2 33.6 12 33.3C10.8 33 9.69999 32.6 8.89999 32.1C8.09999 31.6 7.39999 31.2 6.69999 30.7C5.99999 30.2 5.59999 29.9 5.29999 29.5L4.79999 29L9.79999 24.7C9.89999 24.8 9.99999 24.9 10.1 25C10.2 25.1 10.5 25.3 10.9 25.7C11.3 26.1 11.7 26.3 12.2 26.6C12.6 26.8 13.2 27.1 13.8 27.2C14.5 27.4 15.1 27.5 15.7 27.5C16.5 27.4 17.3 27.2 18 26.8Z" fill="white"/>
<path d="M38.5 14.2C36.7 16 35.7 18.2 35.7 20.7C35.7 22.5 36.3 23.9 37.5 25.1C38.7 26.3 40.2 26.9 42.1 26.9C43 26.9 43.8 26.8 44.7 26.5C45.5 26.2 46.3 25.9 46.9 25.6C47.5 25.2 48 24.9 48.5 24.5C49 24.1 49.3 23.8 49.6 23.6L50 23.2L53.4 28.1C53.3 28.3 53.1 28.4 52.9 28.7C52.7 28.9 52.2 29.4 51.4 30C50.6 30.6 49.8 31.2 48.9 31.6C48 32.1 46.9 32.5 45.5 32.9C44.1 33.3 42.7 33.5 41.2 33.5C37.6 33.5 34.5 32.3 32.1 29.8C29.7 27.3 28.4 24.5 28.4 21.2C28.4 16.8 30.1 13 33.5 9.8C36.8 6.6 40.9 5 45.7 5C47.1 5 48.5 5.2 49.8 5.6C51.1 6 52.2 6.4 53 7C53.8 7.6 54.6 8.1 55.2 8.6C55.8 9.1 56.3 9.6 56.5 10L56.9 10.5L51.7 14.9C51.6 14.8 51.6 14.7 51.5 14.6C51.4 14.4 51.1 14.2 50.7 13.8C50.3 13.4 49.9 13.1 49.4 12.8C48.9 12.5 48.3 12.3 47.5 12C46.7 11.8 45.9 11.7 45.1 11.7C42.5 11.5 40.4 12.4 38.5 14.2Z" fill="white"/>
<path d="M67.2 26.7C67.9 26.3 68.2 25.6 68.2 24.7C68.2 24.2 67.8 23.6 67.1 23.2C66.4 22.7 65.5 22.2 64.5 21.8C63.5 21.3 62.5 20.8 61.5 20.2C60.5 19.6 59.6 18.8 58.9 17.8C58.2 16.8 57.8 15.6 57.8 14.3C57.8 11.8 58.8 9.60001 60.9 7.80001C62.9 6.00001 65.7 5.10001 69.2 5.10001C70.4 5.10001 71.6 5.20001 72.7 5.50001C73.8 5.80001 74.7 6.10001 75.4 6.50001C76.1 6.90001 76.7 7.20001 77.2 7.60001C77.7 8.00001 78.1 8.30001 78.3 8.60001L78.7 9.00001L73.8 13.2C73.7 13 73.5 12.9 73.2 12.7C72.9 12.5 72.4 12.2 71.7 11.8C70.9 11.4 70.2 11.3 69.4 11.3C68.5 11.3 67.7 11.5 67.1 11.9C66.5 12.3 66.2 12.8 66.2 13.5C66.2 14 66.6 14.5 67.3 15C68 15.5 68.9 15.9 69.9 16.4C70.9 16.8 71.9 17.3 73 17.9C74 18.5 74.9 19.3 75.6 20.3C76.3 21.3 76.7 22.5 76.7 23.8C76.7 26.7 75.7 29.1 73.6 30.9C71.5 32.7 68.7 33.7 65 33.7C63.7 33.7 62.4 33.5 61.2 33.2C60 32.9 58.9 32.5 58.1 32C57.3 31.5 56.6 31.1 55.9 30.6C55.2 30.1 54.8 29.8 54.5 29.4L54 28.9L59 24.6C59.1 24.7 59.2 24.8 59.3 24.9C59.4 25 59.7 25.2 60.1 25.6C60.5 25.9 60.9 26.2 61.4 26.5C61.8 26.7 62.4 27 63 27.1C63.7 27.3 64.3 27.4 64.9 27.4C65.7 27.3 66.5 27.1 67.2 26.7Z" fill="white"/>
</svg>
