<svg width="70" height="42" viewBox="0 0 70 42" fill="none" xmlns="http://www.w3.org/2000/svg">
<g clip-path="url(#clip0)">
<path fill-rule="evenodd" clip-rule="evenodd" d="M21.5 32.1L20.4 41.2H0L0.7 35.4C9.7 32.7 16.1 31.9 21.5 32.1Z" fill="white"/>
<path fill-rule="evenodd" clip-rule="evenodd" d="M22.2 41.0999H42.3L43 35V34.7999C35.6 34.3999 30.3 32.6 23.3 32.2L22.2 41.0999Z" fill="white"/>
<path fill-rule="evenodd" clip-rule="evenodd" d="M44.8 34.8V35L44 41.1H64.4L65.5 31.8C56.7 34.2 50.2 34.9 44.8 34.8Z" fill="white"/>
<path d="M5.09999 0L0.899994 33.5C34.1 24.4 33.9 39.4 65.8 30L69.5 0H5.09999ZM20.1 25.6C18.4 27.1 16 27.9 12.9 27.9C11.8 27.9 10.7 27.8 9.69999 27.5C8.69999 27.2 7.79999 26.9 7.09999 26.5C6.39999 26.1 5.79999 25.7 5.29999 25.4C4.79999 25 4.39999 24.7 4.19999 24.4L3.79999 24L7.99999 20.5C8.09999 20.6 8.09999 20.6 8.19999 20.7C8.29999 20.8 8.49999 21 8.89999 21.2C9.19999 21.5 9.59999 21.7 9.99999 21.9C10.4 22.1 10.8 22.3 11.4 22.4C11.9 22.6 12.5 22.6 13 22.6C13.8 22.6 14.5 22.4 15.1 22.1C15.7 21.7 16 21.2 16 20.4C16 20 15.7 19.5 15.1 19.1C14.5 18.7 13.8 18.3 12.9 17.9C12.1 17.5 11.2 17.1 10.4 16.6C9.59999 16.1 8.79999 15.4 8.19999 14.6C7.59999 13.8 7.29999 12.8 7.29999 11.7C7.19999 9.8 7.99999 8 9.69999 6.5C11.4 5 13.7 4.3 16.6 4.3C17.6 4.3 18.6 4.4 19.5 4.6C20.4 4.8 21.2 5.1 21.7 5.4C22.3 5.7 22.8 6 23.2 6.3C23.6 6.6 23.9 6.9 24.1 7.1L24.4 7.4L20.4 11C20.3 10.9 20.1 10.7 19.9 10.5C19.7 10.3 19.3 10.1 18.6 9.8C18 9.5 17.3 9.4 16.6 9.4C15.8 9.4 15.2 9.6 14.7 9.9C14.2 10.3 14 10.7 14 11.2C14 11.6 14.3 12.1 14.9 12.5C15.5 12.9 16.2 13.3 17.1 13.6C18 14 18.8 14.4 19.6 14.9C20.4 15.4 21.2 16 21.7 16.9C22.3 17.7 22.6 18.7 22.6 19.8C22.7 22.1 21.8 24.1 20.1 25.6ZM43.9 23.9C43.7 24.1 43.3 24.5 42.6 25C41.9 25.5 41.3 26 40.5 26.4C39.8 26.8 38.8 27.2 37.7 27.5C36.5 27.8 35.3 28 34.1 28C31.1 28 28.5 27 26.5 24.9C24.5 22.9 23.5 20.5 23.5 17.7C23.5 14 24.9 10.9 27.7 8.2C30.5 5.5 33.9 4.2 37.9 4.2C39.1 4.2 40.2 4.4 41.3 4.7C42.4 5 43.3 5.4 44 5.8C44.7 6.2 45.3 6.7 45.8 7.1C46.3 7.5 46.7 7.9 46.9 8.2L47.3 8.7L43 12.3C43 12.2 42.9 12.1 42.8 12C42.7 11.9 42.5 11.7 42.2 11.3C41.9 11 41.5 10.7 41.1 10.5C40.7 10.3 40.2 10 39.5 9.9C38.9 9.7 38.2 9.6 37.5 9.6C35.4 9.6 33.6 10.3 32.1 11.8C30.6 13.3 29.8 15.1 29.8 17.2C29.8 18.7 30.3 19.9 31.3 20.9C32.3 21.9 33.6 22.4 35.1 22.4C35.8 22.4 36.5 22.3 37.3 22.1C38 21.9 38.6 21.6 39.1 21.3C39.6 21 40 20.7 40.4 20.4C40.8 20.1 41.1 19.8 41.3 19.6L41.6 19.3L44.4 23.4C44.3 23.5 44.1 23.7 43.9 23.9ZM55.9 12.4C56.5 12.8 57.2 13.2 58.1 13.5C59 13.9 59.8 14.3 60.6 14.8C61.4 15.3 62.2 15.9 62.7 16.8C63.3 17.6 63.6 18.6 63.6 19.7C63.6 22.1 62.7 24.1 61 25.6C59.3 27.1 56.9 27.9 53.8 27.9C52.7 27.9 51.6 27.8 50.6 27.5C49.6 27.2 48.7 26.9 48 26.5C47.3 26.1 46.7 25.7 46.2 25.4C45.7 25 45.3 24.7 45.1 24.4L44.8 24L48.9 20.4C49 20.5 49 20.5 49.1 20.6C49.2 20.7 49.4 20.9 49.8 21.1C50.1 21.4 50.5 21.6 50.9 21.8C51.3 22 51.7 22.2 52.3 22.3C52.8 22.5 53.4 22.5 53.9 22.5C54.7 22.5 55.4 22.3 56 22C56.6 21.6 56.9 21.1 56.9 20.3C56.9 19.9 56.6 19.4 56 19C55.4 18.6 54.7 18.2 53.8 17.8C53 17.4 52.1 17 51.3 16.5C50.5 16 49.7 15.3 49.1 14.5C48.5 13.7 48.2 12.7 48.2 11.6C48.2 9.5 49 7.7 50.7 6.2C52.4 4.7 54.7 4 57.6 4C58.6 4 59.6 4.1 60.5 4.3C61.4 4.5 62.2 4.8 62.7 5.1C63.3 5.4 63.8 5.7 64.2 6C64.7 6.5 65 6.8 65.1 7L65.4 7.3L61.3 10.8C61.2 10.7 61 10.5 60.8 10.3C60.6 10.1 60.2 9.9 59.5 9.6C58.9 9.3 58.2 9.2 57.5 9.2C56.7 9.2 56.1 9.4 55.6 9.7C55.1 10.1 54.9 10.5 54.9 11C55 11.6 55.3 12 55.9 12.4Z" fill="white"/>
</g>
<defs>
<clipPath id="clip0">
<rect width="69.5" height="41.1" fill="white"/>
</clipPath>
</defs>
</svg>
