<svg width="27" height="27" viewBox="0 0 27 27" fill="none" xmlns="http://www.w3.org/2000/svg">
<g clip-path="url(#clip0)">
<path d="M21.3 19.6C21 19.3 20.7 19 20.4 18.7C20.2 18.6 20.1 18.4 19.9 18.3L18.6 17C18 16.4 17.4 16.1 16.7 16.1C16 16.1 15.4 16.4 14.8 17C14.7 17.1 14.5 17.3 14.4 17.4C14.1 17.7 13.8 18 13.5 18.4C12.9 18.1 12.4 17.8 11.7 17.2C10.8 16.5 10.1 15.8 9.5 15.1C9.2 14.7 8.5 14.7 8.1 15C7.7 15.3 7.7 16 8 16.4C8.7 17.2 9.5 18 10.5 18.8C11.5 19.6 12.3 20 13.1 20.4C13.1 20.4 13.1 20.4 13.2 20.4C13.4 20.5 14 20.7 14.6 20.1C15 19.7 15.4 19.3 15.8 18.9C15.9 18.8 16.1 18.6 16.2 18.5C16.3 18.4 16.5 18.2 16.7 18.2C16.9 18.2 17.1 18.4 17.2 18.5L18.5 19.8C18.7 20 18.8 20.1 19 20.3C19.3 20.6 19.6 20.9001 19.8 21.2001C20 21.4001 20.2 21.7001 19.8 22.2001L18.2 23.8C17.9 24.1 17.5 24.3 17 24.4C16.2 24.5 15.3 24.3 14.1 23.9C12.2 23.2 10.4 22.1 8.4 20.5C6.1 18.5 4.2 16.2 2.9 13.5C2.4 12.5 1.9 11.2 1.8 9.90005C1.8 9.10005 2 8.60005 2.4 8.10005C2.8 7.80005 3.1 7.50005 3.4 7.20005C3.6 7.00005 3.8 6.80005 4 6.60005C4.5 6.00005 4.8 6.00005 5.2 6.30005L7.8 9.00005C8 9.10005 8.1 9.30005 8.1 9.50005C8.1 9.60005 8 9.80005 7.8 10L6.2 11.6C5.8 12 5.8 12.6 6.2 13C6.6 13.4 7.2 13.4 7.6 13L9.2 11.4C9.8 10.8 10 10.2 10 9.50005C10 8.80005 9.7 8.20005 9.2 7.70005L6.6 5.00005C5.5 3.90005 4 3.90005 2.8 5.00005C2.6 5.20005 2.4 5.40005 2.2 5.60005C1.9 5.90005 1.6 6.20005 1.3 6.40005C0.399999 7.30005 -0.100001 8.40005 -7.96281e-07 9.80005C0.0999992 11.5 0.699999 13 1.3 14.1C2.7 17 4.7 19.6 7.3 21.7001C9.4 23.5 11.4 24.6 13.5 25.4C14.3 25.7 15.4 26.1 16.7 26.1C16.9 26.1 17 26.1 17.2 26.1C18.1 26 19 25.6 19.6 25L21.2 23.4C22.3 22.2 22.3 20.7 21.3 19.6Z" fill="white"/>
<path d="M20.9 13.1C20.6 11.1 19.6 9.4 18.2 7.9C16.8 6.5 15 5.6 13.1 5.2C12.6 5.1 12.1 5.5 12 6C11.9 6.5 12.3 7 12.8 7.1C14.4 7.4 15.8 8.1 16.9 9.2C18 10.3 18.8 11.8 19 13.3C19.1 13.8 19.5 14.1 20 14.1C20.1 14.1 20.1 14.1 20.2 14.1C20.6 14.1 21 13.6 20.9 13.1Z" fill="white"/>
<path d="M26.1 12.8C25.6 9.60005 24 6.70005 21.7 4.40005C19.4 2.10005 16.5 0.600045 13.3 4.52604e-05C12.8 -0.0999547 12.3 0.300045 12.2 0.800045C12.1 1.30005 12.5 1.80005 13 1.90005C15.8 2.40005 18.4 3.70005 20.4 5.70005C22.4 7.70005 23.8 10.3 24.2 13.1C24.3 13.6 24.7 13.9 25.2 13.9C25.3 13.9 25.3 13.9 25.4 13.9C25.9 13.9 26.2 13.4 26.1 12.8Z" fill="white"/>
</g>
<defs>
<clipPath id="clip0">
<rect width="26.2" height="26.1" fill="white"/>
</clipPath>
</defs>
</svg>
