<svg width="51" height="51" viewBox="0 0 51 51" fill="none" xmlns="http://www.w3.org/2000/svg">
<g clip-path="url(#clip0)">
<path d="M8.9 39.1C8.2 39.1 7.5 39.3 6.9 39.6C3.7 35.5 2 30.5 2 25.3C2 12.4 12.4 2 25.3 2C26.9 2 28.4 2.2 29.9 2.5C30.4 2.6 31 2.3 31.1 1.7C31.2 1.2 30.9 0.6 30.3 0.5C28.7 0.2 27 0 25.3 0C18.5 0 12.2 2.6 7.4 7.4C2.6 12.2 0 18.5 0 25.3C0 31 1.9 36.5 5.4 41C4.9 41.7 4.7 42.5 4.7 43.3C4.7 44.4 5.1 45.4 5.9 46.2C6.7 47 7.7 47.4 8.8 47.4C9.9 47.4 10.9 47 11.7 46.2C12.5 45.4 12.9 44.4 12.9 43.3C12.9 42.2 12.5 41.2 11.7 40.4C11 39.5 10 39.1 8.9 39.1ZM10.4 44.8C10 45.2 9.4 45.4 8.9 45.4C8.4 45.4 7.8 45.2 7.4 44.8C7 44.4 6.8 43.8 6.8 43.3C6.8 42.7 7 42.2 7.4 41.8C7.8 41.4 8.4 41.2 8.9 41.2C9.4 41.2 10 41.4 10.4 41.8C10.8 42.2 11 42.8 11 43.3C11.1 43.8 10.8 44.4 10.4 44.8Z" fill="#005B96"/>
<path d="M45.1 9.59995C46.2 7.99995 46 5.79995 44.6 4.39995C43.8 3.59995 42.8 3.19995 41.7 3.19995C40.6 3.19995 39.6 3.59995 38.8 4.39995C38 5.19995 37.6 6.19995 37.6 7.29995C37.6 8.39995 38 9.39995 38.8 10.2C39.6 11 40.6 11.4 41.7 11.4C42.4 11.4 43.1 11.2 43.7 10.9C46.9 15 48.6 20 48.6 25.2C48.6 38 38.2 48.5 25.3 48.5C23.8 48.5 22.2 48.2999 20.7 48C20.2 47.9 19.6 48.2 19.5 48.7999C19.4 49.2999 19.7 49.9 20.3 50C21.9 50.2999 23.6 50.5 25.3 50.5C32 50.5 38.4 47.8999 43.2 43.0999C48 38.2999 50.6 32 50.6 25.2C50.5 19.6 48.6 14 45.1 9.59995ZM40.1 8.79995C39.7 8.39995 39.5 7.79995 39.5 7.29995C39.5 6.69995 39.7 6.19995 40.1 5.79995C40.5 5.39995 41.1 5.19995 41.6 5.19995C42.2 5.19995 42.7 5.39995 43.1 5.79995C44 6.59995 44 7.99995 43.2 8.79995C42.8 9.19995 42.2 9.39995 41.7 9.39995C41.1 9.49995 40.5 9.29995 40.1 8.79995Z" fill="#71CAF3"/>
<path d="M21.2 42.2001C21.2 42.7001 21.6 43.2001 22.2 43.2001H28.4C28.9 43.2001 29.4 42.8 29.4 42.2001V40.3C30.7 40 31.9 39.4 33.1 38.8L34.5 40.2001C34.7 40.4001 34.9 40.5 35.2 40.5C35.5 40.5 35.7 40.4001 35.9 40.2001L40.3 35.8C40.7 35.4 40.7 34.8001 40.3 34.4001L38.8 33C39.5 31.8 40 30.6 40.3 29.3H42.2C42.7 29.3 43.2 28.9 43.2 28.3V22.1C43.2 21.6 42.8 21.1 42.2 21.1H40.3C40 19.8 39.4 18.6 38.8 17.4L40.1 16.1C40.3 15.9 40.4 15.7 40.4 15.4C40.4 15.1 40.3 14.9 40.1 14.7L35.7 10.3C35.3 9.90005 34.7 9.90005 34.3 10.3L33 11.7C31.8 11 30.6 10.5 29.3 10.2V8.30005C29.3 7.80005 28.9 7.30005 28.3 7.30005H22.1C21.6 7.30005 21.1 7.70005 21.1 8.30005V10.2C19.8 10.5 18.6 11.1 17.4 11.7L16.1 10.4C15.7 10 15.1 10 14.7 10.4L10.3 14.8C10.1 15 10 15.2 10 15.5C10 15.8 10.1 16 10.3 16.2L11.6 17.5C10.9 18.7 10.4 19.9 10.1 21.2H8.3C7.8 21.2 7.3 21.6 7.3 22.2V28.4C7.3 28.7 7.4 28.9 7.6 29.1C7.8 29.3 8 29.4 8.3 29.4H10.2C10.5 30.7 11.1 31.9 11.7 33.1L10.4 34.4001C10 34.8001 10 35.4 10.4 35.8L14.8 40.2001C15 40.4001 15.2 40.5 15.5 40.5C15.8 40.5 16 40.4001 16.2 40.2001L17.6 38.8C18.8 39.5 20 40 21.3 40.3V42.2001H21.2ZM17.9 36.7001C17.5 36.4001 17 36.5 16.7 36.8L15.5 38L12.5 35L13.7 33.8C14 33.5 14.1 33 13.8 32.6C12.9 31.2 12.3 29.7 11.9 28.1C11.8 27.6 11.4 27.3 10.9 27.3H9.3V23.1H11C11.5 23.1 11.9 22.8 12 22.3C12.3 20.7 13 19.2 13.9 17.8C14.2 17.4 14.1 16.9 13.8 16.6L12.6 15.4L15.6 12.4L16.8 13.6C17.1 13.9 17.6 14 18 13.7C19.4 12.8 20.9 12.2 22.5 11.8C23 11.7 23.3 11.3 23.3 10.8V9.30005H27.5V11C27.5 11.5 27.8 11.9 28.3 12C29.9 12.3 31.4 13 32.8 13.9C33.2 14.2 33.7 14.1 34 13.8L35.2 12.6L38.2 15.6L37 16.8C36.7 17.1 36.6 17.6 36.9 18C37.8 19.4 38.4 20.9 38.8 22.5C38.9 23 39.3 23.3 39.8 23.3H41.5V27.5H39.8C39.3 27.5 38.9 27.8 38.8 28.3C38.5 29.9 37.8 31.4 36.9 32.8C36.6 33.2 36.7 33.7001 37 34L38.2 35.2001L35.2 38.2001L34 37C33.7 36.7001 33.2 36.6001 32.8 36.9001C31.4 37.8001 29.9 38.4 28.3 38.8C27.8 38.9 27.5 39.3 27.5 39.8V41.5H23.3V39.8C23.3 39.3 23 38.9 22.5 38.8C20.8 38.2 19.3 37.6 17.9 36.7001Z" fill="#005B96"/>
<path d="M33.4 25.3C33.4 20.8 29.7 17.1 25.2 17.1C20.7 17.1 17 20.8 17 25.3C17 29.8 20.7 33.5 25.2 33.5C29.7 33.5 33.4 29.8 33.4 25.3ZM19.1 25.3C19.1 21.9 21.9 19.1 25.3 19.1C28.7 19.1 31.5 21.9 31.5 25.3C31.5 28.7 28.7 31.5 25.3 31.5C21.9 31.5 19.1 28.7 19.1 25.3Z" fill="#71CAF3"/>
<path d="M34.4 3.69995C34.7 3.69995 34.9 3.59995 35.1 3.39995C35.3 3.19995 35.4 2.99995 35.4 2.69995C35.4 2.39995 35.3 2.19995 35.1 1.99995C34.9 1.79995 34.7 1.69995 34.4 1.69995C34.1 1.69995 33.9 1.79995 33.7 1.99995C33.5 2.19995 33.4 2.39995 33.4 2.69995C33.4 2.99995 33.5 3.19995 33.7 3.39995C33.8 3.59995 34.1 3.69995 34.4 3.69995Z" fill="#71CAF3"/>
<path d="M16.2 46.8C15.9 46.8 15.7 46.9 15.5 47.1C15.3 47.3 15.2 47.5 15.2 47.8C15.2 48.1 15.3 48.3 15.5 48.5C15.7 48.7 15.9 48.8 16.2 48.8C16.5 48.8 16.7 48.7 16.9 48.5C17.1 48.3 17.2 48.1 17.2 47.8C17.2 47.5 17.1 47.3 16.9 47.1C16.7 46.9 16.5 46.8 16.2 46.8Z" fill="#005B96"/>
</g>
<defs>
<clipPath id="clip0">
<rect width="50.5" height="50.5" fill="white"/>
</clipPath>
</defs>
</svg>
