<svg width="51" height="51" viewBox="0 0 51 51" fill="none" xmlns="http://www.w3.org/2000/svg">
<g clip-path="url(#clip0)">
<path d="M47.7 18.8C46 12.9 41.9 7.80001 36.5 4.80001C36 4.50001 35.4 4.70001 35.2 5.20001C34.9 5.70001 35.1 6.30001 35.6 6.50001C40.6 9.20001 44.3 13.9 45.9 19.3C46 19.7 46.4 20 46.8 20C46.9 20 47 20 47.1 20C47.5 19.9 47.8 19.4 47.7 18.8Z" fill="#005B96"/>
<path d="M32.5 3.1C31.9 2.9 31.4 3.2 31.2 3.7C31 4.2 31.3 4.8 31.8 4.9C31.9 4.9 32 4.9 32.1 4.9C32.5 4.9 32.9 4.6 33 4.2C33.3 3.8 33 3.3 32.5 3.1Z" fill="#71CAF3"/>
<path d="M4.50001 17C4.00001 16.8 3.40001 17.1 3.20001 17.6C3.00001 18.2 2.80001 18.7 2.70001 19.3C2.60001 19.8 2.90001 20.4 3.40001 20.5C3.50001 20.5 3.60001 20.5 3.70001 20.5C4.10001 20.5 4.50001 20.2 4.70001 19.8C4.80001 19.3 5.00001 18.8 5.20001 18.3C5.30001 17.7 5.00001 17.2 4.50001 17Z" fill="#71CAF3"/>
<path d="M7.89999 11.1999C7.49999 10.8999 6.79999 10.9999 6.49999 11.3999C6.19999 11.8999 5.79999 12.3999 5.49999 12.7999C5.19999 13.2999 5.29999 13.8999 5.79999 14.1999C5.99999 14.2999 6.09999 14.3999 6.29999 14.3999C6.59999 14.3999 6.89999 14.1999 7.09999 13.8999C7.39999 13.3999 7.69999 12.9999 7.99999 12.5999C8.39999 12.1999 8.29999 11.5999 7.89999 11.1999Z" fill="#71CAF3"/>
<path d="M18.9 3.89995C18.7 3.39995 18.2 3.09995 17.6 3.29995C17.1 3.49995 16.5 3.69995 16 3.89995C15.5 4.09995 15.3 4.69995 15.5 5.19995C15.7 5.59995 16 5.79995 16.4 5.79995C16.5 5.79995 16.7 5.79995 16.8 5.69995C17.3 5.49995 17.8 5.29995 18.3 5.09995C18.8 4.89995 19.1 4.39995 18.9 3.89995Z" fill="#71CAF3"/>
<path d="M12.8 6.69999C12.5 6.29999 11.9 6.19999 11.4 6.49999C10.9 6.79999 10.5 7.19999 10 7.59999C9.7 7.99999 9.6 8.59999 10 8.99999C10.2 9.2 10.5 9.3 10.7 9.3C10.9 9.3 11.2 9.2 11.3 9.1C11.7 8.8 12.1 8.4 12.6 8.1C13.1 7.8 13.2 7.19999 12.8 6.69999Z" fill="#71CAF3"/>
<path d="M3 22.3C1.4 22.3 0 23.6 0 25.3C0 27 1.3 28.3 3 28.3C4.7 28.3 6 27 6 25.3C6 23.6 4.6 22.3 3 22.3ZM3 26.3C2.5 26.3 2 25.9 2 25.3C2 24.7 2.4 24.3 3 24.3C3.6 24.3 4 24.7 4 25.3C4 25.9 3.5 26.3 3 26.3Z" fill="#005B96"/>
<path d="M47.6 22.3C46 22.3 44.6 23.6 44.6 25.3C44.6 27 45.9 28.3 47.6 28.3C49.3 28.3 50.6 27 50.6 25.3C50.6 23.6 49.2 22.3 47.6 22.3ZM47.6 26.3C47.1 26.3 46.6 25.9 46.6 25.3C46.6 24.7 47 24.3 47.6 24.3C48.2 24.3 48.6 24.7 48.6 25.3C48.6 25.9 48.1 26.3 47.6 26.3Z" fill="#005B96"/>
<path d="M25.3 0C23.7 0 22.3 1.3 22.3 3C22.3 4.7 23.6 6 25.3 6C27 6 28.3 4.7 28.3 3C28.3 1.3 26.9 0 25.3 0ZM25.3 3.9C24.8 3.9 24.3 3.5 24.3 2.9C24.3 2.3 24.7 1.9 25.3 1.9C25.9 1.9 26.3 2.3 26.3 2.9C26.3 3.5 25.8 3.9 25.3 3.9Z" fill="#005B96"/>
<path d="M15.2 44C10.2 41.3 6.39999 36.6 4.79999 31.1C4.59999 30.6 4.09999 30.3 3.59999 30.4C3.09999 30.6 2.79999 31.1 2.89999 31.6C4.59999 37.6 8.79999 42.7 14.3 45.7C14.4 45.8 14.6 45.8 14.8 45.8C15.2 45.8 15.5 45.6 15.7 45.3C15.8 44.9 15.6 44.3 15.2 44Z" fill="#005B96"/>
<path d="M18.7 45.6C18.2 45.4 17.6 45.7 17.4 46.2C17.2 46.7 17.5 47.3 18 47.4C18.1 47.4 18.2 47.4 18.3 47.4C18.7 47.4 19.1 47.1 19.2 46.7C19.5 46.3 19.2 45.7 18.7 45.6Z" fill="#71CAF3"/>
<path d="M35 45.4C34.8 44.9 34.2 44.7 33.7 44.9C33.2 45.1 32.7 45.3 32.2 45.5C31.7 45.7 31.4 46.2 31.6 46.8C31.7 47.2 32.1 47.5 32.5 47.5C32.6 47.5 32.7 47.5 32.8 47.4C33.3 47.2 33.9 47 34.4 46.8C35 46.4 35.3 45.9 35 45.4Z" fill="#71CAF3"/>
<path d="M44.7 36.3C44.2 36 43.6 36.1 43.3 36.6C43 37.1 42.7 37.5 42.4 37.9C42.1 38.3 42.2 39 42.6 39.3C42.8 39.4 43 39.5 43.2 39.5C43.5 39.5 43.8 39.4 44 39.1C44.3 38.6 44.7 38.1 45 37.7C45.3 37.2 45.2 36.6 44.7 36.3Z" fill="#71CAF3"/>
<path d="M40.6 41.5C40.2 41.1 39.6 41 39.2 41.4C38.8 41.7 38.4 42.1 37.9 42.4C37.5 42.7 37.4 43.3 37.7 43.8C37.9 44.1 38.2 44.2 38.5 44.2C38.7 44.2 38.9 44.1 39.1 44C39.6 43.7 40 43.3 40.5 42.9C40.9 42.6 40.9 42 40.6 41.5Z" fill="#71CAF3"/>
<path d="M47.1 30C46.6 29.9 46 30.2 45.9 30.7C45.8 31.2 45.6 31.7 45.4 32.2C45.2 32.7 45.5 33.3 46 33.5C46.1 33.5 46.2 33.6 46.3 33.6C46.7 33.6 47.1 33.3 47.2 32.9C47.4 32.3 47.6 31.8 47.7 31.2C47.9 30.7 47.6 30.2 47.1 30Z" fill="#71CAF3"/>
<path d="M25.3 44.6C23.7 44.6 22.3 45.9 22.3 47.6C22.3 49.3 23.6 50.6 25.3 50.6C27 50.6 28.3 49.3 28.3 47.6C28.3 45.9 26.9 44.6 25.3 44.6ZM25.3 48.6C24.8 48.6 24.3 48.2 24.3 47.6C24.3 47 24.7 46.6 25.3 46.6C25.9 46.6 26.3 47 26.3 47.6C26.3 48.2 25.8 48.6 25.3 48.6Z" fill="#005B96"/>
<path d="M30.1 24.3H29.7C30.6 23.3 31.2 21.9 31.2 20.4V18.3V17.3V17.1C31.2 13.9 28.6 11.2 25.3 11.2C22 11.2 19.4 13.8 19.4 17.1V17.3V18.3V20.4C19.4 21.9 20 23.3 20.9 24.3H20.5C16.5 24.3 13.2 27.6 13.2 31.6V36.5C13.2 37 13.6 37.5 14.2 37.5H36.4C36.9 37.5 37.4 37.1 37.4 36.5V31.6C37.4 27.6 34.1 24.3 30.1 24.3ZM25.3 13.2C27.3 13.2 28.9 14.6 29.2 16.5L27.5 15.5C27.1 15.3 26.6 15.3 26.2 15.7C25.4 16.7 24.1 17.3 22.8 17.3H21.4V17.1C21.4 15 23.1 13.2 25.3 13.2ZM21.4 19.3H22.8C24.4 19.3 25.9 18.7 27.1 17.6L29.2 18.8V20.3C29.2 22.5 27.4 24.2 25.3 24.2C23.2 24.2 21.4 22.4 21.4 20.3V19.3ZM35.4 35.5H15.1V31.6C15.1 28.7 17.5 26.3 20.4 26.3H24.2V30.4C24.2 30.9 24.6 31.4 25.2 31.4C25.8 31.4 26.2 31 26.2 30.4V26.3H30C32.9 26.3 35.3 28.7 35.3 31.6V35.5H35.4Z" fill="#005B96"/>
<path d="M18 19.7L16.7 18.4C16.5 18.2 16.3 18.1 16 18.1C15.7 18.1 15.5 18.2 15.3 18.4L9.19999 24.5C8.79999 24.9 8.79999 25.5 9.19999 25.9C9.39999 26.1 9.59999 26.2 9.89999 26.2C10.2 26.2 10.4 26.1 10.6 25.9L16 20.5L16.6 21.1C17 21.5 17.6 21.5 18 21.1C18.4 20.7 18.4 20.1 18 19.7Z" fill="#71CAF3"/>
<path d="M38.7 11.7H36C35.5 11.7 35 12.1 35 12.7C35 13.2 35.4 13.7 36 13.7H36.4L32.8 17.3C32.4 17.7 32.4 18.3 32.8 18.7C33 18.9 33.2 19 33.5 19C33.8 19 34 18.9 34.2 18.7L37.8 15.1V15.5C37.8 16 38.2 16.5 38.8 16.5C39.3 16.5 39.8 16.1 39.8 15.5V12.7C39.7 12.2 39.3 11.7 38.7 11.7Z" fill="#71CAF3"/>
</g>
<defs>
<clipPath id="clip0">
<rect width="50.5" height="50.5" fill="white"/>
</clipPath>
</defs>
</svg>
