<svg xmlns="http://www.w3.org/2000/svg" viewBox="0 0 26.15 26.13"><defs><style>.cls-1{fill:#005b96;}</style></defs><title>phone_blue</title><g id="Слой_2" data-name="Слой 2"><g id="Layer_1" data-name="Layer 1"><path class="cls-1" d="M21.29,19.63c-.3-.32-.6-.62-.9-.91l-.46-.44L18.62,17a2.5,2.5,0,0,0-3.77,0l-.4.4c-.32.31-.64.62-.95,1a9.65,9.65,0,0,1-1.77-1.16A18.4,18.4,0,0,1,9.49,15,1,1,0,1,0,8,16.31a20.75,20.75,0,0,0,2.47,2.37h0a10.71,10.71,0,0,0,2.6,1.59l.06,0A1.27,1.27,0,0,0,14.61,20l0,0c.37-.41.75-.79,1.16-1.19l.42-.41a.85.85,0,0,1,.52-.29.81.81,0,0,1,.52.29l1.31,1.31.47.46c.3.29.58.57.85.85l0,0a.61.61,0,0,1,0,1l-1.64,1.64a1.87,1.87,0,0,1-1.22.58,6.57,6.57,0,0,1-2.88-.52,19.14,19.14,0,0,1-5.65-3.4,21.1,21.1,0,0,1-5.49-7A10.26,10.26,0,0,1,1.94,9.64a2,2,0,0,1,.65-1.78,12.54,12.54,0,0,0,1-.94c.19-.2.37-.39.56-.57h0a.65.65,0,0,1,1.05,0L7.84,9l0,0a.75.75,0,0,1,.25.45.84.84,0,0,1-.26.51L6.2,11.6A1,1,0,0,0,6.2,13a1,1,0,0,0,1.37,0l1.65-1.64a2.64,2.64,0,0,0,.83-1.89,2.58,2.58,0,0,0-.84-1.83L6.57,5A2.55,2.55,0,0,0,2.81,5c-.22.21-.43.43-.63.64s-.55.57-.84.81c0,0,0,0,0,0A4,4,0,0,0,0,9.76,12,12,0,0,0,1.29,14.1h0a23,23,0,0,0,6,7.64,21.14,21.14,0,0,0,6.22,3.73,9.3,9.3,0,0,0,3.2.65,4.52,4.52,0,0,0,.51,0h0A3.81,3.81,0,0,0,19.63,25l1.64-1.65h0a2.55,2.55,0,0,0,0-3.69"/><path class="cls-1" d="M20.91,13.06A9.61,9.61,0,0,0,18.24,7.9a9.47,9.47,0,0,0-5.15-2.66,1,1,0,1,0-.33,1.9,7.62,7.62,0,0,1,4.11,2.14A7.54,7.54,0,0,1,19,13.39a1,1,0,0,0,1,.8h.16a1,1,0,0,0,.79-1.12"/><path class="cls-1" d="M26.14,12.82a15.54,15.54,0,0,0-4.37-8.43A15.62,15.62,0,0,0,13.33,0,1,1,0,1,0,13,1.92,13.75,13.75,0,0,1,24.23,13.15a1,1,0,0,0,.95.8h.16a1,1,0,0,0,.8-1.12"/></g></g></svg>