<svg width="51" height="48" viewBox="0 0 51 48" fill="none" xmlns="http://www.w3.org/2000/svg">
<g clip-path="url(#clip0)">
<path d="M45.2 24.1L39.7 15.5C39.3 14.8 38.5 14.4 37.7 14.4H13.3C12.5 14.4 11.8 14.8 11.4 15.5L5.80001 24.1C5.20001 25 5.30001 26.1 6.00001 26.9L23.8 46.9C24.2 47.4 24.9 47.7 25.5 47.7C26.2 47.7 26.8 47.4 27.2 46.9L45 26.9C45.7 26.1 45.8 25 45.2 24.1ZM36.6 16.5L32 23.7L27.3 16.5H36.6ZM30.1 24.5H20.8L25.4 17.3L30.1 24.5ZM23.7 16.5L19 23.7L14.3 16.5H23.7ZM12.6 17.3L17.3 24.5H7.90001L12.6 17.3ZM8.30001 26.5H18.3L23.6 43.7L8.30001 26.5ZM25.5 43.1L20.4 26.5H30.6L25.5 43.1ZM27.4 43.7L32.7 26.5H42.7L27.4 43.7ZM33.8 24.5L38.5 17.3L43.2 24.5H33.8Z" fill="#71CAF3"/>
<path d="M3 24.5H1C0.4 24.5 0 24.9 0 25.5C0 26.1 0.4 26.5 1 26.5H3C3.6 26.5 4 26.1 4 25.5C4 25 3.6 24.5 3 24.5Z" fill="#005B96"/>
<path d="M50 24.5H48C47.4 24.5 47 24.9 47 25.5C47 26.1 47.4 26.5 48 26.5H50C50.6 26.5 51 26.1 51 25.5C51 25 50.6 24.5 50 24.5Z" fill="#005B96"/>
<path d="M43.5 7.49995C43.1 7.09995 42.5 7.09995 42.1 7.49995L38.8 10.8C38.4 11.2 38.4 11.8 38.8 12.2C39 12.4 39.2 12.5 39.5 12.5C39.8 12.5 40 12.4 40.2 12.2L43.5 8.89995C43.9 8.49995 43.9 7.89995 43.5 7.49995Z" fill="#005B96"/>
<path d="M12.2 10.8L8.9 7.49995C8.5 7.09995 7.9 7.09995 7.5 7.49995C7.1 7.89995 7.1 8.49995 7.5 8.89995L10.8 12.2C11 12.4 11.2 12.5 11.5 12.5C11.8 12.5 12 12.4 12.2 12.2C12.6 11.8 12.6 11.2 12.2 10.8Z" fill="#005B96"/>
<path d="M25.5 0C24.9 0 24.5 0.4 24.5 1V7.5C24.5 8.1 24.9 8.5 25.5 8.5C26.1 8.5 26.5 8.1 26.5 7.5V1C26.5 0.4 26.1 0 25.5 0Z" fill="#71CAF3"/>
<path d="M26.2 10.2C26 10 25.8 9.90002 25.5 9.90002C25.2 9.90002 25 10 24.8 10.2C24.6 10.4 24.5 10.6 24.5 10.9C24.5 11.2 24.6 11.4 24.8 11.6C25 11.8 25.2 11.9 25.5 11.9C25.8 11.9 26 11.8 26.2 11.6C26.4 11.4 26.5 11.2 26.5 10.9C26.5 10.6 26.4 10.3 26.2 10.2Z" fill="#005B96"/>
</g>
<defs>
<clipPath id="clip0">
<rect width="51" height="47.7" fill="white"/>
</clipPath>
</defs>
</svg>
