<svg width="40" height="53" viewBox="0 0 40 53" fill="none" xmlns="http://www.w3.org/2000/svg">
<g clip-path="url(#clip0)">
<path d="M4.10001 19.7C4.10001 28.3 11.1 35.2 19.6 35.2C28.1 35.2 35.1 28.2 35.1 19.7C35.1 11.2 28.1 4.19995 19.6 4.19995C11.1 4.19995 4.10001 11.1 4.10001 19.7ZM19.7 6.19995C27.1 6.19995 33.2 12.2 33.2 19.7C33.2 27.2 27.2 33.2 19.7 33.2C12.2 33.2 6.20001 27.2 6.20001 19.7C6.20001 12.2 12.2 6.19995 19.7 6.19995Z" fill="#005B96"/>
<path d="M10.1 17.8L14.1 21.8L13.2 27.4C13.1 27.8 13.3 28.2 13.6 28.4C13.9 28.6 14.3 28.7 14.7 28.5L19.7 25.9L24.7 28.5C25 28.7 25.5 28.7 25.8 28.4C26.1 28.2 26.3 27.8 26.2 27.4L25.3 21.8L29.3 17.8C29.6 17.5 29.7 17.1 29.6 16.7C29.5 16.3 29.2 16.1 28.8 16L23.2 15.2L20.7 10.2C20.5 9.79998 20.2 9.59998 19.8 9.59998C19.4 9.59998 19 9.79998 18.9 10.2L16.4 15.2L10.8 16C10.4 16.1 10.1 16.3 9.99999 16.7C9.69999 17.1 9.79999 17.5 10.1 17.8ZM17.1 17.2C17.4 17.1 17.7 16.9 17.9 16.6L19.7 12.9L21.5 16.6C21.7 16.9 21.9 17.1 22.3 17.2L26.4 17.8L23.5 20.7C23.3 20.9 23.2 21.3 23.2 21.6L23.9 25.6L20.3 23.7C20.2 23.6 20 23.6 19.8 23.6C19.6 23.6 19.5 23.6 19.3 23.7L15.7 25.6L16.4 21.6C16.5 21.3 16.3 20.9 16.1 20.7L13 17.8L17.1 17.2Z" fill="#71CAF3"/>
<path d="M20.7 1C20.7 1.6 20.2 2 19.7 2C19.1 2 18.7 1.5 18.7 1C18.7 0.5 19.2 0 19.7 0C20.2 0 20.7 0.5 20.7 1Z" fill="#005B96"/>
<path d="M14.8 0.599971C6.1 2.79997 0 10.7 0 19.7C0 25.3 2.3 30.6 6.5 34.3L0.3 45.3C0 45.6 0.1 46 0.3 46.4C0.5 46.7 0.9 46.9 1.3 46.8L8.4 45.3L10.9 52.3C11 52.7 11.4 52.9 11.8 53C12.2 53.1 12.6 52.8 12.8 52.5L19.7 40.4L26.6 52.5C26.8 52.8 27.1 53 27.5 53H27.6C28 53 28.3 52.7 28.5 52.3L31 45.3L38.1 46.8C38.5 46.9 38.9 46.7 39.1 46.4C39.3 46.1 39.4 45.6 39.2 45.3L33 34.3C37.1 30.6 39.5 25.3 39.5 19.7C39.5 10.7 33.4 2.89997 24.7 0.599971C24.1 0.499971 23.6 0.799971 23.4 1.29997C23.2 1.79997 23.6 2.39997 24.1 2.59997C31.9 4.59997 37.3 11.6 37.3 19.7C37.3 29.5 29.3 37.3 19.7 37.3C10.1 37.3 2.1 29.5 2.1 19.7C2.1 11.6 7.5 4.59997 15.3 2.59997C15.9 2.49997 16.2 1.89997 16 1.29997C15.9 0.799971 15.3 0.499971 14.8 0.599971ZM12.1 49.5L10.1 43.8C9.9 43.3 9.4 43 8.9 43.1L3.2 44.3L8.1 35.6C11 37.7 14.4 39 17.9 39.3L12.1 49.5ZM30.4 43.1C29.9 43 29.4 43.3 29.2 43.8L27.2 49.5L21.4 39.3C24.9 39 28.4 37.7 31.2 35.6L36.1 44.3L30.4 43.1Z" fill="#71CAF3"/>
</g>
<defs>
<clipPath id="clip0">
<rect width="39.3" height="53" fill="white"/>
</clipPath>
</defs>
</svg>
